# Alias OBJ Model File
# Exported from SketchUp, (c) 2000-2012 Trimble Navigation Limited
# File units = millimeters

mtllib Bac thang.mtl

g Mesh1 Bacthang1 Model

usemtl FrontColor
v 101129 0 13948.6
vt -47.2441 24.7244
vn 0 -1 -0
v 99928.7 0 14576.6
vt 0 0
v 99928.7 0 14306.7
vt 0 10.6247
v 100229 0 14306.7
vt -11.811 10.6247
v 100229 0 14149.7
vt -11.811 16.8058
v 100529 0 14149.7
vt -23.622 16.8058
v 100529 0 13992.7
vt -23.622 22.9869
v 100829 0 13992.7
vt -35.4331 22.9869
v 100829 0 13835.7
vt -35.4331 29.168
v 101129 0 13835.7
vt -47.2441 29.168
f 1/1/1 2/2/1 3/3/1 4/4/1 5/5/1 6/6/1 7/7/1 8/8/1 9/9/1 10/10/1 

vn 0.463676 0 0.886005
vt 53.3226 0
v 101129 1200 13948.6
vt 53.3226 47.2441
v 99928.7 1200 14576.6
vt 0 47.2441
f 2/2/2 1/11/2 11/12/2 12/13/2 

vt 24.7244 0
vn 1 0 -0
vt 29.168 0
v 101129 1200 13835.7
vt 29.168 47.2441
vt 24.7244 47.2441
f 1/14/3 10/15/3 13/16/3 11/17/3 

vt -47.2441 0
vn 0 0 -1
vt -35.4331 0
v 100829 1200 13835.7
vt -35.4331 47.2441
vt -47.2441 47.2441
f 10/18/4 9/19/4 14/20/4 13/21/4 

vt -29.168 0
vn -1 0 -0
vt -22.9869 0
v 100829 1200 13992.7
vt -22.9869 47.2441
vt -29.168 47.2441
f 9/22/5 8/23/5 15/24/5 14/25/5 

vt -23.622 0
v 100529 1200 13992.7
vt -23.622 47.2441
f 8/19/4 7/26/4 16/27/4 15/20/4 

vt -16.8058 0
v 100529 1200 14149.7
vt -16.8058 47.2441
f 7/23/5 6/28/5 17/29/5 16/24/5 

vt -11.811 0
v 100229 1200 14149.7
vt -11.811 47.2441
f 6/26/4 5/30/4 18/31/4 17/27/4 

vt -10.6247 0
v 100229 1200 14306.7
vt -10.6247 47.2441
f 5/28/5 4/32/5 19/33/5 18/29/5 

v 99928.7 1200 14306.7
f 4/30/4 3/2/4 20/13/4 19/31/4 

f 3/32/5 2/2/5 12/13/5 20/33/5 

vn 0 1 -0
vt 47.2441 24.7244
vt 47.2441 29.168
vt 35.4331 29.168
vt 35.4331 22.9869
vt 23.622 22.9869
vt 23.622 16.8058
vt 11.811 16.8058
vt 11.811 10.6247
f 12/2/6 11/34/6 13/35/6 14/36/6 15/37/6 16/38/6 17/39/6 18/40/6 19/41/6 20/3/6 

