# Alias OBJ Model File
# Exported from SketchUp, (c) 2000-2012 Trimble Navigation Limited
# File units = millimeters

mtllib Cau thang.mtl

g Mesh1 Bacthang2_1 Model

usemtl FrontColor
v 91635.5 7.30935e-12 -22986.6
vt -35.4331 122.835
vn -6.01593e-16 -1 -7.33191e-15
v 91335.5 8.66294e-12 -23146.6
vt -23.622 129.134
v 91635.5 8.48246e-12 -23146.6
vt -35.4331 129.134
f 1/1/1 2/2/1 3/3/1

v 91635.5 1300 -22986.6
vt -26.5401 51.1811
vn -0.470588 1.59559e-18 0.882353
v 91335.5 1300 -23146.6
vt -39.9259 51.1811
vt -39.9259 3.12838e-13
vt -26.5401 2.59548e-13
f 4/4/2 5/5/2 2/6/2 1/7/2 

vt 23.622 129.134
vn 0 1 -0
vt 35.4331 122.835
v 91635.5 1300 -23146.6
vt 35.4331 129.134
f 5/8/3 4/9/3 6/10/3

vt 129.134 51.1811
vn 1 0 -0
vt 122.835 51.1811
vt 122.835 2.59348e-13
vt 129.134 3.05533e-13
f 6/11/4 4/12/4 1/13/4 3/14/4 

v 91935.5 1300 -22826.6
vt -13.1542 51.1811
vn -0.470588 0 0.882353
vt -26.5401 2.59348e-13
v 91935.5 7.30935e-12 -22826.6
vt -13.1542 2.59348e-13
f 7/15/5 4/4/5 1/16/5 8/17/5 

vt 47.2441 116.535
v 91935.5 1300 -22986.6
vt 47.2441 122.835
f 4/9/3 7/18/3 9/19/3

vt 116.535 51.1811
vt 116.535 2.59348e-13
v 91935.5 7.30935e-12 -22986.6
f 9/12/4 7/20/4 8/21/4 10/13/4 

vt -47.2441 51.1811
vn 0 0 -1
v 92235.5 1300 -22826.6
vt -59.0551 51.1811
v 92235.5 7.21911e-13 -22826.6
vt -59.0551 0
vt -47.2441 2.59348e-13
f 7/22/6 11/23/6 12/24/6 8/25/6 

v 92235.5 1300 -22666.6
vt 59.0551 110.236
vt 59.0551 116.535
f 7/18/3 13/26/3 11/27/3

vt 0.231589 51.1811
vn -0.470588 1.91471e-18 0.882353
vt -13.1542 2.59588e-13
v 92235.5 7.21911e-13 -22666.6
vt 0.231589 2.3945e-16
f 13/28/7 7/15/7 8/29/7 14/30/7 

vt -59.0551 110.236
vn -2.19581e-14 -1 -0
vt -47.2441 116.535
vt -59.0551 116.535
f 14/31/8 8/32/8 12/33/8

vt 110.236 51.1811
vt 110.236 0
vt 116.535 0
f 11/20/4 13/34/4 14/35/4 12/36/4 

v 92535.5 1300 -22506.6
vt 13.6174 51.1811
vn -0.470588 -4.46766e-18 0.882353
vt 0.231589 -5.58716e-16
v 92535.5 9.02389e-13 -22506.6
vt 13.6174 6.54671e-15
f 15/37/9 13/28/9 14/38/9 16/39/9 

vt 70.8661 103.937
v 92535.5 1300 -22666.6
vt 70.8661 110.236
f 13/26/3 15/40/3 17/41/3

vt 103.937 51.1811
vt 103.937 7.10543e-15
v 92535.5 9.02389e-13 -22666.6
vt 110.236 7.10543e-15
f 17/34/4 15/42/4 16/43/4 18/44/4 

v 92835.5 1300 -22346.6
vt 27.0032 51.1811
vn -0.470588 -3.82942e-18 0.882353
vt 13.6174 6.62653e-15
v 92835.5 1.26334e-12 -22346.6
vt 27.0032 2.08374e-14
f 19/45/10 15/37/10 16/46/10 20/47/10 

vt 82.6772 97.6378
v 92835.5 1300 -22506.6
vt 82.6772 103.937
f 15/40/3 19/48/3 21/49/3

vt 97.6378 51.1811
vt 97.6378 2.13163e-14
v 92835.5 1.26334e-12 -22506.6
vt 103.937 2.13163e-14
f 21/42/4 19/50/4 20/51/4 22/52/4 

vt -82.6772 51.1811
v 93135.5 1300 -22346.6
vt -94.4882 51.1811
v 93135.5 1.08287e-12 -22346.6
vt -94.4882 1.42109e-14
vt -82.6772 2.13163e-14
f 19/53/6 23/54/6 24/55/6 20/56/6 

v 93135.5 1300 -22186.6
vt 94.4882 91.3386
vt 94.4882 97.6378
f 19/48/3 25/57/3 23/58/3

vt 40.3891 51.1811
vn -0.470588 -6.38237e-19 0.882353
vt 27.0032 2.12365e-14
v 93135.5 1.08287e-12 -22186.6
vt 40.3891 1.4131e-14
f 25/59/11 19/45/11 20/60/11 26/61/11 

vt -94.4882 91.3386
vn -6.01593e-16 -1 -2.18899e-31
vt -82.6772 97.6378
vt -94.4882 97.6378
f 26/62/12 20/63/12 24/64/12

vt 91.3386 51.1811
vt 91.3386 1.42109e-14
vt 97.6378 1.42109e-14
f 23/50/4 25/65/4 26/66/4 24/67/4 

v 93435.5 1300 -22026.6
vt 53.7749 51.1811
vn -0.470588 9.57356e-19 0.882353
vt 40.3891 1.43306e-14
v 93435.5 1.44382e-12 -22026.6
vt 53.7749 2.85414e-14
f 27/68/13 25/59/13 26/69/13 28/70/13 

vt 106.299 85.0394
v 93435.5 1300 -22186.6
vt 106.299 91.3386
f 25/57/3 27/71/3 29/72/3

vt 85.0394 51.1811
vt 85.0394 2.84217e-14
v 93435.5 1.44382e-12 -22186.6
vt 91.3386 2.84217e-14
f 29/65/4 27/73/4 28/74/4 30/75/4 

vt -106.299 85.0394
vn 1.20319e-15 -1 -0
vt -106.299 91.3386
f 28/76/14 26/62/14 30/77/14

vt -106.299 51.1811
vt -106.299 2.84217e-14
f 25/54/6 29/78/6 30/79/6 26/55/6 

vt -70.8661 103.937
vt -82.6772 103.937
f 20/63/14 16/80/14 22/81/14

vt -70.8661 51.1811
vt -70.8661 7.10543e-15
f 15/82/6 21/53/6 22/56/6 16/83/6 

vn 6.01593e-16 -1 -0
vt -70.8661 110.236
f 16/80/15 14/31/15 18/84/15

f 13/23/6 17/82/6 18/83/6 14/24/6 

vn 0 -1 -0
vt -47.2441 122.835
f 8/32/16 1/1/16 10/85/16

vt -35.4331 51.1811
vt -35.4331 2.59348e-13
f 4/86/6 9/22/6 10/25/6 1/87/6 

vt -23.622 51.1811
vt -35.4331 3.05533e-13
vt -23.622 3.12639e-13
f 5/88/6 6/86/6 3/89/6 2/90/6 

v 91335.5 1300 -23306.6
vt 135.433 51.1811
vt 129.134 3.12639e-13
v 91335.5 8.66294e-12 -23306.6
vt 135.433 3.12639e-13
f 31/91/4 5/11/4 2/92/4 32/93/4 

v 91035.5 1300 -23306.6
vt 11.811 135.433
vt 23.622 135.433
f 33/94/3 5/8/3 31/95/3

vt -53.3117 51.1811
v 91035.5 8.66294e-12 -23306.6
vt -53.3117 3.12639e-13
vt -39.9259 3.12639e-13
f 5/5/5 33/96/5 34/97/5 2/98/5 

vt -11.811 51.1811
vt -11.811 3.12639e-13
f 33/99/6 31/88/6 32/90/6 34/100/6 

vt -11.811 135.433
vt -23.622 135.433
f 2/2/16 34/101/16 32/102/16

g Mesh2 Bacthang2_1 Model

v 94935.5 2029 -21540.6
vt 165.354 29.9079
vn 1.13014e-18 -0.5547 0.83205
v 94935.5 2264.5 -21383.6
vt 165.354 41.0511
v 93435.5 2264.5 -21383.6
vt 106.299 41.0511
v 93435.5 2029 -21540.6
vt 106.299 29.9079
f 35/103/17 36/104/17 37/105/17 38/106/17 

vt 59.7244 89.1535
vt 65.9055 79.8819
v 94935.5 2264.5 -21540.6
vt 65.9055 89.1535
f 36/107/4 35/108/4 39/109/4

vt -165.354 89.1535
vt -165.354 79.8819
vt -106.299 79.8819
v 93435.5 2264.5 -21540.6
vt -106.299 89.1535
f 39/110/6 35/111/6 38/112/6 40/113/6 

v 94935.5 1793.5 -21697.6
vt 165.354 18.7648
vn 2.26029e-18 -0.5547 0.83205
v 93435.5 1793.5 -21697.6
vt 106.299 18.7648
f 41/114/18 35/103/18 38/106/18 42/115/18 

vt 72.0866 70.6102
v 94935.5 2029 -21697.6
vt 72.0866 79.8819
f 35/108/4 41/116/4 43/117/4

vt -165.354 70.6102
vt -106.299 70.6102
v 93435.5 2029 -21697.6
f 43/111/6 41/118/6 42/119/6 44/112/6 

vt 165.354 72.0866
v 94935.5 1793.5 -21854.6
vt 165.354 78.2677
v 93435.5 1793.5 -21854.6
vt 106.299 78.2677
vt 106.299 72.0866
f 41/120/3 45/121/3 46/122/3 42/123/3 

v 94935.5 1558 -21854.6
vt 78.2677 61.3386
vt 78.2677 70.6102
f 41/116/4 47/124/4 45/125/4

vt 165.354 7.62167
vn -3.39043e-18 -0.5547 0.83205
v 93435.5 1558 -21854.6
vt 106.299 7.62167
f 47/126/19 41/114/19 42/115/19 48/127/19 

vt -78.2677 61.3386
vn -1 -4.72232e-29 5.14994e-13
vt -72.0866 70.6102
vt -78.2677 70.6102
f 48/128/20 42/129/20 46/130/20

vt -165.354 61.3386
vt -106.299 61.3386
f 45/118/6 47/131/6 48/132/6 46/119/6 

v 94935.5 1558 -22026.6
vt 165.354 85.0394
v 93435.5 1558 -22026.6
f 47/121/3 49/133/3 50/71/3 48/122/3 

v 94935.5 1300 -22026.6
vt 85.0394 61.3386
f 47/124/4 51/73/4 49/134/4

vt 165.354 -4.5861
vn 3.39043e-18 -0.5547 0.83205
vt 106.299 -4.5861
f 51/135/21 47/126/21 48/127/21 27/136/21 

vt -85.0394 51.1811
vn -1 -3.13388e-12 2.9548e-12
vt -85.0394 61.3386
f 27/137/22 48/128/22 50/138/22

vt -165.354 51.1811
f 49/131/6 51/139/6 27/78/6 50/132/6 

vn -1 -4.72232e-29 -6.62135e-13
vt -65.9055 79.8819
vt -72.0866 79.8819
f 42/129/23 38/140/23 44/141/23

vt 165.354 65.9055
vt 106.299 65.9055
f 35/142/3 43/120/3 44/123/3 38/143/3 

vn -1 -5.9029e-30 -7.35706e-14
vt -59.7244 89.1535
vt -65.9055 89.1535
f 38/140/24 37/144/24 40/145/24

vt 165.354 59.7244
vt 106.299 59.7244
f 36/146/3 39/142/3 40/143/3 37/147/3 

v 94935.5 2493.85 -21383.6
vt -165.354 98.1829
v 93435.5 2493.85 -21383.6
vt -106.299 98.1829
f 52/148/6 36/110/6 37/113/6 53/149/6 

v 94935.5 2493.85 -21230.7
vt 53.7048 98.1829
vt 59.7244 98.1829
f 54/150/4 36/107/4 52/151/4

vn -4.52057e-18 -0.5547 0.83205
vt 165.354 51.903
v 93435.5 2493.85 -21230.7
vt 106.299 51.903
f 36/104/25 54/152/25 55/153/25 37/105/25 

vt 165.354 53.7048
vt 106.299 53.7048
f 54/154/3 52/146/3 53/147/3 55/155/3 

vn -1 0 -0
vt -53.7048 98.1829
vt -59.7244 98.1829
f 37/144/26 55/156/26 53/157/26

g Mesh3 Bacthang2_1 Model

v 91635.5 3800 -20168.8
vt -11.8985 149.606
v 91635.5 3800 -20316.6
vt -17.7165 149.606
v 91635.5 2493.85 -20316.6
vt -17.7165 98.1829
v 91635.5 2493.85 -20168.8
vt -11.8985 98.1829
f 56/158/26 57/159/26 58/160/26 59/161/26 

vt 35.4331 11.8985
v 91928.8 3800 -20316.6
vt 46.9836 17.7165
vt 35.4331 17.7165
f 56/162/3 60/163/3 57/164/3

vt 49.9309 149.606
vn 0.449858 0 0.8931
vt 36.9979 149.606
vt 36.9979 98.1829
v 91928.8 2493.85 -20316.6
vt 49.9309 98.1829
f 60/165/27 56/166/27 59/167/27 61/168/27 

vt -46.9836 17.7165
vt -35.4331 11.8985
vt -35.4331 17.7165
f 61/169/16 59/170/16 58/171/16

vt -35.4331 149.606
vt -46.9836 149.606
vt -46.9836 98.1829
vt -35.4331 98.1829
f 57/172/6 60/173/6 61/174/6 58/175/6 

g Mesh4 Bacthang2_1 Model

v 91333.3 2493.85 -20016.6
vt -23.5352 5.90551
v 91035.5 2493.85 -19866.6
vt -11.811 0
v 91035.5 2493.85 -20016.6
vt -11.811 5.90551
f 62/176/16 63/177/16 64/178/16

v 91333.3 3800 -20016.6
vt 23.6759 149.606
v 91035.5 3800 -19866.6
vt 10.5484 149.606
vt 10.5484 98.1829
vt 23.6759 98.1829
f 65/179/27 66/180/27 63/181/27 62/182/27 

vt 11.811 0
vt 23.5352 5.90551
v 91035.5 3800 -20016.6
vt 11.811 5.90551
f 66/183/3 65/184/3 67/185/3

vt -11.811 149.606
vt -23.5352 149.606
vt -23.5352 98.1829
vt -11.811 98.1829
f 67/186/6 65/187/6 62/188/6 64/189/6 

vt 0 149.606
vt -5.90551 149.606
vt -5.90551 98.1829
vt 0 98.1829
f 66/190/26 67/191/26 64/192/26 63/193/26 

g Mesh5 Bacthang2_1 Model

v 92822.2 3800 -20766.6
vt -82.1561 35.4331
v 92835.5 3800 -20773.2
vt -82.6772 35.6955
v 92835.5 3800 -20766.6
vt -82.6772 35.4331
f 68/194/16 69/195/16 70/196/16

g Mesh6 Bacthang2_1 Model

v 93120 3800 -20916.6
vt -93.8803 41.3386
v 93135.5 3800 -20924.4
vt -94.4882 41.6448
v 93135.5 3800 -20916.6
vt -94.4882 41.3386
f 71/197/16 72/198/16 73/199/16

g Mesh7 Bacthang2_1 Model

v 92822.2 2493.85 -20766.6
v 92535.5 2493.85 -20622.1
vt -70.8661 29.7463
v 92535.5 2493.85 -20766.6
vt -70.8661 35.4331
f 74/194/16 75/200/16 76/201/16

vt 89.3135 149.606
v 92535.5 3800 -20622.1
vt 76.6722 149.606
vt 76.6722 98.1829
vt 89.3135 98.1829
f 68/202/27 77/203/27 75/204/27 74/205/27 

vt 70.8661 29.7463
vt 82.1561 35.4331
v 92535.5 3800 -20766.6
vt 70.8661 35.4331
f 77/206/3 68/207/3 78/208/3

vt -70.8661 149.606
vt -82.1561 149.606
vt -82.1561 98.1829
vt -70.8661 98.1829
f 78/209/6 68/210/6 74/211/6 76/212/6 

vt -29.7463 149.606
vt -29.7463 98.1829
f 77/213/26 78/172/26 76/175/26 75/214/26 

g Mesh8 Bacthang2_1 Model

vt 102.441 149.606
vt 89.8969 149.606
v 92835.5 2493.85 -20773.2
vt 89.8969 98.1829
v 93120 2493.85 -20916.6
vt 102.441 98.1829
f 71/215/27 69/216/27 79/217/27 80/218/27 

vt 82.6772 35.6955
vt 93.8803 41.3386
v 92835.5 3800 -20916.6
vt 82.6772 41.3386
f 69/219/3 71/220/3 81/221/3

vt -82.6772 149.606
vt -93.8803 149.606
vt -93.8803 98.1829
v 92835.5 2493.85 -20916.6
vt -82.6772 98.1829
f 81/222/6 71/223/6 80/224/6 82/225/6 

vt -82.6772 41.3386
f 80/197/16 79/195/16 82/226/16

vt -35.6955 149.606
vt -41.3386 149.606
vt -41.3386 98.1829
vt -35.6955 98.1829
f 69/227/26 81/228/26 82/229/26 79/230/26 

g Mesh9 Bacthang2_1 Model

v 93435.5 3800 -21075.5
vt -47.5941 149.606
v 93435.5 3800 -21226.6
vt -53.5433 149.606
v 93435.5 2493.85 -21226.6
vt -53.5433 98.1829
v 93435.5 2493.85 -21075.5
vt -47.5941 98.1829
f 83/231/26 84/232/26 85/233/26 86/234/26 

vt 106.299 47.5941
v 93735.5 3800 -21226.6
vt 118.11 53.5433
vt 106.299 53.5433
f 83/235/3 87/236/3 84/237/3

vt 129.571 149.606
vt 116.346 149.606
vt 116.346 98.1829
v 93735.5 2493.85 -21226.6
vt 129.571 98.1829
f 87/238/27 83/239/27 86/240/27 88/241/27 

vt -118.11 53.5433
vt -106.299 47.5941
vt -106.299 53.5433
f 88/242/16 86/243/16 85/244/16

vt -106.299 149.606
vt -118.11 149.606
vt -118.11 98.1829
f 84/245/6 87/246/6 88/247/6 85/149/6 

g Mesh10 Bacthang2_1 Model

v 93417.8 2493.85 -21066.6
vt -105.604 47.2441
v 93135.5 2493.85 -20924.4
v 93135.5 2493.85 -21066.6
vt -94.4882 47.2441
f 89/248/16 90/198/16 91/249/16

v 93417.8 3800 -21066.6
vt 115.568 149.606
vt 103.122 149.606
vt 103.122 98.1829
vt 115.568 98.1829
f 92/250/27 72/251/27 90/252/27 89/253/27 

vt 94.4882 41.6448
vt 105.604 47.2441
v 93135.5 3800 -21066.6
vt 94.4882 47.2441
f 72/254/3 92/255/3 93/256/3

vt -94.4882 149.606
vt -105.604 149.606
vt -105.604 98.1829
vt -94.4882 98.1829
f 93/257/6 92/258/6 89/259/6 91/260/6 

vt -41.6448 149.606
vt -47.2441 149.606
vt -47.2441 98.1829
vt -41.6448 98.1829
f 72/261/26 93/262/26 91/263/26 90/264/26 

g Mesh11 Bacthang2_1 Model

v 92235.5 3800 -20616.6
vt -59.0551 149.606
v 92524.4 3800 -20616.6
vt -70.4319 149.606
v 92524.4 2493.85 -20616.6
vt -70.4319 98.1829
v 92235.5 2493.85 -20616.6
vt -59.0551 98.1829
f 94/265/6 95/266/6 96/267/6 97/268/6 

v 92235.5 3800 -20471
vt 59.0551 23.797
vt 70.4319 29.5276
vt 59.0551 29.5276
f 98/269/3 95/270/3 94/271/3

vt 76.186 149.606
vt 63.4474 149.606
v 92235.5 2493.85 -20471
vt 63.4474 98.1829
vt 76.186 98.1829
f 95/272/27 98/273/27 99/274/27 96/275/27 

vt -23.797 149.606
vt -29.5276 149.606
vt -29.5276 98.1829
vt -23.797 98.1829
f 98/276/26 94/277/26 97/278/26 99/279/26 

vt -70.4319 29.5276
vt -59.0551 23.797
vt -59.0551 29.5276
f 96/280/16 99/281/16 97/282/16

g Mesh12 Bacthang2_1 Model

v 91935.5 3800 -20319.9
vt -17.8478 149.606
v 91935.5 3800 -20466.6
vt -23.622 149.606
v 91935.5 2493.85 -20466.6
vt -23.622 98.1829
v 91935.5 2493.85 -20319.9
vt -17.8478 98.1829
f 100/283/26 101/284/26 102/285/26 103/286/26 

vt 47.2441 17.8478
v 92226.6 3800 -20466.6
vt 58.7077 23.622
vt 47.2441 23.622
f 100/287/3 104/288/3 101/289/3

vt 63.0585 149.606
vt 50.2227 149.606
vt 50.2227 98.1829
v 92226.6 2493.85 -20466.6
vt 63.0585 98.1829
f 104/290/27 100/291/27 103/292/27 105/293/27 

vt -58.7077 23.622
vt -47.2441 17.8478
vt -47.2441 23.622
f 105/294/16 103/295/16 102/296/16

vt -58.7077 149.606
vt -58.7077 98.1829
f 101/262/6 104/297/6 105/298/6 102/263/6 

g Mesh13 Bacthang2_1 Model

v 91631 2493.85 -20166.6
vt -35.2594 11.811
v 91335.5 2493.85 -20017.7
vt -23.622 5.94926
v 91335.5 2493.85 -20166.6
vt -23.622 11.811
f 106/299/16 107/300/16 108/301/16

v 91631 3800 -20166.6
vt 36.8034 149.606
v 91335.5 3800 -20017.7
vt 23.7732 149.606
vt 23.7732 98.1829
vt 36.8034 98.1829
f 109/302/27 110/303/27 107/304/27 106/305/27 

vt 23.622 5.94926
vt 35.2594 11.811
v 91335.5 3800 -20166.6
vt 23.622 11.811
f 110/306/3 109/307/3 111/308/3

vt -35.2594 149.606
vt -35.2594 98.1829
f 111/284/6 109/309/6 106/310/6 108/285/6 

vt -5.94926 149.606
vt -5.94926 98.1829
f 110/311/26 111/186/26 108/189/26 107/312/26 

g Mesh14 Bacthang2_1 Model

v 93435.5 3800 -21066.6
vt -106.299 47.2441
f 92/248/16 83/243/16 112/313/16

g Mesh15 Bacthang2_1 Model

v 92535.5 3800 -20616.6
vt -70.8661 29.5276
f 95/280/16 77/200/16 113/314/16

g Mesh16 Bacthang2_1 Model

v 92235.5 3800 -20466.6
vt -59.0551 23.622
f 104/294/16 98/281/16 114/315/16

g Mesh17 Bacthang2_1 Model

v 91335.5 3800 -20016.6
vt -23.622 5.90551
f 65/176/16 110/300/16 115/316/16

g Mesh18 Bacthang2_1 Model

v 91935.5 3800 -20316.6
vt -47.2441 17.7165
f 60/169/16 100/295/16 116/317/16

g Mesh19 Bacthang2_1 Model

v 91635.5 3800 -20166.6
vt -35.4331 11.811
f 109/299/16 56/170/16 117/318/16

g Mesh20 Bacthang2_1 Model

v 90735.5 1300 -23466.6
vt 0 141.732
v 91035.5 1300 -23466.6
vt -11.811 141.732
f 33/101/16 118/319/16 119/320/16

g Mesh21 Dam_chieu_nghi1 Model

v 94735.5 2.57962e-19 -22013.2
vt -44.7507 0
v 94735.5 5.15924e-19 -21663.2
vt -30.9711 1.0156e-20
v 94735.5 1300 -21663.2
vt -30.9711 51.1811
v 94735.5 1300 -22013.2
vt -44.7507 51.1811
f 120/321/26 121/322/26 122/323/26 123/324/26 

v 94935.5 2.57962e-19 -22013.2
vt -7.87402 44.7507
vn 0 -1 7.37034e-22
v 94935.5 5.15924e-19 -21663.2
vt -7.87402 30.9711
vt -1.50067e-11 30.9711
vt -1.50067e-11 44.7507
f 124/325/28 125/326/28 121/327/28 120/328/28 

vt 30.9711 1.0156e-20
vt 44.7507 0
v 94935.5 1300 -22013.2
vt 44.7507 51.1811
v 94935.5 1300 -21663.2
vt 30.9711 51.1811
f 125/329/4 124/330/4 126/331/4 127/332/4 

vt -7.87402 51.1811
vt -7.87402 0
vt -1.50067e-11 0
vt -1.50067e-11 51.1811
f 126/333/6 124/334/6 120/335/6 123/336/6 

v 94935.5 2493.85 -21226.6
vt -7.87402 74.4027
vn -1.67715e-16 0.550222 -0.835018
vt -7.87402 18.1143
vt -1.50157e-11 18.1143
v 94735.5 2493.85 -21226.6
vt -2.76764e-15 74.4027
f 128/337/29 126/338/29 123/339/29 129/340/29 

vt -13.7795 98.1829
v 94935.5 2493.85 -20876.6
f 128/341/26 126/324/26 127/323/26 130/193/26 

vt 7.87402 25.6961
vn 4.15998e-17 -0.550222 0.835018
vt 7.87402 81.9845
v 94735.5 2493.85 -20876.6
vt 0 81.9845
vt 1.50082e-11 25.6961
f 127/342/30 130/343/30 131/344/30 122/345/30 

vt 7.87402 0
vt 7.87402 13.7795
vt 0 13.7795
vt 0 0
f 130/346/3 128/347/3 129/348/3 131/349/3 

v 94935.5 3800 -20876.6
v 94935.5 3800 -21226.6
vt -13.7795 149.606
f 132/190/26 133/350/26 128/341/26 130/193/26 

vt -7.87402 13.7795
v 94735.5 3800 -20876.6
v 94735.5 3800 -21226.6
f 133/351/16 132/334/16 134/349/16 135/348/16 

vt -7.87402 149.606
vt -7.87402 98.1829
f 134/190/6 132/352/6 130/353/6 131/193/6 

vt 13.7795 149.606
vt 13.7795 98.1829
f 135/354/4 134/190/4 131/193/4 129/355/4 

vn -1 -3.19278e-13 5.04827e-28
f 129/341/31 123/324/31 122/323/31 131/193/31 

vt 7.87402 149.606
vn 0 0 1
vt 7.87402 98.1829
f 133/356/32 135/190/32 129/193/32 128/357/32 

vt 7.87402 1.0156e-20
vt 7.87402 51.1811
vt 1.50067e-11 51.1811
vt 1.50067e-11 1.0156e-20
f 125/358/32 127/359/32 122/360/32 121/361/32 

g Mesh22 Banthang1 Model

v 90735.5 5.15924e-19 -23466.6
vt -155.512 0
vn -1 0 4.38922e-13
v 90735.5 5.15924e-19 -22966.6
vt -135.827 0
v 90735.5 1300 -22966.6
vt -135.827 51.1811
vt -155.512 51.1811
f 136/362/33 137/363/33 138/364/33 118/365/33 

vt -8.6402e-12 135.827
vt 0 155.512
v 91035.5 5.15924e-19 -23466.6
vt -11.811 155.512
v 91035.5 5.15924e-19 -23306.6
vt -11.811 149.213
v 93435.5 5.15924e-19 -22026.6
vt -106.299 98.8189
v 94935.5 5.15924e-19 -22026.6
vt -165.354 98.8189
vt -165.354 84.5144
v 94735.5 5.15924e-19 -21663.2
vt -157.48 84.5144
v 94735.5 5.15924e-19 -21913.2
vt -157.48 94.357
v 93435.5 5.15924e-19 -21913.2
vt -106.299 94.357
v 91179.2 5.15924e-19 -23116.6
vt -17.4705 141.732
v 90935.5 5.15924e-19 -23116.6
vt -7.87402 141.732
v 90935.5 5.15924e-19 -22966.6
vt -7.87402 135.827
f 137/366/16 136/367/16 139/368/16 140/369/16 141/370/16 142/371/16 125/372/16 143/373/16 144/374/16 145/375/16 146/376/16 147/377/16 148/378/16 

vn -1.9251e-13 0 -1
vt -2.99375e-11 0
vt -2.99375e-11 51.1811
f 139/177/34 136/379/34 118/380/34 119/99/34 

vt 8.6402e-12 135.827
v 90935.5 1300 -22966.6
vt 7.87402 135.827
v 90935.5 1300 -23116.6
vt 7.87402 141.732
v 91179.2 1300 -23116.6
vt 17.4705 141.732
v 93435.5 1300 -21913.2
vt 106.299 94.357
v 94735.5 1300 -21913.2
vt 157.48 94.357
v 94935.5 1300 -21913.2
vt 165.354 94.357
vt 165.354 98.8189
vt 106.299 98.8189
vt 11.811 149.213
vt 11.811 155.512
f 118/367/3 138/381/3 149/382/3 150/383/3 151/384/3 152/385/3 153/386/3 154/387/3 51/388/3 27/389/3 33/390/3 119/391/3 

vt 8.6402e-12 0
vt 8.6402e-12 51.1811
f 137/392/32 148/346/32 149/359/32 138/393/32 

vt 135.827 0
vt 141.732 0
vt 141.732 51.1811
vt 135.827 51.1811
f 148/394/4 147/395/4 150/396/4 149/397/4 

vt 17.4705 0
vt 17.4705 51.1811
f 147/346/32 146/398/32 151/399/32 150/359/32 

vt -51.2824 0
vt 49.3901 0
vt 49.3901 51.1811
vt -51.2824 51.1811
f 146/400/5 145/401/5 152/402/5 151/403/5 

vt 106.299 0
vt 157.48 0
vt 157.48 51.1811
vt 106.299 51.1811
f 145/404/32 144/405/32 153/406/32 152/407/32 

vt -94.357 0
vt -84.5144 0
v 94735.5 1300 -21663.2
vt -84.5144 51.1811
vt -94.357 51.1811
f 144/408/26 143/409/26 155/410/26 153/411/26 

vt 165.354 0
vt 165.354 51.1811
f 143/405/32 125/412/32 127/413/32 155/406/32 

vt 98.8189 0
vt 98.8189 51.1811
vt 94.357 51.1811
vt 84.5144 51.1811
vt 84.5144 0
f 142/414/4 51/415/4 154/416/4 127/417/4 125/418/4 

vt -165.354 0
vt -106.299 0
f 142/419/6 141/420/6 27/78/6 51/139/6 

vt -47.2904 0
vn 0.470588 0 -0.882353
vt 59.7962 0
vt 59.7962 51.1811
vt -47.2904 51.1811
f 141/421/35 140/422/35 33/423/35 27/424/35 

vt 149.213 0
vt 155.512 0
vt 155.512 51.1811
vt 149.213 51.1811
f 140/425/4 139/426/4 119/427/4 33/428/4 

v 94935.5 2500 -21226.6
vt -165.354 44.5507
vn -4.52057e-18 0.5547 -0.83205
vt -165.354 -12.2296
vt -106.299 -12.2296
v 93435.5 2500 -21226.6
vt -106.299 44.5507
f 156/429/36 51/430/36 27/431/36 157/432/36 

vt 67.3228 98.1829
v 94935.5 2493.85 -21117.3
vt 63.0224 98.1829
vt 53.5433 98.1829
vt 67.3228 98.4252
f 128/433/4 158/434/4 130/435/4 127/417/4 154/416/4 51/415/4 156/436/4 

vt 67.3228 149.606
vt 53.5433 149.606
f 130/435/4 158/434/4 128/433/4 156/436/4 133/437/4 132/438/4 

vt 165.354 53.5433
vn 0 1 1.49918e-15
vt 165.354 63.0224
v 94735.5 2493.85 -21117.3
vt 157.48 63.0224
vt 157.48 53.5433
f 130/439/37 158/440/37 159/441/37 131/442/37 

vt -63.0224 98.1829
f 155/410/26 131/233/26 159/443/26 153/411/26 

vt 165.354 -3.76459
vn 0 -0.550222 0.835018
vt 165.354 52.5238
vt 157.48 52.5238
vt 157.48 -3.76459
f 127/444/38 130/445/38 131/446/38 155/447/38 

vt 157.48 149.606
vt 157.48 98.1829
vt 165.354 98.1829
vt 165.354 149.606
f 134/448/32 131/449/32 130/450/32 132/451/32 

v 94735.5 3800 -21126.6
vt -63.3858 149.606
v 94735.5 2493.85 -21126.6
vt -63.3858 98.1829
f 160/452/26 161/453/26 159/443/26 131/233/26 134/232/26 

v 93779.1 3800 -21126.6
vt 119.827 149.606
v 93779.1 2493.85 -21126.6
vt 119.827 98.1829
f 162/454/32 163/455/32 161/449/32 160/448/32 

v 91059.1 3800 -19766.6
vt 15.7971 149.606
vn 0.447214 2.16668e-16 0.894427
v 91059.1 2493.85 -19766.6
vt 15.7971 98.1829
v 93760.6 2493.85 -21117.3
vt 134.711 98.1829
vt 135.524 98.1829
vt 135.524 149.606
f 164/456/39 165/457/39 166/458/39 163/459/39 162/460/39 

v 90935.5 3800 -19766.6
vn 4.67231e-13 -1.15266e-42 1
v 90935.5 2493.85 -19766.6
vt 12.7404 98.1829
vt 12.7404 149.606
f 167/356/40 168/357/40 165/461/40 164/462/40 

v 90935.5 3800 -19516.6
vt -1.36424e-12 149.606
vn 1 2.84954e-43 -4.62023e-13
v 90935.5 2493.85 -19516.6
vt -1.36424e-12 98.1829
vt 9.84252 98.1829
vt 9.84252 149.606
f 169/463/41 170/464/41 168/465/41 167/466/41 

v 90735.5 3800 -19516.6
vt 9.09495e-12 149.606
vn 2.88765e-13 0 1
v 90735.5 2493.85 -19516.6
vt 9.09495e-12 98.1829
f 171/467/42 172/468/42 170/357/42 169/356/42 

v 90735.5 3800 -19866.6
vn -1 8.14155e-43 6.60033e-13
v 90735.5 2493.85 -19866.6
vt 6.00297e-24 98.1829
vt 6.00297e-24 149.606
f 173/350/43 174/341/43 172/469/43 171/470/43 

vn -2.88765e-13 -7.12385e-43 -1
v 91035.5 2493.85 -19866.6
vt -3.97904e-12 98.1829
vt -3.97904e-12 149.606
f 66/186/44 175/189/44 174/471/44 173/472/44 

vt -122.367 149.606
vn -0.447214 1.10328e-30 -0.894427
v 93435.5 2493.85 -21066.6
vt -122.367 98.1829
vt -16.7265 98.1829
vt -16.7265 149.606
f 112/473/45 176/474/45 175/475/45 66/476/45 

vn -1 1.57548e-15 -1.94618e-13
v 93435.5 2493.85 -21117.3
vt -61.0236 98.1829
vt -61.0236 149.606
vt -67.3228 149.606
vt -67.3228 98.4252
vt -98.8189 51.1811
v 93435.5 1247.69 -21948.1
vt -95.7299 49.1217
f 152/411/46 177/443/46 176/477/46 112/478/46 84/479/46 157/480/46 27/481/46 178/482/46 

vt 106.299 46.7346
vn 6.69556e-18 -0.5547 0.83205
vt 106.299 -9.75457
vt 157.48 -9.75457
vt 157.48 46.7346
vt 119.1 46.7346
f 177/483/47 152/484/47 153/485/47 159/486/47 166/487/47 

vt -106.299 61.0236
vn 1.05557e-16 -1 2.42999e-17
vt -106.299 63.0224
vt -119.1 63.0224
vt -12.7404 9.84252
vt -7.87402 9.84252
vt -7.87402 2.27135e-12
vt -9.10531e-12 -2.38583e-15
vt -1.03639e-14 13.7795
vt -11.811 13.7795
f 176/488/48 177/489/48 166/490/48 165/491/48 168/492/48 170/493/48 172/494/48 174/495/48 175/496/48 

vt 7.87402 2.27374e-12
vt 7.87402 9.84252
vt 12.7404 9.84252
vt 119.827 63.3858
vt 157.48 63.3858
vt 165.354 67.3228
vt 106.299 67.3228
vt 106.299 61.0236
vt 11.811 13.7795
vt 9.09495e-12 0
f 169/497/3 167/498/3 164/499/3 162/500/3 160/501/3 134/442/3 132/439/3 133/502/3 84/503/3 112/504/3 66/505/3 173/348/3 171/506/3 

vt -165.354 98.4252
vt -106.299 98.4252
vt -165.354 149.606
f 156/507/6 157/508/6 84/245/6 133/509/6 

vt 165.354 84.5144
vt 157.48 84.5144
f 127/510/3 154/387/3 153/386/3 155/511/3 

