# Alias OBJ Model File
# Exported from SketchUp, (c) 2000-2012 Trimble Navigation Limited
# File units = millimeters

mtllib Mong 2 coc.mtl

g Mesh1 Group1 Model

usemtl FrontColor
v 240831 0 -41932
vt 0 66.9291
vn 0 -1 -0
v 240931 0 -41832
vt -3.93701 62.9921
v 240831 0 -40232
vt 0 0
f 1/1/1 2/2/1 3/3/1

v 241631 0 -41932
vt -31.4961 66.9291
f 2/2/1 1/1/1 4/4/1

vt -31.4961 0
vn 0 0 -1
v 240831 100 -41932
vt 0 3.93701
v 241631 100 -41932
vt -31.4961 3.93701
f 4/5/2 1/3/2 5/6/2 6/7/2 

vt -66.9291 0
vn -1 0 -0
v 240831 100 -40232
vt -66.9291 3.93701
f 1/8/3 3/3/3 7/6/3 5/9/3 

vn 0 0 1
v 241631 0 -40232
vt 31.4961 0
v 241631 100 -40232
vt 31.4961 3.93701
f 3/3/4 8/10/4 9/11/4 7/6/4 

v 240931 0 -40332
vt -3.93701 3.93701
f 3/3/1 10/12/1 8/5/1

f 10/12/1 3/3/1 2/2/1

v 241531 0 -40332
vt -27.5591 3.93701
f 8/5/1 10/12/1 11/13/1

f 8/5/1 11/13/1 4/4/1

v 241531 0 -41832
vt -27.5591 62.9921
f 12/14/1 4/4/1 11/13/1

f 2/2/1 4/4/1 12/14/1

vn 1 0 -0
vt 66.9291 0
vt 66.9291 3.93701
f 8/3/5 4/15/5 6/16/5 9/6/5 

vt 31.4961 66.9291
vn 0 1 -0
v 241531 100 -41832
vt 27.5591 62.9921
f 6/17/6 13/18/6 9/10/6

v 240931 100 -41832
vt 3.93701 62.9921
f 6/17/6 14/19/6 13/18/6

f 5/1/6 14/19/6 6/17/6

v 240931 100 -40332
vt 3.93701 3.93701
f 14/19/6 5/1/6 15/20/6

f 7/3/6 15/20/6 5/1/6

f 15/20/6 7/3/6 9/10/6

v 241531 100 -40332
vt 27.5591 3.93701
f 15/20/6 9/10/6 16/21/6

f 16/21/6 9/10/6 13/18/6

vt 62.9921 3.93701
v 241531 650 -41832
vt 62.9921 25.5906
v 241531 650 -40332
vt 3.93701 25.5906
f 16/20/5 13/22/5 17/23/5 18/24/5 

v 240931 650 -41832
vt -3.93701 25.5906
vt -27.5591 25.5906
f 13/13/2 14/12/2 19/25/2 17/26/2 

vt -62.9921 3.93701
v 240931 650 -40332
vt -62.9921 25.5906
f 14/27/3 15/12/3 20/25/3 19/28/3 

vt 27.5591 25.5906
f 15/20/4 16/21/4 18/29/4 20/24/4 

f 17/14/1 18/13/1 20/12/1 19/2/1 

g Mesh2 Group2 Model

v 241381 -19961.5 -41670.1
vt 0 16.5354
v 241081 -19961.5 -41670.1
vt 11.811 16.5354
v 241081 100 -41670.1
vt 11.811 806.357
v 241381 100 -41670.1
vt 0 806.357
f 21/30/2 22/31/2 23/32/2 24/33/2 

vt -47.2441 -8.26111e-15
vn 4.996e-16 -1 -0
v 241381 -19961.5 -41370.1
vt -35.4331 -8.26111e-15
v 241231 -19961.5 -41520.1
vt -41.3386 5.90551
vt -47.2441 11.811
f 21/34/7 25/35/7 26/36/7 22/37/7 

vt 35.4331 16.5354
vt 47.2441 16.5354
vt 47.2441 806.357
v 241381 100 -41370.1
vt 35.4331 806.357
f 25/38/5 21/39/5 24/40/5 27/41/5 

vt 35.4331 15.5721
vn 0.941742 -0.336336 -0
v 241231 -20381.5 -41520.1
vt 41.3386 -1.98624
vt 47.2441 15.5721
f 25/42/8 28/43/8 21/44/8

vt -33.4066 1.11806e-13
vn -0.707107 -7.50671e-17 0.707107
vt -25.055 16.5354
vt -33.4066 16.5354
f 28/45/9 25/46/9 26/47/9

vt -5.90551 -13.9037
vn 1.7146e-16 -0.336336 0.941742
vt 6.45119e-15 3.65468
v 241081 -19961.5 -41370.1
vt -11.811 3.65468
f 28/48/10 25/49/10 29/50/10

vt -11.811 16.5354
v 241081 100 -41370.1
vt -11.811 806.357
f 29/51/4 25/30/4 27/33/4 30/52/4 

vt -35.4331 11.811
f 29/53/7 22/37/7 26/36/7 25/35/7 

vt -47.2441 16.5354
vt -35.4331 16.5354
vt -35.4331 806.357
vt -47.2441 806.357
f 22/54/3 29/55/3 30/56/3 23/57/3 

vt -41.3386 1.98624
vn -0.941742 -0.336336 -0
vt -35.4331 19.5446
vt -47.2441 19.5446
f 28/58/11 29/59/11 22/60/11

vt 5.90551 13.9037
vn 1.95444e-16 -0.336336 -0.941742
vt 11.811 31.462
vt 9.80477e-15 31.462
f 28/61/12 22/62/12 21/63/12

vt -41.7583 16.5354
vn -0.707107 8.06629e-19 0.707107
vt -33.4066 1.13707e-13
f 22/64/13 28/65/13 26/47/13

vt 35.4331 11.811
vt 35.4331 0
vt 47.2441 0
vt 47.2441 11.811
f 30/66/6 27/67/6 24/68/6 23/69/6 

g Mesh3 Group2 Model

v 241081 -19961.5 -40471.2
vt -0.0425519 16.5354
v 241081 -19961.5 -40470.1
v 241081 100 -40470.1
v 241081 100 -40770.1
v 241081 -19961.5 -40770.1
f 31/70/3 32/30/3 33/33/3 34/52/3 35/51/3 

vt 2.04212e-13 19.5446
vn 0.941742 0.336336 -1.62827e-14
v 241231 -20381.5 -40620.7
vt 5.92679 1.98624
vt 11.811 19.5446
vt 0.0425519 19.5446
f 32/71/14 36/72/14 35/73/14 31/74/14 

vt 5.90551 -1.99976
vn -1.6031e-16 0.33741 -0.941358
vt 11.811 15.5658
v 241381 -19961.5 -40470.1
vt 0 15.5658
f 36/75/15 32/76/15 37/77/15

v 241381 100 -40470.1
f 32/51/4 37/30/4 38/33/4 33/52/4 

vt -2.86704e-16 11.811
vn -1.91541e-15 -1 -1.73388e-17
vt -0.0425519 11.811
v 241231 -19961.5 -40620.7
vt -5.92679 5.90551
v 241381 -19961.5 -40770.1
vt -11.811 3.16721e-14
vt -2.86704e-16 3.16721e-14
f 32/78/16 31/79/16 39/80/16 40/81/16 37/82/16 

vt -11.811 11.811
vn 4.996e-16 -1 4.83014e-15
vt -11.811 -8.26111e-15
f 35/83/17 40/84/17 39/80/17 31/79/17 

v 241381 100 -40770.1
f 40/30/2 35/31/2 34/32/2 41/33/2 

vt 5.90551 1.98702
vn 1.82619e-16 -0.335261 -0.942125
vt 11.811 19.5382
vt 2.28942e-15 19.5382
f 36/85/18 35/86/18 40/87/18

vt -5.42985e-05 -2.29415e-16
vn 0.70583 -2.742e-17 0.708382
vt 8.33657 16.5354
vt -5.42985e-05 16.5354
f 36/88/19 40/89/19 39/90/19

vt -5.92679 -1.98624
vn -0.941742 0.336336 1.59207e-17
vt 0 15.5721
vt -11.811 15.5721
f 36/91/20 37/92/20 40/93/20

f 37/30/5 40/31/5 41/32/5 38/33/5 

vt 11.811 11.811
vt 0 11.811
vt 11.811 0
f 34/94/6 33/95/6 38/3/6 41/96/6 

