# Alias OBJ Model File
# Exported from SketchUp, (c) 2000-2012 Trimble Navigation Limited
# File units = millimeters

mtllib Phan chia o san.mtl

g Mesh1 Group1 Model

usemtl FrontColor
v 208834 0 -13726.8
vt -566.929 0
vn 0 -1 -0
v 208334 0 -13726.8
vt -547.244 0
v 208334 0 -17126.8
vt -547.244 133.858
v 208834 0 -17126.8
vt -566.929 133.858
v 208834 0 -14226.8
vt -566.929 19.685
f 1/1/1 2/2/1 3/3/1 4/4/1 5/5/1 

vt 547.244 0
vn 0 0 1
vt 566.929 0
v 208834 100 -13726.8
vt 566.929 3.93701
v 208334 100 -13726.8
vt 547.244 3.93701
f 2/6/2 1/7/2 6/8/2 7/9/2 

vt 0 0
vn 1 0 -0
vt 19.685 0
v 208834 100 -14226.8
vt 19.685 3.93701
vt 0 3.93701
f 1/10/3 5/11/3 8/12/3 6/13/3 

v 213034 0 -13726.8
vt -732.283 0
v 213034 0 -14226.8
vt -732.283 19.685
f 9/14/1 1/1/1 5/5/1 10/15/1 

vt 732.283 0
v 213034 100 -13726.8
vt 732.283 3.93701
f 1/7/2 9/16/2 11/17/2 6/8/2 

v 213534 0 -13726.8
vt 751.969 0
v 213534 100 -13726.8
vt 751.969 3.93701
f 9/16/2 12/18/2 13/19/2 11/17/2 

v 213534 0 -17126.8
vt -751.969 133.858
vt -751.969 0
v 213034 0 -17126.8
vt -732.283 133.858
f 14/20/1 12/21/1 9/14/1 10/15/1 15/22/1 

vt 133.858 0
v 213534 100 -17126.8
vt 133.858 3.93701
f 12/10/3 14/23/3 16/24/3 13/13/3 

vn 0 0 -1
v 213034 100 -17126.8
vt -732.283 3.93701
vt -751.969 3.93701
f 14/21/4 15/14/4 17/25/4 16/26/4 

vt -133.858 0
vn -1 0 -0
vt -19.685 0
v 213034 100 -14226.8
vt -19.685 3.93701
vt -133.858 3.93701
f 15/27/5 10/28/5 18/29/5 17/30/5 

f 10/28/5 9/10/5 11/13/5 18/29/5 

vn 0 1 -0
vt 751.969 133.858
vt 732.283 133.858
vt 732.283 19.685
f 13/18/6 16/31/6 17/32/6 18/33/6 11/16/6 

vt 566.929 19.685
f 6/7/6 11/16/6 18/33/6 8/34/6 

vt -566.929 3.93701
f 10/14/4 5/1/4 8/35/4 18/25/4 

v 208834 100 -17126.8
f 5/11/3 4/23/3 19/24/3 8/12/3 

v 208334 100 -17126.8
vt -547.244 3.93701
f 4/1/4 3/2/4 20/36/4 19/35/4 

f 3/27/5 2/10/5 7/13/5 20/30/5 

vt 566.929 133.858
vt 547.244 133.858
f 7/6/6 6/7/6 8/34/6 19/37/6 20/38/6 

g Mesh2 Group1 Model

v 198734 100 -25326.8
vt 169.291 456.693
v 198734 100 -29126.8
vt 169.291 606.299
v 196734 100 -29126.8
vt 90.5512 606.299
v 196734 100 -25326.8
vt 90.5512 456.693
f 21/39/6 22/40/6 23/41/6 24/42/6 

v 198734 0 -25326.8
vt 456.693 0
v 198734 0 -29126.8
vt 606.299 0
vt 606.299 3.93701
vt 456.693 3.93701
f 25/43/3 26/44/3 22/45/3 21/46/3 

vt -169.291 606.299
vt -169.291 456.693
v 196734 0 -25326.8
vt -90.5512 456.693
v 196734 0 -29126.8
vt -90.5512 606.299
f 26/47/1 25/48/1 27/49/1 28/50/1 

vt 90.5512 0
vt 169.291 0
vt 169.291 3.93701
vt 90.5512 3.93701
f 27/51/2 25/52/2 21/53/2 24/54/2 

vt -606.299 0
vn -1 0 3.03963e-14
vt -456.693 0
vt -456.693 3.93701
vt -606.299 3.93701
f 28/55/7 27/56/7 24/57/7 23/58/7 

vt -169.291 0
vt -90.5512 0
vt -90.5512 3.93701
vt -169.291 3.93701
f 26/59/4 28/60/4 23/61/4 22/62/4 

g Mesh3 Group1 Model

v 196534 100 -25326.8
vt 82.6772 456.693
v 196534 100 -29126.8
vt 82.6772 606.299
v 194534 100 -29126.8
vt 3.93701 606.299
v 194534 100 -25326.8
vt 3.93701 456.693
f 29/63/6 30/64/6 31/65/6 32/66/6 

v 196534 0 -25326.8
vn 1 0 -3.03963e-14
v 196534 0 -29126.8
f 33/43/8 34/44/8 30/45/8 29/46/8 

vt -82.6772 606.299
vt -82.6772 456.693
v 194534 0 -25326.8
vt -3.93701 456.693
v 194534 0 -29126.8
vt -3.93701 606.299
f 34/67/1 33/68/1 35/69/1 36/70/1 

vt 3.93701 0
vt 82.6772 0
vt 82.6772 3.93701
vt 3.93701 3.93701
f 35/71/2 33/72/2 29/73/2 32/74/2 

f 36/55/5 35/56/5 32/57/5 31/58/5 

vt -82.6772 0
vn -1.27056e-13 0 -1
vt -3.93701 0
vt -3.93701 3.93701
vt -82.6772 3.93701
f 34/75/9 36/76/9 31/77/9 30/78/9 

g Mesh4 Group1 Model

v 200334 100 -25126.8
vt 232.283 448.819
v 194534 100 -25126.8
vt 3.93701 448.819
v 194534 100 -23326.8
vt 3.93701 377.953
v 200334 100 -23326.8
vt 232.283 377.953
f 37/79/6 38/80/6 39/81/6 40/82/6 

g Mesh5 Group1 Model

v 203534 100 -25126.8
vt 358.268 448.819
v 203534 100 -23326.8
vt 358.268 377.953
v 208834 100 -23326.8
vt 566.929 377.953
v 208834 100 -25126.8
vt 566.929 448.819
f 41/83/6 42/84/6 43/85/6 44/86/6 

g Mesh6 Group1 Model

v 213034 100 -23326.8
vt 732.283 377.953
v 218334 100 -23326.8
vt 940.945 377.953
v 218334 100 -25126.8
vt 940.945 448.819
v 213034 100 -25126.8
vt 732.283 448.819
f 45/87/6 46/88/6 47/89/6 48/90/6 

g Mesh7 Group1 Model

v 227334 100 -25126.8
vt 1295.28 448.819
v 221534 100 -25126.8
vt 1066.93 448.819
v 221534 100 -23326.8
vt 1066.93 377.953
v 227334 100 -23326.8
vt 1295.28 377.953
f 49/91/6 50/92/6 51/93/6 52/94/6 

g Mesh8 Group1 Model

v 198934 0 -25326.8
vt -177.165 456.693
v 198934 0 -29126.8
vt -177.165 606.299
v 200334 0 -29126.8
vt -232.283 606.299
v 200334 0 -25326.8
vt -232.283 456.693
f 53/95/1 54/96/1 55/97/1 56/98/1 

v 198934 100 -25326.8
v 198934 100 -29126.8
f 54/55/5 53/56/5 57/57/5 58/58/5 

vt 177.165 0
vt 232.283 0
v 200334 100 -25326.8
vt 232.283 3.93701
vt 177.165 3.93701
f 53/99/2 56/100/2 59/101/2 57/102/2 

v 200334 100 -29126.8
f 56/43/3 55/44/3 60/45/3 59/46/3 

vt -232.283 0
vt -177.165 0
vt -177.165 3.93701
vt -232.283 3.93701
f 55/103/4 54/104/4 58/105/4 60/106/4 

vt 177.165 606.299
vt 177.165 456.693
vt 232.283 456.693
vt 232.283 606.299
f 58/107/6 57/108/6 59/109/6 60/110/6 

g Mesh9 Group2 Model

v 208834 0 -19126.8
vt -562.992 185.039
v 208834 0 -17326.8
vt -562.992 114.173
v 206334 0 -17326.8
vt -464.567 114.173
v 206334 0 -19126.8
vt -464.567 185.039
f 61/111/1 62/112/1 63/113/1 64/114/1 

vt 114.173 5.90551
vt 185.039 5.90551
v 208834 100 -19126.8
vt 185.039 9.84252
v 208834 100 -17326.8
vt 114.173 9.84252
f 62/115/3 61/116/3 65/117/3 66/118/3 

vt -562.992 5.90551
vt -464.567 5.90551
v 206334 100 -19126.8
vt -464.567 9.84252
vt -562.992 9.84252
f 61/119/4 64/120/4 67/121/4 65/122/4 

vt -185.039 5.90551
vt -114.173 5.90551
v 206334 100 -17326.8
vt -114.173 9.84252
vt -185.039 9.84252
f 64/123/5 63/124/5 68/125/5 67/126/5 

vt 464.567 5.90551
vt 562.992 5.90551
vt 562.992 9.84252
vt 464.567 9.84252
f 63/127/2 62/128/2 66/129/2 68/130/2 

vt 562.992 114.173
vt 562.992 185.039
vt 464.567 185.039
vt 464.567 114.173
f 66/131/6 65/132/6 67/133/6 68/134/6 

g Mesh10 Group2 Model

v 221534 0 -25126.8
vt -1062.99 421.26
v 227334 0 -25126.8
vt -1291.34 421.26
v 227334 0 -23326.8
vt -1291.34 350.394
v 221534 0 -23326.8
vt -1062.99 350.394
f 69/135/1 70/136/1 71/137/1 72/138/1 

vt -1291.34 5.90551
vt -1062.99 5.90551
vt -1062.99 9.84252
vt -1291.34 9.84252
f 70/139/4 69/140/4 50/141/4 49/142/4 

vt -421.26 5.90551
vt -350.394 5.90551
vt -350.394 9.84252
vt -421.26 9.84252
f 69/143/5 72/144/5 51/145/5 50/146/5 

vt 1062.99 5.90551
vt 1291.34 5.90551
vt 1291.34 9.84252
vt 1062.99 9.84252
f 72/147/2 71/148/2 52/149/2 51/150/2 

vt 350.394 5.90551
vt 421.26 5.90551
vt 421.26 9.84252
vt 350.394 9.84252
f 71/151/3 70/152/3 49/153/3 52/154/3 

g Mesh11 Group2 Model

v 227334 0 -19126.8
vt 1291.34 185.039
v 221534 0 -19126.8
vt 1062.99 185.039
v 221534 0 -15326.8
vt 1062.99 35.4331
v 227334 0 -15326.8
vt 1291.34 35.4331
f 73/155/6 74/156/6 75/157/6 76/158/6 

v 227334 -150 -19126.8
vt -1291.34 0
v 221534 -150 -19126.8
vt -1062.99 0
f 74/140/4 73/139/4 77/159/4 78/160/4 

vt 35.4331 5.90551
v 227334 -150 -15326.8
vt 35.4331 0
vt 185.039 0
f 73/116/3 76/161/3 79/162/3 77/163/3 

v 221534 -150 -15326.8
vt 1062.99 0
vt 1291.34 0
f 76/148/2 75/147/2 80/164/2 79/165/2 

vt -35.4331 5.90551
vt -185.039 0
vt -35.4331 0
f 75/166/5 74/123/5 78/167/5 80/168/5 

vt -1062.99 185.039
vt -1291.34 185.039
vt -1291.34 35.4331
vt -1062.99 35.4331
f 78/169/1 77/170/1 79/171/1 80/172/1 

g Mesh12 Group2 Model

v 213034 0 -17326.8
vt -728.346 114.173
v 213034 0 -19126.8
vt -728.346 185.039
v 215534 0 -19126.8
vt -826.772 185.039
v 215534 0 -17326.8
vt -826.772 114.173
f 81/173/1 82/174/1 83/175/1 84/176/1 

v 213034 100 -17326.8
v 213034 100 -19126.8
f 82/123/5 81/124/5 85/125/5 86/126/5 

vt 728.346 5.90551
vt 826.772 5.90551
v 215534 100 -17326.8
vt 826.772 9.84252
vt 728.346 9.84252
f 81/177/2 84/178/2 87/179/2 85/180/2 

v 215534 100 -19126.8
f 84/115/3 83/116/3 88/117/3 87/118/3 

vt -826.772 5.90551
vt -728.346 5.90551
vt -728.346 9.84252
vt -826.772 9.84252
f 83/181/4 82/182/4 86/183/4 88/184/4 

vt 728.346 185.039
vt 728.346 114.173
vt 826.772 114.173
vt 826.772 185.039
f 86/185/6 85/186/6 87/187/6 88/188/6 

g Mesh13 Group2 Model

v 221334 0 -25126.8
vt -1055.12 421.26
v 221334 0 -23326.8
vt -1055.12 350.394
v 218534 0 -23326.8
vt -944.882 350.394
v 218534 0 -25126.8
vt -944.882 421.26
f 89/189/1 90/190/1 91/191/1 92/192/1 

v 221334 100 -25126.8
v 221334 100 -23326.8
f 90/151/3 89/152/3 93/153/3 94/154/3 

vt -1055.12 5.90551
vt -944.882 5.90551
v 218534 100 -25126.8
vt -944.882 9.84252
vt -1055.12 9.84252
f 89/193/4 92/194/4 95/195/4 93/196/4 

v 218534 100 -23326.8
f 92/143/5 91/144/5 96/145/5 95/146/5 

vt 944.882 5.90551
vt 1055.12 5.90551
vt 1055.12 9.84252
vt 944.882 9.84252
f 91/197/2 90/198/2 94/199/2 96/200/2 

vt 1055.12 350.394
vt 1055.12 421.26
vt 944.882 421.26
vt 944.882 350.394
f 94/201/6 93/202/6 95/203/6 96/204/6 

g Mesh14 Group2 Model

v 194534 0 -15326.8
vt -9.09495e-12 35.4331
v 194534 0 -19126.8
vt -9.09495e-12 185.039
v 200334 0 -19126.8
vt -228.346 185.039
v 200334 0 -15326.8
vt -228.346 35.4331
f 97/205/1 98/206/1 99/207/1 100/208/1 

v 194534 100 -15326.8
vt -35.4331 9.84252
v 194534 100 -19126.8
f 98/123/5 97/166/5 101/209/5 102/126/5 

vt 9.09495e-12 5.90551
vt 228.346 5.90551
v 200334 100 -15326.8
vt 228.346 9.84252
vt 9.09495e-12 9.84252
f 97/210/2 100/211/2 103/212/2 101/213/2 

v 200334 100 -19126.8
vt 35.4331 9.84252
f 100/161/3 99/116/3 104/117/3 103/214/3 

vt -228.346 5.90551
vt -9.09495e-12 5.90551
vt -9.09495e-12 9.84252
vt -228.346 9.84252
f 99/215/4 98/216/4 102/217/4 104/218/4 

vt 9.09495e-12 185.039
vt 9.09495e-12 35.4331
vt 228.346 35.4331
vt 228.346 185.039
f 102/219/6 101/220/6 103/221/6 104/222/6 

g Mesh15 Group2 Model

v 218534 0 -19326.8
vt -944.882 192.913
v 218534 0 -23126.8
vt -944.882 342.52
v 221334 0 -23126.8
vt -1055.12 342.52
v 221334 0 -19326.8
vt -1055.12 192.913
f 105/223/1 106/224/1 107/225/1 108/226/1 

vt -342.52 5.90551
vt -192.913 5.90551
v 218534 100 -19326.8
vt -192.913 9.84252
v 218534 100 -23126.8
vt -342.52 9.84252
f 106/227/5 105/228/5 109/229/5 110/230/5 

v 221334 100 -19326.8
f 105/197/2 108/198/2 111/199/2 109/200/2 

vt 192.913 5.90551
vt 342.52 5.90551
v 221334 100 -23126.8
vt 342.52 9.84252
vt 192.913 9.84252
f 108/231/3 107/232/3 112/233/3 111/234/3 

f 107/193/4 106/194/4 110/195/4 112/196/4 

vt 944.882 342.52
vt 944.882 192.913
vt 1055.12 192.913
vt 1055.12 342.52
f 110/235/6 109/236/6 111/237/6 112/238/6 

g Mesh16 Group2 Model

v 218534 0 -25326.8
vt -944.882 429.134
v 218534 0 -29126.8
vt -944.882 578.74
v 221334 0 -29126.8
vt -1055.12 578.74
v 221334 0 -25326.8
vt -1055.12 429.134
f 113/239/1 114/240/1 115/241/1 116/242/1 

vt -578.74 5.90551
vt -429.134 5.90551
v 218534 100 -25326.8
vt -429.134 9.84252
v 218534 100 -29126.8
vt -578.74 9.84252
f 114/243/5 113/244/5 117/245/5 118/246/5 

v 221334 100 -25326.8
f 113/197/2 116/198/2 119/199/2 117/200/2 

vt 429.134 5.90551
vt 578.74 5.90551
v 221334 100 -29126.8
vt 578.74 9.84252
vt 429.134 9.84252
f 116/247/3 115/248/3 120/249/3 119/250/3 

f 115/193/4 114/194/4 118/195/4 120/196/4 

vt 944.882 578.74
vt 944.882 429.134
vt 1055.12 429.134
vt 1055.12 578.74
f 118/251/6 117/252/6 119/253/6 120/254/6 

g Mesh17 Group2 Model

v 227334 0 -29126.8
vt -1291.34 578.74
v 227334 0 -25326.8
vt -1291.34 429.134
v 221534 0 -25326.8
vt -1062.99 429.134
v 221534 0 -29126.8
vt -1062.99 578.74
f 121/255/1 122/256/1 123/257/1 124/258/1 

v 227334 100 -29126.8
v 227334 100 -25326.8
f 122/247/3 121/248/3 125/249/3 126/250/3 

v 221534 100 -29126.8
f 121/139/4 124/140/4 127/141/4 125/142/4 

v 221534 100 -25326.8
f 124/243/5 123/244/5 128/245/5 127/246/5 

f 123/147/2 122/148/2 126/149/2 128/150/2 

vt 1291.34 429.134
vt 1291.34 578.74
vt 1062.99 578.74
vt 1062.99 429.134
f 126/259/6 125/260/6 127/261/6 128/262/6 

g Mesh18 Group2 Model

v 203534 0 -25326.8
vt -354.331 429.134
v 203534 0 -29126.8
vt -354.331 578.74
v 208834 0 -29126.8
vt -562.992 578.74
v 208834 0 -25326.8
vt -562.992 429.134
f 129/263/1 130/264/1 131/265/1 132/266/1 

v 203534 100 -25326.8
v 203534 100 -29126.8
f 130/243/5 129/244/5 133/245/5 134/246/5 

vt 354.331 5.90551
v 208834 100 -25326.8
vt 354.331 9.84252
f 129/267/2 132/128/2 135/129/2 133/268/2 

v 208834 100 -29126.8
f 132/247/3 131/248/3 136/249/3 135/250/3 

vt -354.331 5.90551
vt -354.331 9.84252
f 131/119/4 130/269/4 134/270/4 136/122/4 

vt 354.331 578.74
vt 354.331 429.134
vt 562.992 429.134
vt 562.992 578.74
f 134/271/6 133/272/6 135/273/6 136/274/6 

g Mesh19 Group2 Model

v 213034 0 -29126.8
vt -728.346 578.74
v 218334 0 -29126.8
vt -937.008 578.74
v 218334 0 -25326.8
vt -937.008 429.134
v 213034 0 -25326.8
vt -728.346 429.134
f 137/275/1 138/276/1 139/277/1 140/278/1 

vt -937.008 5.90551
v 213034 100 -29126.8
v 218334 100 -29126.8
vt -937.008 9.84252
f 138/279/4 137/182/4 141/183/4 142/280/4 

v 213034 100 -25326.8
f 137/243/5 140/244/5 143/245/5 141/246/5 

vt 937.008 5.90551
v 218334 100 -25326.8
vt 937.008 9.84252
f 140/177/2 139/281/2 144/282/2 143/180/2 

f 139/247/3 138/248/3 142/249/3 144/250/3 

vt 937.008 578.74
vt 728.346 578.74
vt 728.346 429.134
vt 937.008 429.134
f 142/283/6 141/284/6 143/285/6 144/286/6 

g Mesh20 Group2 Model

v 200534 0 -25326.8
vt -236.22 429.134
v 200534 0 -29126.8
vt -236.22 578.74
v 203334 0 -29126.8
vt -346.457 578.74
v 203334 0 -25326.8
vt -346.457 429.134
f 145/287/1 146/288/1 147/289/1 148/290/1 

v 200534 100 -25326.8
v 200534 100 -29126.8
f 146/243/5 145/244/5 149/245/5 150/246/5 

vt 236.22 5.90551
vt 346.457 5.90551
v 203334 100 -25326.8
vt 346.457 9.84252
vt 236.22 9.84252
f 145/291/2 148/292/2 151/293/2 149/294/2 

v 203334 100 -29126.8
f 148/247/3 147/248/3 152/249/3 151/250/3 

vt -346.457 5.90551
vt -236.22 5.90551
vt -236.22 9.84252
vt -346.457 9.84252
f 147/295/4 146/296/4 150/297/4 152/298/4 

vt 236.22 578.74
vt 236.22 429.134
vt 346.457 429.134
vt 346.457 578.74
f 150/299/6 149/300/6 151/301/6 152/302/6 

g Mesh21 Group2 Model

v 194534 0 -19326.8
vt -9.09495e-12 192.913
v 194534 0 -23126.8
vt -9.09495e-12 342.52
v 200334 0 -23126.8
vt -228.346 342.52
v 200334 0 -19326.8
vt -228.346 192.913
f 153/303/1 154/304/1 155/305/1 156/306/1 

v 194534 100 -19326.8
v 194534 100 -23126.8
f 154/227/5 153/228/5 157/229/5 158/230/5 

v 200334 100 -19326.8
f 153/210/2 156/211/2 159/212/2 157/213/2 

v 200334 100 -23126.8
f 156/231/3 155/232/3 160/233/3 159/234/3 

f 155/215/4 154/216/4 158/217/4 160/218/4 

vt 9.09495e-12 342.52
vt 9.09495e-12 192.913
vt 228.346 192.913
vt 228.346 342.52
f 158/307/6 157/308/6 159/309/6 160/310/6 

g Mesh22 Group2 Model

v 212834 0 -25126.8
vt -720.472 421.26
v 212834 0 -23326.8
vt -720.472 350.394
v 209034 0 -23326.8
vt -570.866 350.394
v 209034 0 -25126.8
vt -570.866 421.26
f 161/311/1 162/312/1 163/313/1 164/314/1 

v 212834 100 -25126.8
v 212834 100 -23326.8
f 162/151/3 161/152/3 165/153/3 166/154/3 

vt -720.472 5.90551
vt -570.866 5.90551
v 209034 100 -25126.8
vt -570.866 9.84252
vt -720.472 9.84252
f 161/315/4 164/316/4 167/317/4 165/318/4 

v 209034 100 -23326.8
f 164/143/5 163/144/5 168/145/5 167/146/5 

vt 570.866 5.90551
vt 720.472 5.90551
vt 720.472 9.84252
vt 570.866 9.84252
f 163/319/2 162/320/2 166/321/2 168/322/2 

vt 720.472 350.394
vt 720.472 421.26
vt 570.866 421.26
vt 570.866 350.394
f 166/323/6 165/324/6 167/325/6 168/326/6 

g Mesh23 Group2 Model

v 227334 0 -23126.8
vt -1291.34 342.52
v 227334 0 -19326.8
vt -1291.34 192.913
v 221534 0 -19326.8
vt -1062.99 192.913
v 221534 0 -23126.8
vt -1062.99 342.52
f 169/327/1 170/328/1 171/329/1 172/330/1 

v 227334 100 -23126.8
v 227334 100 -19326.8
f 170/231/3 169/232/3 173/233/3 174/234/3 

v 221534 100 -23126.8
f 169/139/4 172/140/4 175/141/4 173/142/4 

v 221534 100 -19326.8
f 172/227/5 171/228/5 176/229/5 175/230/5 

f 171/147/2 170/148/2 174/149/2 176/150/2 

vt 1291.34 192.913
vt 1291.34 342.52
vt 1062.99 342.52
vt 1062.99 192.913
f 174/331/6 173/332/6 175/333/6 176/334/6 

g Mesh24 Group2 Model

v 194534 0 -25126.8
vt 0 421.26
v 200334 0 -25126.8
vt -228.346 421.26
v 200334 0 -23326.8
vt -228.346 350.394
v 194534 0 -23326.8
vt 0 350.394
f 177/335/1 178/336/1 179/337/1 180/338/1 

vt 0 5.90551
vt 0 9.84252
f 178/215/4 177/339/4 38/340/4 37/218/4 

f 177/143/5 180/144/5 39/145/5 38/146/5 

f 180/339/2 179/211/2 40/212/2 39/340/2 

f 179/151/3 178/152/3 37/153/3 40/154/3 

g Mesh25 Group2 Model

v 200534 0 -19326.8
vt -236.22 192.913
v 200534 0 -23126.8
vt -236.22 342.52
v 203334 0 -23126.8
vt -346.457 342.52
v 203334 0 -19326.8
vt -346.457 192.913
f 181/341/1 182/342/1 183/343/1 184/344/1 

v 200534 100 -19326.8
v 200534 100 -23126.8
f 182/227/5 181/228/5 185/229/5 186/230/5 

v 203334 100 -19326.8
f 181/291/2 184/292/2 187/293/2 185/294/2 

v 203334 100 -23126.8
f 184/231/3 183/232/3 188/233/3 187/234/3 

f 183/295/4 182/296/4 186/297/4 188/298/4 

vt 236.22 342.52
vt 236.22 192.913
vt 346.457 192.913
vt 346.457 342.52
f 186/345/6 185/346/6 187/347/6 188/348/6 

g Mesh26 Group2 Model

v 213034 0 -23126.8
vt -728.346 342.52
v 218334 0 -23126.8
vt -937.008 342.52
v 218334 0 -19326.8
vt -937.008 192.913
v 213034 0 -19326.8
vt -728.346 192.913
f 189/349/1 190/350/1 191/351/1 192/352/1 

v 213034 100 -23126.8
v 218334 100 -23126.8
f 190/279/4 189/182/4 193/183/4 194/280/4 

v 213034 100 -19326.8
f 189/227/5 192/228/5 195/229/5 193/230/5 

v 218334 100 -19326.8
f 192/177/2 191/281/2 196/282/2 195/180/2 

f 191/231/3 190/232/3 194/233/3 196/234/3 

vt 937.008 342.52
vt 728.346 342.52
vt 728.346 192.913
vt 937.008 192.913
f 194/353/6 193/354/6 195/355/6 196/356/6 

g Mesh27 Group2 Model

v 203534 0 -19326.8
vt -354.331 192.913
v 203534 0 -23126.8
vt -354.331 342.52
v 208834 0 -23126.8
vt -562.992 342.52
v 208834 0 -19326.8
vt -562.992 192.913
f 197/357/1 198/358/1 199/359/1 200/360/1 

v 203534 100 -19326.8
v 203534 100 -23126.8
f 198/227/5 197/228/5 201/229/5 202/230/5 

v 208834 100 -19326.8
f 197/267/2 200/128/2 203/129/2 201/268/2 

v 208834 100 -23126.8
f 200/231/3 199/232/3 204/233/3 203/234/3 

f 199/119/4 198/269/4 202/270/4 204/122/4 

vt 354.331 342.52
vt 354.331 192.913
vt 562.992 192.913
vt 562.992 342.52
f 202/361/6 201/362/6 203/363/6 204/364/6 

g Mesh28 Group2 Model

v 209034 0 -19326.8
vt -570.866 192.913
v 209034 0 -23126.8
vt -570.866 342.52
v 212834 0 -23126.8
vt -720.472 342.52
v 212834 0 -19326.8
vt -720.472 192.913
f 205/365/1 206/366/1 207/367/1 208/368/1 

v 209034 100 -19326.8
v 209034 100 -23126.8
f 206/227/5 205/228/5 209/229/5 210/230/5 

v 212834 100 -19326.8
f 205/319/2 208/320/2 211/321/2 209/322/2 

v 212834 100 -23126.8
f 208/231/3 207/232/3 212/233/3 211/234/3 

f 207/315/4 206/316/4 210/317/4 212/318/4 

vt 570.866 342.52
vt 570.866 192.913
vt 720.472 192.913
vt 720.472 342.52
f 210/369/6 209/370/6 211/371/6 212/372/6 

g Mesh29 Group2 Model

v 200534 0 -23326.8
vt -236.22 350.394
v 200534 0 -25126.8
vt -236.22 421.26
v 203334 0 -25126.8
vt -346.457 421.26
v 203334 0 -23326.8
vt -346.457 350.394
f 213/373/1 214/374/1 215/375/1 216/376/1 

v 200534 100 -23326.8
v 200534 100 -25126.8
f 214/143/5 213/144/5 217/145/5 218/146/5 

v 203334 100 -23326.8
f 213/291/2 216/292/2 219/293/2 217/294/2 

v 203334 100 -25126.8
f 216/151/3 215/152/3 220/153/3 219/154/3 

f 215/295/4 214/296/4 218/297/4 220/298/4 

vt 236.22 421.26
vt 236.22 350.394
vt 346.457 350.394
vt 346.457 421.26
f 218/377/6 217/378/6 219/379/6 220/380/6 

g Mesh30 Group2 Model

v 203534 0 -23326.8
vt -354.331 350.394
v 203534 0 -25126.8
vt -354.331 421.26
v 208834 0 -25126.8
vt -562.992 421.26
v 208834 0 -23326.8
vt -562.992 350.394
f 221/381/1 222/382/1 223/383/1 224/384/1 

v 203534 100 -23326.8
v 203534 100 -25126.8
f 222/143/5 221/144/5 225/145/5 226/146/5 

v 208834 100 -23326.8
f 221/267/2 224/128/2 227/129/2 225/268/2 

v 208834 100 -25126.8
f 224/151/3 223/152/3 228/153/3 227/154/3 

f 223/119/4 222/269/4 226/270/4 228/122/4 

g Mesh31 Group2 Model

v 212834 100 -19126.8
vt 720.472 185.039
v 209034 100 -19126.8
vt 570.866 185.039
v 209034 100 -17326.8
vt 570.866 114.173
v 212834 100 -17326.8
vt 720.472 114.173
f 229/385/6 230/386/6 231/387/6 232/388/6 

v 212834 0 -19126.8
v 209034 0 -19126.8
f 233/315/4 234/316/4 230/317/4 229/318/4 

vt -570.866 185.039
vt -720.472 185.039
v 212834 0 -17326.8
vt -720.472 114.173
v 209034 0 -17326.8
vt -570.866 114.173
f 234/389/1 233/390/1 235/391/1 236/392/1 

f 235/115/3 233/116/3 229/117/3 232/118/3 

f 236/319/2 235/320/2 232/321/2 231/322/2 

f 234/123/5 236/124/5 231/125/5 230/126/5 

g Mesh32 Group2 Model

v 218334 0 -25126.8
v 213034 0 -25126.8
v 213034 100 -25126.8
v 218334 100 -25126.8
f 237/279/4 238/182/4 239/183/4 240/280/4 

v 218334 0 -23326.8
vt -937.008 350.394
v 213034 0 -23326.8
vt -728.346 350.394
vt -728.346 421.26
vt -937.008 421.26
f 241/393/1 242/394/1 238/395/1 237/396/1 

v 218334 100 -23326.8
v 213034 100 -23326.8
f 242/177/2 241/281/2 243/282/2 244/180/2 

f 241/151/3 237/152/3 240/153/3 243/154/3 

f 238/143/5 242/144/5 244/145/5 239/146/5 

g Mesh33 Group2 Model

v 209034 0 -14426.8
vt -570.866 0
v 209034 0 -15076.8
vt -570.866 25.5906
v 212834 0 -15076.8
vt -720.472 25.5906
v 212834 0 -14426.8
vt -720.472 0
f 245/397/1 246/398/1 247/399/1 248/400/1 

vt 1.48313e-11 5.90551
vn -1 0 2.59803e-14
v 209034 100 -14426.8
vt 1.48313e-11 9.84252
v 209034 100 -17126.8
vt -106.299 9.84252
v 209034 0 -17126.8
vt -106.299 5.90551
vt -25.5906 5.90551
f 245/401/10 249/402/10 250/403/10 251/404/10 246/405/10 

v 212834 100 -14426.8
f 245/319/2 248/320/2 252/321/2 249/322/2 

vt 2.56058e-10 5.90551
vn 1 0 3.55403e-13
vt 25.5906 5.90551
v 212834 100 -15076.8
vt 25.5906 9.84252
vt 2.56058e-10 9.84252
f 248/406/11 247/407/11 253/408/11 252/409/11 

v 212834 0 -17126.8
vt 106.299 5.90551
v 212834 100 -17126.8
vt 106.299 9.84252
f 247/407/3 254/410/3 255/411/3 253/408/3 

vt -570.866 106.299
vt -720.472 106.299
f 251/412/1 254/413/1 247/399/1 246/398/1 

f 254/315/4 251/316/4 250/317/4 255/318/4 

vt 720.472 0
vt 720.472 25.5906
vt 720.472 106.299
vt 570.866 106.299
vt 570.866 0
f 252/414/6 253/415/6 255/416/6 250/417/6 249/418/6 

