0
SECTION
2
HEADER
9
$ACADVER
1
AC1014
9
$ACADMAINTVER
70
8
9
$DWGCODEPAGE
3
ANSI_1252
9
$INSBASE
10
0.0
20
0.0
30
0.0
9
$EXTMIN
10
1.000000E+20
20
1.000000E+20
30
1.000000E+20
9
$EXTMAX
10
-1.000000E+20
20
-1.000000E+20
30
-1.000000E+20
9
$LIMMIN
10
0.0
20
0.0
9
$LIMMAX
10
12.0
20
9.0
9
$ORTHOMODE
70
0
9
$REGENMODE
70
1
9
$FILLMODE
70
1
9
$QTEXTMODE
70
0
9
$MIRRTEXT
70
1
9
$DRAGMODE
70
2
9
$LTSCALE
40
1.0
9
$OSMODE
70
0
9
$ATTMODE
70
1
9
$TEXTSIZE
40
0.2
9
$TRACEWID
40
0.05
9
$TEXTSTYLE
7
STANDARD
9
$CLAYER
8
0
9
$CELTYPE
6
BYLAYER
9
$CECOLOR
62
256
9
$CELTSCALE
40
1.0
9
$DELOBJ
70
1
9
$DISPSILH
70
0
9
$DIMSCALE
40
1.0
9
$DIMASZ
40
0.18
9
$DIMEXO
40
0.0625
9
$DIMDLI
40
0.38
9
$DIMRND
40
0.0
9
$DIMDLE
40
0.0
9
$DIMEXE
40
0.18
9
$DIMTP
40
0.0
9
$DIMTM
40
0.0
9
$DIMTXT
40
0.18
9
$DIMCEN
40
0.09
9
$DIMTSZ
40
0.0
9
$DIMTOL
70
0
9
$DIMLIM
70
0
9
$DIMTIH
70
1
9
$DIMTOH
70
1
9
$DIMSE1
70
0
9
$DIMSE2
70
0
9
$DIMTAD
70
0
9
$DIMZIN
70
0
9
$DIMBLK
1

9
$DIMASO
70
1
9
$DIMSHO
70
1
9
$DIMPOST
1

9
$DIMAPOST
1

9
$DIMALT
70
0
9
$DIMALTD
70
2
9
$DIMALTF
40
25.4
9
$DIMLFAC
40
1.0
9
$DIMTOFL
70
0
9
$DIMTVP
40
0.0
9
$DIMTIX
70
0
9
$DIMSOXD
70
0
9
$DIMSAH
70
0
9
$DIMBLK1
1

9
$DIMBLK2
1

9
$DIMSTYLE
2
STANDARD
9
$DIMCLRD
70
0
9
$DIMCLRE
70
0
9
$DIMCLRT
70
0
9
$DIMTFAC
40
1.0
9
$DIMGAP
40
0.09
9
$DIMJUST
70
0
9
$DIMSD1
70
0
9
$DIMSD2
70
0
9
$DIMTOLJ
70
1
9
$DIMTZIN
70
0
9
$DIMALTZ
70
0
9
$DIMALTTZ
70
0
9
$DIMFIT
70
3
9
$DIMUPT
70
0
9
$DIMUNIT
70
2
9
$DIMDEC
70
4
9
$DIMTDEC
70
4
9
$DIMALTU
70
2
9
$DIMALTTD
70
2
9
$DIMTXSTY
7
STANDARD
9
$DIMAUNIT
70
0
9
$LUNITS
70
2
9
$LUPREC
70
4
9
$SKETCHINC
40
0.1
9
$FILLETRAD
40
0.5
9
$AUNITS
70
0
9
$AUPREC
70
0
9
$MENU
1
.
9
$ELEVATION
40
0.0
9
$PELEVATION
40
0.0
9
$THICKNESS
40
0.0
9
$LIMCHECK
70
0
9
$BLIPMODE
70
0
9
$CHAMFERA
40
0.5
9
$CHAMFERB
40
0.5
9
$CHAMFERC
40
1.0
9
$CHAMFERD
40
0.0
9
$SKPOLY
70
1
9
$TDCREATE
40
2451008.519973958
9
$TDUPDATE
40
2451008.523538426
9
$TDINDWG
40
0.0024055556
9
$TDUSRTIMER
40
0.0024055556
9
$USRTIMER
70
1
9
$ANGBASE
50
0.0
9
$ANGDIR
70
0
9
$PDMODE
70
0
9
$PDSIZE
40
0.0
9
$PLINEWID
40
0.0
9
$COORDS
70
1
9
$SPLFRAME
70
0
9
$SPLINETYPE
70
6
9
$SPLINESEGS
70
8
9
$ATTDIA
70
0
9
$ATTREQ
70
1
9
$HANDLING
70
1
9
$HANDSEED
5
5B
9
$SURFTAB1
70
6
9
$SURFTAB2
70
6
9
$SURFTYPE
70
6
9
$SURFU
70
6
9
$SURFV
70
6
9
$UCSNAME
2

9
$UCSORG
10
0.0
20
0.0
30
0.0
9
$UCSXDIR
10
1.0
20
0.0
30
0.0
9
$UCSYDIR
10
0.0
20
1.0
30
0.0
9
$PUCSNAME
2

9
$PUCSORG
10
0.0
20
0.0
30
0.0
9
$PUCSXDIR
10
1.0
20
0.0
30
0.0
9
$PUCSYDIR
10
0.0
20
1.0
30
0.0
9
$USERI1
70
0
9
$USERI2
70
0
9
$USERI3
70
0
9
$USERI4
70
0
9
$USERI5
70
0
9
$USERR1
40
0.0
9
$USERR2
40
0.0
9
$USERR3
40
0.0
9
$USERR4
40
0.0
9
$USERR5
40
0.0
9
$WORLDVIEW
70
1
9
$SHADEDGE
70
3
9
$SHADEDIF
70
70
9
$TILEMODE
70
1
9
$MAXACTVP
70
48
9
$PINSBASE
10
0.0
20
0.0
30
0.0
9
$PLIMCHECK
70
0
9
$PEXTMIN
10
1.000000E+20
20
1.000000E+20
30
1.000000E+20
9
$PEXTMAX
10
-1.000000E+20
20
-1.000000E+20
30
-1.000000E+20
9
$PLIMMIN
10
0.0
20
0.0
9
$PLIMMAX
10
12.0
20
9.0
9
$UNITMODE
70
0
9
$VISRETAIN
70
1
9
$PLINEGEN
70
0
9
$PSLTSCALE
70
1
9
$TREEDEPTH
70
3020
9
$PICKSTYLE
70
1
9
$CMLSTYLE
2
STANDARD
9
$CMLJUST
70
0
9
$CMLSCALE
40
1.0
9
$PROXYGRAPHICS
70
1
9
$MEASUREMENT
70
0
0
ENDSEC
0
SECTION
2
CLASSES
0
ENDSEC
0
SECTION
2
TABLES
0
TABLE
2
VPORT
5
8
100
AcDbSymbolTable
70
3
0
VPORT
5
5A
100
AcDbSymbolTableRecord
100
AcDbViewportTableRecord
2
*ACTIVE
70
0
10
0.0
20
0.0
11
1.0
21
1.0
12
7.623626
22
4.5
13
0.0
23
0.0
14
0.5
24
0.5
15
0.5
25
0.5
16
0.0
26
0.0
36
1.0
17
0.0
27
0.0
37
0.0
40
9.0
41
1.694139
42
50.0
43
0.0
44
0.0
50
0.0
51
0.0
71
0
72
100
73
1
74
1
75
0
76
0
77
0
78
0
0
ENDTAB
0
TABLE
2
LTYPE
5
5
100
AcDbSymbolTable
70
1
0
LTYPE
5
13
100
AcDbSymbolTableRecord
100
AcDbLinetypeTableRecord
2
BYBLOCK
70
0
3

72
65
73
0
40
0.0
0
LTYPE
5
14
100
AcDbSymbolTableRecord
100
AcDbLinetypeTableRecord
2
BYLAYER
70
0
3

72
65
73
0
40
0.0
0
LTYPE
5
15
100
AcDbSymbolTableRecord
100
AcDbLinetypeTableRecord
2
CONTINUOUS
70
0
3
Solid line
72
65
73
0
40
0.0
0
ENDTAB
0
TABLE
2
LAYER
5
2
100
AcDbSymbolTable
70
10
0
LAYER
5
F
100
AcDbSymbolTableRecord
100
AcDbLayerTableRecord
2
0
70
0
62
7
6
CONTINUOUS
0
LAYER
5
4C
100
AcDbSymbolTableRecord
100
AcDbLayerTableRecord
2
FRAMES
70
0
62
2
6
CONTINUOUS
0
LAYER
5
4D
100
AcDbSymbolTableRecord
100
AcDbLayerTableRecord
2
JOINTS
70
0
62
2
6
CONTINUOUS
0
LAYER
5
4E
100
AcDbSymbolTableRecord
100
AcDbLayerTableRecord
2
SHELLS
70
0
62
1
6
CONTINUOUS
0
LAYER
5
4F
100
AcDbSymbolTableRecord
100
AcDbLayerTableRecord
2
GRIDS
70
0
62
8
6
CONTINUOUS
0
LAYER
5
50
100
AcDbSymbolTableRecord
100
AcDbLayerTableRecord
2
PLANES
70
0
62
5
6
CONTINUOUS
0
LAYER
5
51
100
AcDbSymbolTableRecord
100
AcDbLayerTableRecord
2
ASOLIDS
70
0
62
6
6
CONTINUOUS
0
LAYER
5
52
100
AcDbSymbolTableRecord
100
AcDbLayerTableRecord
2
SOLIDS
70
0
62
7
6
CONTINUOUS
0
LAYER
5
53
100
AcDbSymbolTableRecord
100
AcDbLayerTableRecord
2
TEXT
70
0
62
94
6
CONTINUOUS
0
LAYER
5
58
100
AcDbSymbolTableRecord
100
AcDbLayerTableRecord
2
NLLINKS
70
0
62
3
6
CONTINUOUS
0
ENDTAB
0
TABLE
2
STYLE
5
3
100
AcDbSymbolTable
70
1
0
STYLE
5
10
100
AcDbSymbolTableRecord
100
AcDbTextStyleTableRecord
2
STANDARD
70
0
40
0.0
41
1.0
50
0.0
71
0
42
0.2
3
txt
4

0
ENDTAB
0
TABLE
2
VIEW
5
6
100
AcDbSymbolTable
70
0
0
ENDTAB
0
TABLE
2
UCS
5
7
100
AcDbSymbolTable
70
0
0
ENDTAB
0
TABLE
2
APPID
5
9
100
AcDbSymbolTable
70
1
0
APPID
5
11
100
AcDbSymbolTableRecord
100
AcDbRegAppTableRecord
2
ACAD
70
0
0
ENDTAB
0
TABLE
2
DIMSTYLE
5
A
100
AcDbSymbolTable
70
1
0
DIMSTYLE
105
1D
100
AcDbSymbolTableRecord
100
AcDbDimStyleTableRecord
2
STANDARD
70
0
3

4

5

6

7

40
1.0
41
0.18
42
0.0625
43
0.38
44
0.18
45
0.0
46
0.0
47
0.0
48
0.0
140
0.18
141
0.09
142
0.0
143
25.4
144
1.0
145
0.0
146
1.0
147
0.09
71
0
72
0
73
1
74
1
75
0
76
0
77
0
78
0
170
0
171
2
172
0
173
0
174
0
175
0
176
0
177
0
178
0
270
2
271
4
272
4
273
2
274
2
340
10
275
0
280
0
281
0
282
0
283
1
284
0
285
0
286
0
287
3
288
0
0
ENDTAB
0
TABLE
2
BLOCK_RECORD
5
1
100
AcDbSymbolTable
70
0
0
BLOCK_RECORD
5
19
100
AcDbSymbolTableRecord
100
AcDbBlockTableRecord
2
*MODEL_SPACE
0
BLOCK_RECORD
5
16
100
AcDbSymbolTableRecord
100
AcDbBlockTableRecord
2
*PAPER_SPACE
0
ENDTAB
0
ENDSEC
0
SECTION
2
BLOCKS
0
BLOCK
5
1A
100
AcDbEntity
8
0
100
AcDbBlockBegin
2
*MODEL_SPACE
70
0
10
0.0
20
0.0
30
0.0
3
*MODEL_SPACE
1

0
ENDBLK
5
1B
100
AcDbEntity
8
0
100
AcDbBlockEnd
0
BLOCK
5
17
100
AcDbEntity
67
1
8
0
100
AcDbBlockBegin
2
*PAPER_SPACE
70
0
10
0.0
20
0.0
30
0.0
3
*PAPER_SPACE
1

0
ENDBLK
5
18
100
AcDbEntity
67
1
8
0
100
AcDbBlockEnd
0
ENDSEC
0
SECTION
2
ENTITIES
0
3DFACE
5
B1
100
AcDbEntity
8
SHELLS
100
AcDbFace
10
-2
20
6,5
30
2,7
11
4
21
6,5
31
2,7
12
4
22
10,5
32
2,7
13
-2
23
10,5
33
2,7
0
3DFACE
5
B2
100
AcDbEntity
8
SHELLS
100
AcDbFace
10
4
20
6,5
30
2,7
11
7
21
6,5
31
2,7
12
7
22
10,5
32
2,7
13
4
23
10,5
33
2,7
0
3DFACE
5
B3
100
AcDbEntity
8
SHELLS
100
AcDbFace
10
7
20
6,5
30
2,7
11
12,5
21
6,5
31
2,7
12
12,5
22
10,5
32
2,7
13
7
23
10,5
33
2,7
0
3DFACE
5
B4
100
AcDbEntity
8
SHELLS
100
AcDbFace
10
12,5
20
6,5
30
2,7
11
16,5
21
6,5
31
2,7
12
16,5
22
10,5
32
2,7
13
12,5
23
10,5
33
2,7
0
3DFACE
5
B5
100
AcDbEntity
8
SHELLS
100
AcDbFace
10
16,5
20
6,5
30
2,7
11
22
21
6,5
31
2,7
12
22
22
10,5
32
2,7
13
16,5
23
10,5
33
2,7
0
3DFACE
5
B6
100
AcDbEntity
8
SHELLS
100
AcDbFace
10
22
20
6,5
30
2,7
11
25
21
6,5
31
2,7
12
25
22
10,5
32
2,7
13
22
23
10,5
33
2,7
0
3DFACE
5
B7
100
AcDbEntity
8
SHELLS
100
AcDbFace
10
25
20
6,5
30
2,7
11
31
21
6,5
31
2,7
12
31
22
10,5
32
2,7
13
25
23
10,5
33
2,7
0
3DFACE
5
B8
100
AcDbEntity
8
SHELLS
100
AcDbFace
10
25
20
10,5
30
2,7
11
31
21
10,5
31
2,7
12
31
22
12,5
32
2,7
13
25
23
12,5
33
2,7
0
3DFACE
5
B9
100
AcDbEntity
8
SHELLS
100
AcDbFace
10
22
20
10,5
30
2,7
11
25
21
10,5
31
2,7
12
25
22
12,5
32
2,7
13
22
23
12,5
33
2,7
0
3DFACE
5
B10
100
AcDbEntity
8
SHELLS
100
AcDbFace
10
16,5
20
10,5
30
2,7
11
22
21
10,5
31
2,7
12
22
22
12,5
32
2,7
13
16,5
23
12,5
33
2,7
0
3DFACE
5
B11
100
AcDbEntity
8
SHELLS
100
AcDbFace
10
12,5
20
10,5
30
2,7
11
16,5
21
10,5
31
2,7
12
16,5
22
12,5
32
2,7
13
12,5
23
12,5
33
2,7
0
3DFACE
5
B12
100
AcDbEntity
8
SHELLS
100
AcDbFace
10
7
20
10,5
30
2,7
11
12,5
21
10,5
31
2,7
12
12,5
22
12,5
32
2,7
13
7
23
12,5
33
2,7
0
3DFACE
5
B13
100
AcDbEntity
8
SHELLS
100
AcDbFace
10
4
20
10,5
30
2,7
11
7
21
10,5
31
2,7
12
7
22
12,5
32
2,7
13
4
23
12,5
33
2,7
0
3DFACE
5
B14
100
AcDbEntity
8
SHELLS
100
AcDbFace
10
-2
20
10,5
30
2,7
11
4
21
10,5
31
2,7
12
4
22
12,5
32
2,7
13
-2
23
12,5
33
2,7
0
3DFACE
5
B15
100
AcDbEntity
8
SHELLS
100
AcDbFace
10
-2
20
12,5
30
2,7
11
4
21
12,5
31
2,7
12
4
22
16,5
32
2,7
13
-2
23
16,5
33
2,7
0
3DFACE
5
B16
100
AcDbEntity
8
SHELLS
100
AcDbFace
10
4
20
12,5
30
2,7
11
7
21
12,5
31
2,7
12
7
22
16,5
32
2,7
13
4
23
16,5
33
2,7
0
3DFACE
5
B17
100
AcDbEntity
8
SHELLS
100
AcDbFace
10
7
20
12,5
30
2,7
11
12,5
21
12,5
31
2,7
12
12,5
22
16,5
32
2,7
13
7
23
16,5
33
2,7
0
3DFACE
5
B18
100
AcDbEntity
8
SHELLS
100
AcDbFace
10
12,5
20
12,5
30
2,7
11
16,5
21
12,5
31
2,7
12
16,5
22
16,5
32
2,7
13
12,5
23
16,5
33
2,7
0
3DFACE
5
B19
100
AcDbEntity
8
SHELLS
100
AcDbFace
10
16,5
20
12,5
30
2,7
11
22
21
12,5
31
2,7
12
22
22
16,5
32
2,7
13
16,5
23
16,5
33
2,7
0
3DFACE
5
B20
100
AcDbEntity
8
SHELLS
100
AcDbFace
10
22
20
12,5
30
2,7
11
25
21
12,5
31
2,7
12
25
22
16,5
32
2,7
13
22
23
16,5
33
2,7
0
3DFACE
5
B21
100
AcDbEntity
8
SHELLS
100
AcDbFace
10
25
20
12,5
30
2,7
11
31
21
12,5
31
2,7
12
31
22
16,5
32
2,7
13
25
23
16,5
33
2,7
0
3DFACE
5
B22
100
AcDbEntity
8
SHELLS
100
AcDbFace
10
-2
20
2,5
30
2,7
11
4
21
2,5
31
2,7
12
4
22
6,5
32
2,7
13
-2
23
6,5
33
2,7
0
3DFACE
5
B23
100
AcDbEntity
8
SHELLS
100
AcDbFace
10
25
20
2,5
30
2,7
11
31
21
2,5
31
2,7
12
31
22
6,5
32
2,7
13
25
23
6,5
33
2,7
0
3DFACE
5
B24
100
AcDbEntity
8
SHELLS
100
AcDbFace
10
-2
20
6,5
30
6,3
11
4
21
6,5
31
6,3
12
4
22
10,5
32
6,3
13
-2
23
10,5
33
6,3
0
3DFACE
5
B25
100
AcDbEntity
8
SHELLS
100
AcDbFace
10
4
20
6,5
30
6,3
11
7
21
6,5
31
6,3
12
7
22
10,5
32
6,3
13
4
23
10,5
33
6,3
0
3DFACE
5
B26
100
AcDbEntity
8
SHELLS
100
AcDbFace
10
7
20
6,5
30
6,3
11
12,5
21
6,5
31
6,3
12
12,5
22
10,5
32
6,3
13
7
23
10,5
33
6,3
0
3DFACE
5
B27
100
AcDbEntity
8
SHELLS
100
AcDbFace
10
12,5
20
6,5
30
6,3
11
16,5
21
6,5
31
6,3
12
16,5
22
10,5
32
6,3
13
12,5
23
10,5
33
6,3
0
3DFACE
5
B28
100
AcDbEntity
8
SHELLS
100
AcDbFace
10
16,5
20
6,5
30
6,3
11
22
21
6,5
31
6,3
12
22
22
10,5
32
6,3
13
16,5
23
10,5
33
6,3
0
3DFACE
5
B29
100
AcDbEntity
8
SHELLS
100
AcDbFace
10
22
20
6,5
30
6,3
11
25
21
6,5
31
6,3
12
25
22
10,5
32
6,3
13
22
23
10,5
33
6,3
0
3DFACE
5
B30
100
AcDbEntity
8
SHELLS
100
AcDbFace
10
25
20
6,5
30
6,3
11
31
21
6,5
31
6,3
12
31
22
10,5
32
6,3
13
25
23
10,5
33
6,3
0
3DFACE
5
B31
100
AcDbEntity
8
SHELLS
100
AcDbFace
10
25
20
10,5
30
6,3
11
31
21
10,5
31
6,3
12
31
22
12,5
32
6,3
13
25
23
12,5
33
6,3
0
3DFACE
5
B32
100
AcDbEntity
8
SHELLS
100
AcDbFace
10
22
20
10,5
30
6,3
11
25
21
10,5
31
6,3
12
25
22
12,5
32
6,3
13
22
23
12,5
33
6,3
0
3DFACE
5
B33
100
AcDbEntity
8
SHELLS
100
AcDbFace
10
16,5
20
10,5
30
6,3
11
22
21
10,5
31
6,3
12
22
22
12,5
32
6,3
13
16,5
23
12,5
33
6,3
0
3DFACE
5
B34
100
AcDbEntity
8
SHELLS
100
AcDbFace
10
12,5
20
10,5
30
6,3
11
16,5
21
10,5
31
6,3
12
16,5
22
12,5
32
6,3
13
12,5
23
12,5
33
6,3
0
3DFACE
5
B35
100
AcDbEntity
8
SHELLS
100
AcDbFace
10
7
20
10,5
30
6,3
11
12,5
21
10,5
31
6,3
12
12,5
22
12,5
32
6,3
13
7
23
12,5
33
6,3
0
3DFACE
5
B36
100
AcDbEntity
8
SHELLS
100
AcDbFace
10
4
20
10,5
30
6,3
11
7
21
10,5
31
6,3
12
7
22
12,5
32
6,3
13
4
23
12,5
33
6,3
0
3DFACE
5
B37
100
AcDbEntity
8
SHELLS
100
AcDbFace
10
-2
20
10,5
30
6,3
11
4
21
10,5
31
6,3
12
4
22
12,5
32
6,3
13
-2
23
12,5
33
6,3
0
3DFACE
5
B38
100
AcDbEntity
8
SHELLS
100
AcDbFace
10
-2
20
12,5
30
6,3
11
4
21
12,5
31
6,3
12
4
22
16,5
32
6,3
13
-2
23
16,5
33
6,3
0
3DFACE
5
B39
100
AcDbEntity
8
SHELLS
100
AcDbFace
10
4
20
12,5
30
6,3
11
7
21
12,5
31
6,3
12
7
22
16,5
32
6,3
13
4
23
16,5
33
6,3
0
3DFACE
5
B40
100
AcDbEntity
8
SHELLS
100
AcDbFace
10
7
20
12,5
30
6,3
11
12,5
21
12,5
31
6,3
12
12,5
22
16,5
32
6,3
13
7
23
16,5
33
6,3
0
3DFACE
5
B41
100
AcDbEntity
8
SHELLS
100
AcDbFace
10
12,5
20
12,5
30
6,3
11
16,5
21
12,5
31
6,3
12
16,5
22
16,5
32
6,3
13
12,5
23
16,5
33
6,3
0
3DFACE
5
B42
100
AcDbEntity
8
SHELLS
100
AcDbFace
10
16,5
20
12,5
30
6,3
11
22
21
12,5
31
6,3
12
22
22
16,5
32
6,3
13
16,5
23
16,5
33
6,3
0
3DFACE
5
B43
100
AcDbEntity
8
SHELLS
100
AcDbFace
10
22
20
12,5
30
6,3
11
25
21
12,5
31
6,3
12
25
22
16,5
32
6,3
13
22
23
16,5
33
6,3
0
3DFACE
5
B44
100
AcDbEntity
8
SHELLS
100
AcDbFace
10
25
20
12,5
30
6,3
11
31
21
12,5
31
6,3
12
31
22
16,5
32
6,3
13
25
23
16,5
33
6,3
0
3DFACE
5
B45
100
AcDbEntity
8
SHELLS
100
AcDbFace
10
-2
20
2,5
30
6,3
11
4
21
2,5
31
6,3
12
4
22
6,5
32
6,3
13
-2
23
6,5
33
6,3
0
3DFACE
5
B46
100
AcDbEntity
8
SHELLS
100
AcDbFace
10
25
20
2,5
30
6,3
11
31
21
2,5
31
6,3
12
31
22
6,5
32
6,3
13
25
23
6,5
33
6,3
0
3DFACE
5
B47
100
AcDbEntity
8
SHELLS
100
AcDbFace
10
12,5
20
4,5
30
6,3
11
16,5
21
4,5
31
6,3
12
16,5
22
6,5
32
6,3
13
12,5
23
6,5
33
6,3
0
3DFACE
5
B48
100
AcDbEntity
8
SHELLS
100
AcDbFace
10
12,5
20
2,5
30
6,3
11
16,5
21
2,5
31
6,3
12
16,5
22
4,5
32
6,3
13
12,5
23
4,5
33
6,3
0
3DFACE
5
B49
100
AcDbEntity
8
SHELLS
100
AcDbFace
10
10,5
20
4,5
30
6,3
11
12,5
21
4,5
31
6,3
12
12,5
22
6,5
32
6,3
13
10,5
23
6,5
33
6,3
0
3DFACE
5
B50
100
AcDbEntity
8
SHELLS
100
AcDbFace
10
16,5
20
4,5
30
6,3
11
18,5
21
4,5
31
6,3
12
18,5
22
6,5
32
6,3
13
16,5
23
6,5
33
6,3
0
3DFACE
5
B51
100
AcDbEntity
8
SHELLS
100
AcDbFace
10
12,5
20
1,6
30
6,3
11
16,5
21
1,6
31
6,3
12
16,5
22
2,5
32
6,3
13
12,5
23
2,5
33
6,3
0
3DFACE
5
B52
100
AcDbEntity
8
SHELLS
100
AcDbFace
10
11,7
20
1,6
30
6,3
11
12,5
21
1,6
31
6,3
12
12,5
22
4,5
32
6,3
13
11,7
23
4,5
33
6,3
0
3DFACE
5
B53
100
AcDbEntity
8
SHELLS
100
AcDbFace
10
16,5
20
1,6
30
6,3
11
17,3
21
1,6
31
6,3
12
17,3
22
4,5
32
6,3
13
16,5
23
4,5
33
6,3
0
3DFACE
5
B54
100
AcDbEntity
8
SHELLS
100
AcDbFace
10
31
20
2,5
30
9,9
11
28
21
5,5
31
12,2
12
28
22
13,5
32
12,2
13
31
23
16,5
33
9,9
0
3DFACE
5
B55
100
AcDbEntity
8
SHELLS
100
AcDbFace
10
31
20
16,5
30
9,9
11
28
21
13,5
31
12,2
12
1
22
13,5
32
12,2
13
-2
23
16,5
33
9,9
0
3DFACE
5
B56
100
AcDbEntity
8
SHELLS
100
AcDbFace
10
1
20
13,5
30
12,2
11
-2
21
16,5
31
9,9
12
-2
22
2,5
32
9,9
13
1
23
5,5
33
12,2
0
3DFACE
5
B57
100
AcDbEntity
8
SHELLS
100
AcDbFace
10
1
20
5,5
30
12,2
11
-2
21
2,5
31
9,9
12
4
22
2,5
32
9,9
13
4
23
2,5
33
9,9
0
3DFACE
5
B58
100
AcDbEntity
8
SHELLS
100
AcDbFace
10
25
20
2,5
30
9,9
11
28
21
5,5
31
12,2
12
31
22
2,5
32
9,9
13
31
23
2,5
33
9,9
0
3DFACE
5
B59
100
AcDbEntity
8
SHELLS
100
AcDbFace
10
1
20
5,5
30
12,2
11
1
21
9,5
31
12,2
12
4
22
6,5
32
9,9
13
4
23
2,5
33
9,9
0
3DFACE
5
B60
100
AcDbEntity
8
SHELLS
100
AcDbFace
10
1
20
9,5
30
12,2
11
4
21
6,5
31
9,9
12
25
22
6,5
32
9,9
13
28
23
9,5
33
12,2
0
3DFACE
5
B61
100
AcDbEntity
8
SHELLS
100
AcDbFace
10
25
20
6,5
30
9,9
11
25
21
2,5
31
9,9
12
28
22
5,5
32
12,2
13
28
23
9,5
33
12,2
0
3DFACE
5
B62
100
AcDbEntity
8
SHELLS
100
AcDbFace
10
28
20
9,5
30
12,2
11
26
21
11,5
31
13,2
12
28
22
13,5
32
12,2
13
28
23
13,5
33
12,2
0
3DFACE
5
B63
100
AcDbEntity
8
SHELLS
100
AcDbFace
10
26
20
11,5
30
13,2
11
3
21
11,5
31
13,2
12
1
22
9,5
32
12,2
13
28
23
9,5
33
12,2
0
3DFACE
5
B64
100
AcDbEntity
8
SHELLS
100
AcDbFace
10
26
20
11,5
30
13,2
11
28
21
13,5
31
12,2
12
1
22
13,5
32
12,2
13
3
23
11,5
33
13,2
0
3DFACE
5
B65
100
AcDbEntity
8
SHELLS
100
AcDbFace
10
1
20
13,5
30
12,2
11
1
21
9,5
31
12,2
12
3
22
11,5
32
13,2
13
3
23
11,5
33
13,2
0
3DFACE
5
B66
100
AcDbEntity
8
SHELLS
100
AcDbFace
10
9,8
20
4,5
30
2,7
11
12,5
21
4,5
31
2,7
12
12,5
22
6,5
32
2,7
13
9,8
23
6,5
33
2,7
0
3DFACE
5
B67
100
AcDbEntity
8
SHELLS
100
AcDbFace
10
12,5
20
4,5
30
2,7
11
16,5
21
4,5
31
2,7
12
16,5
22
6,5
32
2,7
13
12,5
23
6,5
33
2,7
0
3DFACE
5
B68
100
AcDbEntity
8
SHELLS
100
AcDbFace
10
16,5
20
4,5
30
2,7
11
19,2
21
4,5
31
2,7
12
19,2
22
6,5
32
2,7
13
16,5
23
6,5
33
2,7
0
3DFACE
5
B69
100
AcDbEntity
8
SHELLS
100
AcDbFace
10
12,5
20
1
30
1,5
11
12,5
21
2,277
31
1,5
12
16,5
22
2,277
32
1,5
13
16,5
23
1
33
1,5
0
3DFACE
5
B70
100
AcDbEntity
8
SHELLS
100
AcDbFace
10
12,5
20
1
30
1,5
11
12,5
21
-2
31
0
12
16,5
22
-2
32
0
13
16,5
23
1
33
1,5
0
3DFACE
5
B71
100
AcDbEntity
8
SHELLS
100
AcDbFace
10
12,5
20
2,277
30
1,5
11
12,5
21
4,5
31
2,7
12
16,5
22
4,5
32
2,7
13
16,5
23
2,277
33
1,5
0
LINE
5
B72
100
AcDbEntity
8
FRAMES
100
AcDbLine
10
-2
20
16,5
30
2,7
11
4
21
16,5
31
2,7
0
LINE
5
B73
100
AcDbEntity
8
FRAMES
100
AcDbLine
10
4
20
16,5
30
2,7
11
7
21
16,5
31
2,7
0
LINE
5
B74
100
AcDbEntity
8
FRAMES
100
AcDbLine
10
7
20
16,5
30
2,7
11
12,5
21
16,5
31
2,7
0
LINE
5
B75
100
AcDbEntity
8
FRAMES
100
AcDbLine
10
12,5
20
16,5
30
2,7
11
16,5
21
16,5
31
2,7
0
LINE
5
B76
100
AcDbEntity
8
FRAMES
100
AcDbLine
10
16,5
20
16,5
30
2,7
11
22
21
16,5
31
2,7
0
LINE
5
B77
100
AcDbEntity
8
FRAMES
100
AcDbLine
10
22
20
16,5
30
2,7
11
25
21
16,5
31
2,7
0
LINE
5
B78
100
AcDbEntity
8
FRAMES
100
AcDbLine
10
25
20
16,5
30
2,7
11
31
21
16,5
31
2,7
0
LINE
5
B79
100
AcDbEntity
8
FRAMES
100
AcDbLine
10
25
20
12,5
30
2,7
11
31
21
12,5
31
2,7
0
LINE
5
B80
100
AcDbEntity
8
FRAMES
100
AcDbLine
10
22
20
12,5
30
2,7
11
25
21
12,5
31
2,7
0
LINE
5
B81
100
AcDbEntity
8
FRAMES
100
AcDbLine
10
16,5
20
12,5
30
2,7
11
22
21
12,5
31
2,7
0
LINE
5
B82
100
AcDbEntity
8
FRAMES
100
AcDbLine
10
12,5
20
12,5
30
2,7
11
16,5
21
12,5
31
2,7
0
LINE
5
B83
100
AcDbEntity
8
FRAMES
100
AcDbLine
10
7
20
12,5
30
2,7
11
12,5
21
12,5
31
2,7
0
LINE
5
B84
100
AcDbEntity
8
FRAMES
100
AcDbLine
10
4
20
12,5
30
2,7
11
7
21
12,5
31
2,7
0
LINE
5
B85
100
AcDbEntity
8
FRAMES
100
AcDbLine
10
-2
20
12,5
30
2,7
11
4
21
12,5
31
2,7
0
LINE
5
B86
100
AcDbEntity
8
FRAMES
100
AcDbLine
10
-2
20
12,5
30
2,7
11
-2
21
16,5
31
2,7
0
LINE
5
B87
100
AcDbEntity
8
FRAMES
100
AcDbLine
10
31
20
12,5
30
2,7
11
31
21
16,5
31
2,7
0
LINE
5
B88
100
AcDbEntity
8
FRAMES
100
AcDbLine
10
31
20
10,5
30
2,7
11
31
21
12,5
31
2,7
0
LINE
5
B89
100
AcDbEntity
8
FRAMES
100
AcDbLine
10
31
20
6,5
30
2,7
11
31
21
10,5
31
2,7
0
LINE
5
B90
100
AcDbEntity
8
FRAMES
100
AcDbLine
10
31
20
2,5
30
2,7
11
31
21
6,5
31
2,7
0
LINE
5
B91
100
AcDbEntity
8
FRAMES
100
AcDbLine
10
25
20
2,5
30
2,7
11
31
21
2,5
31
2,7
0
LINE
5
B92
100
AcDbEntity
8
FRAMES
100
AcDbLine
10
16,5
20
6,5
30
2,7
11
22
21
6,5
31
2,7
0
LINE
5
B93
100
AcDbEntity
8
FRAMES
100
AcDbLine
10
7
20
6,5
30
2,7
11
12,5
21
6,5
31
2,7
0
LINE
5
B94
100
AcDbEntity
8
FRAMES
100
AcDbLine
10
12,5
20
6,5
30
2,7
11
16,5
21
6,5
31
2,7
0
LINE
5
B95
100
AcDbEntity
8
FRAMES
100
AcDbLine
10
4
20
6,5
30
2,7
11
7
21
6,5
31
2,7
0
LINE
5
B96
100
AcDbEntity
8
FRAMES
100
AcDbLine
10
4
20
2,5
30
2,7
11
4
21
6,5
31
2,7
0
LINE
5
B97
100
AcDbEntity
8
FRAMES
100
AcDbLine
10
-2
20
2,5
30
2,7
11
4
21
2,5
31
2,7
0
LINE
5
B98
100
AcDbEntity
8
FRAMES
100
AcDbLine
10
-2
20
2,5
30
2,7
11
-2
21
6,5
31
2,7
0
LINE
5
B99
100
AcDbEntity
8
FRAMES
100
AcDbLine
10
-2
20
6,5
30
2,7
11
-2
21
10,5
31
2,7
0
LINE
5
B100
100
AcDbEntity
8
FRAMES
100
AcDbLine
10
-2
20
10,5
30
2,7
11
-2
21
12,5
31
2,7
0
LINE
5
B101
100
AcDbEntity
8
FRAMES
100
AcDbLine
10
-2
20
10,5
30
2,7
11
4
21
10,5
31
2,7
0
LINE
5
B102
100
AcDbEntity
8
FRAMES
100
AcDbLine
10
4
20
10,5
30
2,7
11
7
21
10,5
31
2,7
0
LINE
5
B103
100
AcDbEntity
8
FRAMES
100
AcDbLine
10
7
20
10,5
30
2,7
11
12,5
21
10,5
31
2,7
0
LINE
5
B104
100
AcDbEntity
8
FRAMES
100
AcDbLine
10
12,5
20
10,5
30
2,7
11
16,5
21
10,5
31
2,7
0
LINE
5
B105
100
AcDbEntity
8
FRAMES
100
AcDbLine
10
16,5
20
10,5
30
2,7
11
22
21
10,5
31
2,7
0
LINE
5
B106
100
AcDbEntity
8
FRAMES
100
AcDbLine
10
22
20
10,5
30
2,7
11
25
21
10,5
31
2,7
0
LINE
5
B107
100
AcDbEntity
8
FRAMES
100
AcDbLine
10
25
20
10,5
30
2,7
11
31
21
10,5
31
2,7
0
LINE
5
B108
100
AcDbEntity
8
FRAMES
100
AcDbLine
10
31
20
6,5
30
2,7
11
25
21
6,5
31
2,7
0
LINE
5
B109
100
AcDbEntity
8
FRAMES
100
AcDbLine
10
25
20
6,5
30
2,7
11
22
21
6,5
31
2,7
0
LINE
5
B110
100
AcDbEntity
8
FRAMES
100
AcDbLine
10
25
20
2,5
30
2,7
11
25
21
6,5
31
2,7
0
LINE
5
B111
100
AcDbEntity
8
FRAMES
100
AcDbLine
10
4
20
6,5
30
2,7
11
-2
21
6,5
31
2,7
0
LINE
5
B112
100
AcDbEntity
8
FRAMES
100
AcDbLine
10
25
20
16,5
30
2,7
11
25
21
12,5
31
2,7
0
LINE
5
B113
100
AcDbEntity
8
FRAMES
100
AcDbLine
10
25
20
12,5
30
2,7
11
25
21
10,5
31
2,7
0
LINE
5
B114
100
AcDbEntity
8
FRAMES
100
AcDbLine
10
25
20
10,5
30
2,7
11
25
21
6,5
31
2,7
0
LINE
5
B115
100
AcDbEntity
8
FRAMES
100
AcDbLine
10
22
20
16,5
30
2,7
11
22
21
12,5
31
2,7
0
LINE
5
B116
100
AcDbEntity
8
FRAMES
100
AcDbLine
10
22
20
12,5
30
2,7
11
22
21
10,5
31
2,7
0
LINE
5
B117
100
AcDbEntity
8
FRAMES
100
AcDbLine
10
22
20
10,5
30
2,7
11
22
21
6,5
31
2,7
0
LINE
5
B118
100
AcDbEntity
8
FRAMES
100
AcDbLine
10
16,5
20
16,5
30
2,7
11
16,5
21
12,5
31
2,7
0
LINE
5
B119
100
AcDbEntity
8
FRAMES
100
AcDbLine
10
16,5
20
12,5
30
2,7
11
16,5
21
10,5
31
2,7
0
LINE
5
B120
100
AcDbEntity
8
FRAMES
100
AcDbLine
10
16,5
20
10,5
30
2,7
11
16,5
21
6,5
31
2,7
0
LINE
5
B121
100
AcDbEntity
8
FRAMES
100
AcDbLine
10
12,5
20
16,5
30
2,7
11
12,5
21
12,5
31
2,7
0
LINE
5
B122
100
AcDbEntity
8
FRAMES
100
AcDbLine
10
12,5
20
12,5
30
2,7
11
12,5
21
10,5
31
2,7
0
LINE
5
B123
100
AcDbEntity
8
FRAMES
100
AcDbLine
10
12,5
20
10,5
30
2,7
11
12,5
21
6,5
31
2,7
0
LINE
5
B124
100
AcDbEntity
8
FRAMES
100
AcDbLine
10
7
20
16,5
30
2,7
11
7
21
12,5
31
2,7
0
LINE
5
B125
100
AcDbEntity
8
FRAMES
100
AcDbLine
10
7
20
12,5
30
2,7
11
7
21
10,5
31
2,7
0
LINE
5
B126
100
AcDbEntity
8
FRAMES
100
AcDbLine
10
7
20
10,5
30
2,7
11
7
21
6,5
31
2,7
0
LINE
5
B127
100
AcDbEntity
8
FRAMES
100
AcDbLine
10
4
20
16,5
30
2,7
11
4
21
12,5
31
2,7
0
LINE
5
B128
100
AcDbEntity
8
FRAMES
100
AcDbLine
10
4
20
12,5
30
2,7
11
4
21
10,5
31
2,7
0
LINE
5
B129
100
AcDbEntity
8
FRAMES
100
AcDbLine
10
4
20
10,5
30
2,7
11
4
21
6,5
31
2,7
0
LINE
5
B130
100
AcDbEntity
8
FRAMES
100
AcDbLine
10
-2
20
16,5
30
6,3
11
4
21
16,5
31
6,3
0
LINE
5
B131
100
AcDbEntity
8
FRAMES
100
AcDbLine
10
4
20
16,5
30
6,3
11
7
21
16,5
31
6,3
0
LINE
5
B132
100
AcDbEntity
8
FRAMES
100
AcDbLine
10
7
20
16,5
30
6,3
11
12,5
21
16,5
31
6,3
0
LINE
5
B133
100
AcDbEntity
8
FRAMES
100
AcDbLine
10
12,5
20
16,5
30
6,3
11
16,5
21
16,5
31
6,3
0
LINE
5
B134
100
AcDbEntity
8
FRAMES
100
AcDbLine
10
16,5
20
16,5
30
6,3
11
22
21
16,5
31
6,3
0
LINE
5
B135
100
AcDbEntity
8
FRAMES
100
AcDbLine
10
22
20
16,5
30
6,3
11
25
21
16,5
31
6,3
0
LINE
5
B136
100
AcDbEntity
8
FRAMES
100
AcDbLine
10
25
20
16,5
30
6,3
11
31
21
16,5
31
6,3
0
LINE
5
B137
100
AcDbEntity
8
FRAMES
100
AcDbLine
10
25
20
12,5
30
6,3
11
31
21
12,5
31
6,3
0
LINE
5
B138
100
AcDbEntity
8
FRAMES
100
AcDbLine
10
22
20
12,5
30
6,3
11
25
21
12,5
31
6,3
0
LINE
5
B139
100
AcDbEntity
8
FRAMES
100
AcDbLine
10
16,5
20
12,5
30
6,3
11
22
21
12,5
31
6,3
0
LINE
5
B140
100
AcDbEntity
8
FRAMES
100
AcDbLine
10
12,5
20
12,5
30
6,3
11
16,5
21
12,5
31
6,3
0
LINE
5
B141
100
AcDbEntity
8
FRAMES
100
AcDbLine
10
7
20
12,5
30
6,3
11
12,5
21
12,5
31
6,3
0
LINE
5
B142
100
AcDbEntity
8
FRAMES
100
AcDbLine
10
4
20
12,5
30
6,3
11
7
21
12,5
31
6,3
0
LINE
5
B143
100
AcDbEntity
8
FRAMES
100
AcDbLine
10
-2
20
12,5
30
6,3
11
4
21
12,5
31
6,3
0
LINE
5
B144
100
AcDbEntity
8
FRAMES
100
AcDbLine
10
-2
20
12,5
30
6,3
11
-2
21
16,5
31
6,3
0
LINE
5
B145
100
AcDbEntity
8
FRAMES
100
AcDbLine
10
31
20
12,5
30
6,3
11
31
21
16,5
31
6,3
0
LINE
5
B146
100
AcDbEntity
8
FRAMES
100
AcDbLine
10
31
20
10,5
30
6,3
11
31
21
12,5
31
6,3
0
LINE
5
B147
100
AcDbEntity
8
FRAMES
100
AcDbLine
10
31
20
6,5
30
6,3
11
31
21
10,5
31
6,3
0
LINE
5
B148
100
AcDbEntity
8
FRAMES
100
AcDbLine
10
31
20
2,5
30
6,3
11
31
21
6,5
31
6,3
0
LINE
5
B149
100
AcDbEntity
8
FRAMES
100
AcDbLine
10
25
20
2,5
30
6,3
11
31
21
2,5
31
6,3
0
LINE
5
B150
100
AcDbEntity
8
FRAMES
100
AcDbLine
10
12,5
20
6,5
30
6,3
11
16,5
21
6,5
31
6,3
0
LINE
5
B151
100
AcDbEntity
8
FRAMES
100
AcDbLine
10
4
20
6,5
30
6,3
11
7
21
6,5
31
6,3
0
LINE
5
B152
100
AcDbEntity
8
FRAMES
100
AcDbLine
10
4
20
2,5
30
6,3
11
4
21
6,5
31
6,3
0
LINE
5
B153
100
AcDbEntity
8
FRAMES
100
AcDbLine
10
-2
20
2,5
30
6,3
11
4
21
2,5
31
6,3
0
LINE
5
B154
100
AcDbEntity
8
FRAMES
100
AcDbLine
10
-2
20
2,5
30
6,3
11
-2
21
6,5
31
6,3
0
LINE
5
B155
100
AcDbEntity
8
FRAMES
100
AcDbLine
10
-2
20
6,5
30
6,3
11
-2
21
10,5
31
6,3
0
LINE
5
B156
100
AcDbEntity
8
FRAMES
100
AcDbLine
10
-2
20
10,5
30
6,3
11
-2
21
12,5
31
6,3
0
LINE
5
B157
100
AcDbEntity
8
FRAMES
100
AcDbLine
10
-2
20
10,5
30
6,3
11
4
21
10,5
31
6,3
0
LINE
5
B158
100
AcDbEntity
8
FRAMES
100
AcDbLine
10
4
20
10,5
30
6,3
11
7
21
10,5
31
6,3
0
LINE
5
B159
100
AcDbEntity
8
FRAMES
100
AcDbLine
10
7
20
10,5
30
6,3
11
12,5
21
10,5
31
6,3
0
LINE
5
B160
100
AcDbEntity
8
FRAMES
100
AcDbLine
10
12,5
20
10,5
30
6,3
11
16,5
21
10,5
31
6,3
0
LINE
5
B161
100
AcDbEntity
8
FRAMES
100
AcDbLine
10
16,5
20
10,5
30
6,3
11
22
21
10,5
31
6,3
0
LINE
5
B162
100
AcDbEntity
8
FRAMES
100
AcDbLine
10
22
20
10,5
30
6,3
11
25
21
10,5
31
6,3
0
LINE
5
B163
100
AcDbEntity
8
FRAMES
100
AcDbLine
10
25
20
10,5
30
6,3
11
31
21
10,5
31
6,3
0
LINE
5
B164
100
AcDbEntity
8
FRAMES
100
AcDbLine
10
31
20
6,5
30
6,3
11
25
21
6,5
31
6,3
0
LINE
5
B165
100
AcDbEntity
8
FRAMES
100
AcDbLine
10
25
20
6,5
30
6,3
11
22
21
6,5
31
6,3
0
LINE
5
B166
100
AcDbEntity
8
FRAMES
100
AcDbLine
10
25
20
2,5
30
6,3
11
25
21
6,5
31
6,3
0
LINE
5
B167
100
AcDbEntity
8
FRAMES
100
AcDbLine
10
4
20
6,5
30
6,3
11
-2
21
6,5
31
6,3
0
LINE
5
B168
100
AcDbEntity
8
FRAMES
100
AcDbLine
10
25
20
16,5
30
6,3
11
25
21
12,5
31
6,3
0
LINE
5
B169
100
AcDbEntity
8
FRAMES
100
AcDbLine
10
25
20
12,5
30
6,3
11
25
21
10,5
31
6,3
0
LINE
5
B170
100
AcDbEntity
8
FRAMES
100
AcDbLine
10
25
20
10,5
30
6,3
11
25
21
6,5
31
6,3
0
LINE
5
B171
100
AcDbEntity
8
FRAMES
100
AcDbLine
10
22
20
16,5
30
6,3
11
22
21
12,5
31
6,3
0
LINE
5
B172
100
AcDbEntity
8
FRAMES
100
AcDbLine
10
22
20
12,5
30
6,3
11
22
21
10,5
31
6,3
0
LINE
5
B173
100
AcDbEntity
8
FRAMES
100
AcDbLine
10
22
20
10,5
30
6,3
11
22
21
6,5
31
6,3
0
LINE
5
B174
100
AcDbEntity
8
FRAMES
100
AcDbLine
10
16,5
20
16,5
30
6,3
11
16,5
21
12,5
31
6,3
0
LINE
5
B175
100
AcDbEntity
8
FRAMES
100
AcDbLine
10
16,5
20
12,5
30
6,3
11
16,5
21
10,5
31
6,3
0
LINE
5
B176
100
AcDbEntity
8
FRAMES
100
AcDbLine
10
16,5
20
10,5
30
6,3
11
16,5
21
6,5
31
6,3
0
LINE
5
B177
100
AcDbEntity
8
FRAMES
100
AcDbLine
10
12,5
20
16,5
30
6,3
11
12,5
21
12,5
31
6,3
0
LINE
5
B178
100
AcDbEntity
8
FRAMES
100
AcDbLine
10
12,5
20
12,5
30
6,3
11
12,5
21
10,5
31
6,3
0
LINE
5
B179
100
AcDbEntity
8
FRAMES
100
AcDbLine
10
12,5
20
10,5
30
6,3
11
12,5
21
6,5
31
6,3
0
LINE
5
B180
100
AcDbEntity
8
FRAMES
100
AcDbLine
10
7
20
16,5
30
6,3
11
7
21
12,5
31
6,3
0
LINE
5
B181
100
AcDbEntity
8
FRAMES
100
AcDbLine
10
7
20
12,5
30
6,3
11
7
21
10,5
31
6,3
0
LINE
5
B182
100
AcDbEntity
8
FRAMES
100
AcDbLine
10
7
20
10,5
30
6,3
11
7
21
6,5
31
6,3
0
LINE
5
B183
100
AcDbEntity
8
FRAMES
100
AcDbLine
10
4
20
16,5
30
6,3
11
4
21
12,5
31
6,3
0
LINE
5
B184
100
AcDbEntity
8
FRAMES
100
AcDbLine
10
4
20
12,5
30
6,3
11
4
21
10,5
31
6,3
0
LINE
5
B185
100
AcDbEntity
8
FRAMES
100
AcDbLine
10
4
20
10,5
30
6,3
11
4
21
6,5
31
6,3
0
LINE
5
B186
100
AcDbEntity
8
FRAMES
100
AcDbLine
10
4
20
2,5
30
0
11
4
21
2,5
31
2,7
0
LINE
5
B187
100
AcDbEntity
8
FRAMES
100
AcDbLine
10
4
20
2,5
30
2,7
11
4
21
2,5
31
6,3
0
LINE
5
B188
100
AcDbEntity
8
FRAMES
100
AcDbLine
10
4
20
2,5
30
6,3
11
4
21
2,5
31
9,9
0
LINE
5
B189
100
AcDbEntity
8
FRAMES
100
AcDbLine
10
25
20
2,5
30
0
11
25
21
2,5
31
2,7
0
LINE
5
B190
100
AcDbEntity
8
FRAMES
100
AcDbLine
10
25
20
2,5
30
2,7
11
25
21
2,5
31
6,3
0
LINE
5
B191
100
AcDbEntity
8
FRAMES
100
AcDbLine
10
25
20
2,5
30
6,3
11
25
21
2,5
31
9,9
0
LINE
5
B192
100
AcDbEntity
8
FRAMES
100
AcDbLine
10
31
20
2,5
30
0
11
31
21
2,5
31
2,7
0
LINE
5
B193
100
AcDbEntity
8
FRAMES
100
AcDbLine
10
31
20
2,5
30
2,7
11
31
21
2,5
31
6,3
0
LINE
5
B194
100
AcDbEntity
8
FRAMES
100
AcDbLine
10
31
20
2,5
30
6,3
11
31
21
2,5
31
9,9
0
LINE
5
B195
100
AcDbEntity
8
FRAMES
100
AcDbLine
10
-2
20
6,5
30
0
11
-2
21
6,5
31
2,7
0
LINE
5
B196
100
AcDbEntity
8
FRAMES
100
AcDbLine
10
-2
20
6,5
30
2,7
11
-2
21
6,5
31
6,3
0
LINE
5
B197
100
AcDbEntity
8
FRAMES
100
AcDbLine
10
-2
20
6,5
30
6,3
11
-2
21
6,5
31
9,9
0
LINE
5
B198
100
AcDbEntity
8
FRAMES
100
AcDbLine
10
4
20
6,5
30
0
11
4
21
6,5
31
2,7
0
LINE
5
B199
100
AcDbEntity
8
FRAMES
100
AcDbLine
10
4
20
6,5
30
2,7
11
4
21
6,5
31
6,3
0
LINE
5
B200
100
AcDbEntity
8
FRAMES
100
AcDbLine
10
4
20
6,5
30
6,3
11
4
21
6,5
31
9,9
0
LINE
5
B201
100
AcDbEntity
8
FRAMES
100
AcDbLine
10
7
20
6,5
30
0
11
7
21
6,5
31
2,7
0
LINE
5
B202
100
AcDbEntity
8
FRAMES
100
AcDbLine
10
7
20
6,5
30
2,7
11
7
21
6,5
31
6,3
0
LINE
5
B203
100
AcDbEntity
8
FRAMES
100
AcDbLine
10
7
20
6,5
30
6,3
11
7
21
6,5
31
9,9
0
LINE
5
B204
100
AcDbEntity
8
FRAMES
100
AcDbLine
10
12,5
20
6,5
30
0
11
12,5
21
6,5
31
2,7
0
LINE
5
B205
100
AcDbEntity
8
FRAMES
100
AcDbLine
10
12,5
20
6,5
30
2,7
11
12,5
21
6,5
31
6,3
0
LINE
5
B206
100
AcDbEntity
8
FRAMES
100
AcDbLine
10
12,5
20
6,5
30
6,3
11
12,5
21
6,5
31
9,9
0
LINE
5
B207
100
AcDbEntity
8
FRAMES
100
AcDbLine
10
16,5
20
6,5
30
0
11
16,5
21
6,5
31
2,7
0
LINE
5
B208
100
AcDbEntity
8
FRAMES
100
AcDbLine
10
16,5
20
6,5
30
2,7
11
16,5
21
6,5
31
6,3
0
LINE
5
B209
100
AcDbEntity
8
FRAMES
100
AcDbLine
10
16,5
20
6,5
30
6,3
11
16,5
21
6,5
31
9,9
0
LINE
5
B210
100
AcDbEntity
8
FRAMES
100
AcDbLine
10
22
20
6,5
30
0
11
22
21
6,5
31
2,7
0
LINE
5
B211
100
AcDbEntity
8
FRAMES
100
AcDbLine
10
22
20
6,5
30
2,7
11
22
21
6,5
31
6,3
0
LINE
5
B212
100
AcDbEntity
8
FRAMES
100
AcDbLine
10
22
20
6,5
30
6,3
11
22
21
6,5
31
9,9
0
LINE
5
B213
100
AcDbEntity
8
FRAMES
100
AcDbLine
10
25
20
6,5
30
0
11
25
21
6,5
31
2,7
0
LINE
5
B214
100
AcDbEntity
8
FRAMES
100
AcDbLine
10
25
20
6,5
30
2,7
11
25
21
6,5
31
6,3
0
LINE
5
B215
100
AcDbEntity
8
FRAMES
100
AcDbLine
10
25
20
6,5
30
6,3
11
25
21
6,5
31
9,9
0
LINE
5
B216
100
AcDbEntity
8
FRAMES
100
AcDbLine
10
31
20
6,5
30
0
11
31
21
6,5
31
2,7
0
LINE
5
B217
100
AcDbEntity
8
FRAMES
100
AcDbLine
10
31
20
6,5
30
2,7
11
31
21
6,5
31
6,3
0
LINE
5
B218
100
AcDbEntity
8
FRAMES
100
AcDbLine
10
31
20
6,5
30
6,3
11
31
21
6,5
31
9,9
0
LINE
5
B219
100
AcDbEntity
8
FRAMES
100
AcDbLine
10
-2
20
10,5
30
0
11
-2
21
10,5
31
2,7
0
LINE
5
B220
100
AcDbEntity
8
FRAMES
100
AcDbLine
10
-2
20
10,5
30
2,7
11
-2
21
10,5
31
6,3
0
LINE
5
B221
100
AcDbEntity
8
FRAMES
100
AcDbLine
10
-2
20
10,5
30
6,3
11
-2
21
10,5
31
9,9
0
LINE
5
B222
100
AcDbEntity
8
FRAMES
100
AcDbLine
10
4
20
10,5
30
0
11
4
21
10,5
31
2,7
0
LINE
5
B223
100
AcDbEntity
8
FRAMES
100
AcDbLine
10
4
20
10,5
30
2,7
11
4
21
10,5
31
6,3
0
LINE
5
B224
100
AcDbEntity
8
FRAMES
100
AcDbLine
10
4
20
10,5
30
6,3
11
4
21
10,5
31
9,9
0
LINE
5
B225
100
AcDbEntity
8
FRAMES
100
AcDbLine
10
7
20
10,5
30
0
11
7
21
10,5
31
2,7
0
LINE
5
B226
100
AcDbEntity
8
FRAMES
100
AcDbLine
10
7
20
10,5
30
2,7
11
7
21
10,5
31
6,3
0
LINE
5
B227
100
AcDbEntity
8
FRAMES
100
AcDbLine
10
7
20
10,5
30
6,3
11
7
21
10,5
31
9,9
0
LINE
5
B228
100
AcDbEntity
8
FRAMES
100
AcDbLine
10
12,5
20
10,5
30
0
11
12,5
21
10,5
31
2,7
0
LINE
5
B229
100
AcDbEntity
8
FRAMES
100
AcDbLine
10
12,5
20
10,5
30
2,7
11
12,5
21
10,5
31
6,3
0
LINE
5
B230
100
AcDbEntity
8
FRAMES
100
AcDbLine
10
12,5
20
10,5
30
6,3
11
12,5
21
10,5
31
9,9
0
LINE
5
B231
100
AcDbEntity
8
FRAMES
100
AcDbLine
10
16,5
20
10,5
30
0
11
16,5
21
10,5
31
2,7
0
LINE
5
B232
100
AcDbEntity
8
FRAMES
100
AcDbLine
10
16,5
20
10,5
30
2,7
11
16,5
21
10,5
31
6,3
0
LINE
5
B233
100
AcDbEntity
8
FRAMES
100
AcDbLine
10
16,5
20
10,5
30
6,3
11
16,5
21
10,5
31
9,9
0
LINE
5
B234
100
AcDbEntity
8
FRAMES
100
AcDbLine
10
22
20
10,5
30
0
11
22
21
10,5
31
2,7
0
LINE
5
B235
100
AcDbEntity
8
FRAMES
100
AcDbLine
10
22
20
10,5
30
2,7
11
22
21
10,5
31
6,3
0
LINE
5
B236
100
AcDbEntity
8
FRAMES
100
AcDbLine
10
22
20
10,5
30
6,3
11
22
21
10,5
31
9,9
0
LINE
5
B237
100
AcDbEntity
8
FRAMES
100
AcDbLine
10
25
20
10,5
30
0
11
25
21
10,5
31
2,7
0
LINE
5
B238
100
AcDbEntity
8
FRAMES
100
AcDbLine
10
25
20
10,5
30
2,7
11
25
21
10,5
31
6,3
0
LINE
5
B239
100
AcDbEntity
8
FRAMES
100
AcDbLine
10
25
20
10,5
30
6,3
11
25
21
10,5
31
9,9
0
LINE
5
B240
100
AcDbEntity
8
FRAMES
100
AcDbLine
10
31
20
10,5
30
0
11
31
21
10,5
31
2,7
0
LINE
5
B241
100
AcDbEntity
8
FRAMES
100
AcDbLine
10
31
20
10,5
30
2,7
11
31
21
10,5
31
6,3
0
LINE
5
B242
100
AcDbEntity
8
FRAMES
100
AcDbLine
10
31
20
10,5
30
6,3
11
31
21
10,5
31
9,9
0
LINE
5
B243
100
AcDbEntity
8
FRAMES
100
AcDbLine
10
-2
20
12,5
30
0
11
-2
21
12,5
31
2,7
0
LINE
5
B244
100
AcDbEntity
8
FRAMES
100
AcDbLine
10
-2
20
12,5
30
2,7
11
-2
21
12,5
31
6,3
0
LINE
5
B245
100
AcDbEntity
8
FRAMES
100
AcDbLine
10
-2
20
12,5
30
6,3
11
-2
21
12,5
31
9,9
0
LINE
5
B246
100
AcDbEntity
8
FRAMES
100
AcDbLine
10
4
20
12,5
30
0
11
4
21
12,5
31
2,7
0
LINE
5
B247
100
AcDbEntity
8
FRAMES
100
AcDbLine
10
4
20
12,5
30
2,7
11
4
21
12,5
31
6,3
0
LINE
5
B248
100
AcDbEntity
8
FRAMES
100
AcDbLine
10
4
20
12,5
30
6,3
11
4
21
12,5
31
9,9
0
LINE
5
B249
100
AcDbEntity
8
FRAMES
100
AcDbLine
10
7
20
12,5
30
0
11
7
21
12,5
31
2,7
0
LINE
5
B250
100
AcDbEntity
8
FRAMES
100
AcDbLine
10
7
20
12,5
30
2,7
11
7
21
12,5
31
6,3
0
LINE
5
B251
100
AcDbEntity
8
FRAMES
100
AcDbLine
10
7
20
12,5
30
6,3
11
7
21
12,5
31
9,9
0
LINE
5
B252
100
AcDbEntity
8
FRAMES
100
AcDbLine
10
12,5
20
12,5
30
0
11
12,5
21
12,5
31
2,7
0
LINE
5
B253
100
AcDbEntity
8
FRAMES
100
AcDbLine
10
12,5
20
12,5
30
2,7
11
12,5
21
12,5
31
6,3
0
LINE
5
B254
100
AcDbEntity
8
FRAMES
100
AcDbLine
10
12,5
20
12,5
30
6,3
11
12,5
21
12,5
31
9,9
0
LINE
5
B255
100
AcDbEntity
8
FRAMES
100
AcDbLine
10
16,5
20
12,5
30
0
11
16,5
21
12,5
31
2,7
0
LINE
5
B256
100
AcDbEntity
8
FRAMES
100
AcDbLine
10
16,5
20
12,5
30
2,7
11
16,5
21
12,5
31
6,3
0
LINE
5
B257
100
AcDbEntity
8
FRAMES
100
AcDbLine
10
16,5
20
12,5
30
6,3
11
16,5
21
12,5
31
9,9
0
LINE
5
B258
100
AcDbEntity
8
FRAMES
100
AcDbLine
10
22
20
12,5
30
0
11
22
21
12,5
31
2,7
0
LINE
5
B259
100
AcDbEntity
8
FRAMES
100
AcDbLine
10
22
20
12,5
30
2,7
11
22
21
12,5
31
6,3
0
LINE
5
B260
100
AcDbEntity
8
FRAMES
100
AcDbLine
10
22
20
12,5
30
6,3
11
22
21
12,5
31
9,9
0
LINE
5
B261
100
AcDbEntity
8
FRAMES
100
AcDbLine
10
25
20
12,5
30
0
11
25
21
12,5
31
2,7
0
LINE
5
B262
100
AcDbEntity
8
FRAMES
100
AcDbLine
10
25
20
12,5
30
2,7
11
25
21
12,5
31
6,3
0
LINE
5
B263
100
AcDbEntity
8
FRAMES
100
AcDbLine
10
25
20
12,5
30
6,3
11
25
21
12,5
31
9,9
0
LINE
5
B264
100
AcDbEntity
8
FRAMES
100
AcDbLine
10
31
20
12,5
30
0
11
31
21
12,5
31
2,7
0
LINE
5
B265
100
AcDbEntity
8
FRAMES
100
AcDbLine
10
31
20
12,5
30
2,7
11
31
21
12,5
31
6,3
0
LINE
5
B266
100
AcDbEntity
8
FRAMES
100
AcDbLine
10
31
20
12,5
30
6,3
11
31
21
12,5
31
9,9
0
LINE
5
B267
100
AcDbEntity
8
FRAMES
100
AcDbLine
10
-2
20
16,5
30
0
11
-2
21
16,5
31
2,7
0
LINE
5
B268
100
AcDbEntity
8
FRAMES
100
AcDbLine
10
-2
20
16,5
30
2,7
11
-2
21
16,5
31
6,3
0
LINE
5
B269
100
AcDbEntity
8
FRAMES
100
AcDbLine
10
-2
20
16,5
30
6,3
11
-2
21
16,5
31
9,9
0
LINE
5
B270
100
AcDbEntity
8
FRAMES
100
AcDbLine
10
4
20
16,5
30
0
11
4
21
16,5
31
2,7
0
LINE
5
B271
100
AcDbEntity
8
FRAMES
100
AcDbLine
10
4
20
16,5
30
2,7
11
4
21
16,5
31
6,3
0
LINE
5
B272
100
AcDbEntity
8
FRAMES
100
AcDbLine
10
4
20
16,5
30
6,3
11
4
21
16,5
31
9,9
0
LINE
5
B273
100
AcDbEntity
8
FRAMES
100
AcDbLine
10
7
20
16,5
30
0
11
7
21
16,5
31
2,7
0
LINE
5
B274
100
AcDbEntity
8
FRAMES
100
AcDbLine
10
7
20
16,5
30
2,7
11
7
21
16,5
31
6,3
0
LINE
5
B275
100
AcDbEntity
8
FRAMES
100
AcDbLine
10
7
20
16,5
30
6,3
11
7
21
16,5
31
9,9
0
LINE
5
B276
100
AcDbEntity
8
FRAMES
100
AcDbLine
10
12,5
20
16,5
30
0
11
12,5
21
16,5
31
2,7
0
LINE
5
B277
100
AcDbEntity
8
FRAMES
100
AcDbLine
10
12,5
20
16,5
30
2,7
11
12,5
21
16,5
31
6,3
0
LINE
5
B278
100
AcDbEntity
8
FRAMES
100
AcDbLine
10
12,5
20
16,5
30
6,3
11
12,5
21
16,5
31
9,9
0
LINE
5
B279
100
AcDbEntity
8
FRAMES
100
AcDbLine
10
16,5
20
16,5
30
0
11
16,5
21
16,5
31
2,7
0
LINE
5
B280
100
AcDbEntity
8
FRAMES
100
AcDbLine
10
16,5
20
16,5
30
2,7
11
16,5
21
16,5
31
6,3
0
LINE
5
B281
100
AcDbEntity
8
FRAMES
100
AcDbLine
10
16,5
20
16,5
30
6,3
11
16,5
21
16,5
31
9,9
0
LINE
5
B282
100
AcDbEntity
8
FRAMES
100
AcDbLine
10
22
20
16,5
30
0
11
22
21
16,5
31
2,7
0
LINE
5
B283
100
AcDbEntity
8
FRAMES
100
AcDbLine
10
22
20
16,5
30
2,7
11
22
21
16,5
31
6,3
0
LINE
5
B284
100
AcDbEntity
8
FRAMES
100
AcDbLine
10
22
20
16,5
30
6,3
11
22
21
16,5
31
9,9
0
LINE
5
B285
100
AcDbEntity
8
FRAMES
100
AcDbLine
10
25
20
16,5
30
0
11
25
21
16,5
31
2,7
0
LINE
5
B286
100
AcDbEntity
8
FRAMES
100
AcDbLine
10
25
20
16,5
30
2,7
11
25
21
16,5
31
6,3
0
LINE
5
B287
100
AcDbEntity
8
FRAMES
100
AcDbLine
10
25
20
16,5
30
6,3
11
25
21
16,5
31
9,9
0
LINE
5
B288
100
AcDbEntity
8
FRAMES
100
AcDbLine
10
31
20
16,5
30
0
11
31
21
16,5
31
2,7
0
LINE
5
B289
100
AcDbEntity
8
FRAMES
100
AcDbLine
10
31
20
16,5
30
2,7
11
31
21
16,5
31
6,3
0
LINE
5
B290
100
AcDbEntity
8
FRAMES
100
AcDbLine
10
31
20
16,5
30
6,3
11
31
21
16,5
31
9,9
0
LINE
5
B291
100
AcDbEntity
8
FRAMES
100
AcDbLine
10
12,5
20
6,5
30
6,3
11
12,5
21
4,5
31
6,3
0
LINE
5
B292
100
AcDbEntity
8
FRAMES
100
AcDbLine
10
12,5
20
4,5
30
6,3
11
16,5
21
4,5
31
6,3
0
LINE
5
B293
100
AcDbEntity
8
FRAMES
100
AcDbLine
10
16,5
20
4,5
30
6,3
11
16,5
21
6,5
31
6,3
0
LINE
5
B294
100
AcDbEntity
8
FRAMES
100
AcDbLine
10
12,5
20
4,5
30
6,3
11
12,5
21
2,5
31
6,3
0
LINE
5
B295
100
AcDbEntity
8
FRAMES
100
AcDbLine
10
12,5
20
2,5
30
6,3
11
16,5
21
2,5
31
6,3
0
LINE
5
B296
100
AcDbEntity
8
FRAMES
100
AcDbLine
10
16,5
20
2,5
30
6,3
11
16,5
21
4,5
31
6,3
0
LINE
5
B297
100
AcDbEntity
8
FRAMES
100
AcDbLine
10
10,5
20
6,5
30
6,3
11
10,5
21
4,5
31
6,3
0
LINE
5
B298
100
AcDbEntity
8
FRAMES
100
AcDbLine
10
18,5
20
4,5
30
6,3
11
18,5
21
6,5
31
6,3
0
LINE
5
B299
100
AcDbEntity
8
FRAMES
100
AcDbLine
10
10,5
20
4,5
30
6,3
11
12,5
21
4,5
31
6,3
0
LINE
5
B300
100
AcDbEntity
8
FRAMES
100
AcDbLine
10
16,5
20
4,5
30
6,3
11
18,5
21
4,5
31
6,3
0
LINE
5
B301
100
AcDbEntity
8
FRAMES
100
AcDbLine
10
16,5
20
6,5
30
6,3
11
18,5
21
6,5
31
6,3
0
LINE
5
B302
100
AcDbEntity
8
FRAMES
100
AcDbLine
10
18,5
20
6,5
30
6,3
11
22
21
6,5
31
6,3
0
LINE
5
B303
100
AcDbEntity
8
FRAMES
100
AcDbLine
10
7
20
6,5
30
6,3
11
10,5
21
6,5
31
6,3
0
LINE
5
B304
100
AcDbEntity
8
FRAMES
100
AcDbLine
10
10,5
20
6,5
30
6,3
11
12,5
21
6,5
31
6,3
0
LINE
5
B305
100
AcDbEntity
8
FRAMES
100
AcDbLine
10
-2
20
2,5
30
9,9
11
4
21
2,5
31
9,9
0
LINE
5
B306
100
AcDbEntity
8
FRAMES
100
AcDbLine
10
25
20
2,5
30
9,9
11
31
21
2,5
31
9,9
0
LINE
5
B307
100
AcDbEntity
8
FRAMES
100
AcDbLine
10
4
20
2,5
30
9,9
11
4
21
6,5
31
9,9
0
LINE
5
B308
100
AcDbEntity
8
FRAMES
100
AcDbLine
10
4
20
6,5
30
9,9
11
7
21
6,5
31
9,9
0
LINE
5
B309
100
AcDbEntity
8
FRAMES
100
AcDbLine
10
7
20
6,5
30
9,9
11
12,5
21
6,5
31
9,9
0
LINE
5
B310
100
AcDbEntity
8
FRAMES
100
AcDbLine
10
12,5
20
6,5
30
9,9
11
16,5
21
6,5
31
9,9
0
LINE
5
B311
100
AcDbEntity
8
FRAMES
100
AcDbLine
10
16,5
20
6,5
30
9,9
11
22
21
6,5
31
9,9
0
LINE
5
B312
100
AcDbEntity
8
FRAMES
100
AcDbLine
10
22
20
6,5
30
9,9
11
25
21
6,5
31
9,9
0
LINE
5
B313
100
AcDbEntity
8
FRAMES
100
AcDbLine
10
25
20
6,5
30
9,9
11
25
21
2,5
31
9,9
0
LINE
5
B314
100
AcDbEntity
8
FRAMES
100
AcDbLine
10
31
20
2,5
30
9,9
11
31
21
6,5
31
9,9
0
LINE
5
B315
100
AcDbEntity
8
FRAMES
100
AcDbLine
10
31
20
6,5
30
9,9
11
31
21
10,5
31
9,9
0
LINE
5
B316
100
AcDbEntity
8
FRAMES
100
AcDbLine
10
31
20
10,5
30
9,9
11
31
21
12,5
31
9,9
0
LINE
5
B317
100
AcDbEntity
8
FRAMES
100
AcDbLine
10
31
20
12,5
30
9,9
11
31
21
16,5
31
9,9
0
LINE
5
B318
100
AcDbEntity
8
FRAMES
100
AcDbLine
10
31
20
16,5
30
9,9
11
25
21
16,5
31
9,9
0
LINE
5
B319
100
AcDbEntity
8
FRAMES
100
AcDbLine
10
25
20
16,5
30
9,9
11
22
21
16,5
31
9,9
0
LINE
5
B320
100
AcDbEntity
8
FRAMES
100
AcDbLine
10
22
20
16,5
30
9,9
11
16,5
21
16,5
31
9,9
0
LINE
5
B321
100
AcDbEntity
8
FRAMES
100
AcDbLine
10
16,5
20
16,5
30
9,9
11
12,5
21
16,5
31
9,9
0
LINE
5
B322
100
AcDbEntity
8
FRAMES
100
AcDbLine
10
12,5
20
16,5
30
9,9
11
7
21
16,5
31
9,9
0
LINE
5
B323
100
AcDbEntity
8
FRAMES
100
AcDbLine
10
7
20
16,5
30
9,9
11
4
21
16,5
31
9,9
0
LINE
5
B324
100
AcDbEntity
8
FRAMES
100
AcDbLine
10
4
20
16,5
30
9,9
11
-2
21
16,5
31
9,9
0
LINE
5
B325
100
AcDbEntity
8
FRAMES
100
AcDbLine
10
-2
20
16,5
30
9,9
11
-2
21
12,5
31
9,9
0
LINE
5
B326
100
AcDbEntity
8
FRAMES
100
AcDbLine
10
-2
20
12,5
30
9,9
11
-2
21
10,5
31
9,9
0
LINE
5
B327
100
AcDbEntity
8
FRAMES
100
AcDbLine
10
-2
20
10,5
30
9,9
11
-2
21
6,5
31
9,9
0
LINE
5
B328
100
AcDbEntity
8
FRAMES
100
AcDbLine
10
-2
20
6,5
30
9,9
11
-2
21
2,5
31
9,9
0
LINE
5
B329
100
AcDbEntity
8
FRAMES
100
AcDbLine
10
-2
20
12,5
30
9,9
11
4
21
12,5
31
9,9
0
LINE
5
B330
100
AcDbEntity
8
FRAMES
100
AcDbLine
10
4
20
12,5
30
9,9
11
7
21
12,5
31
9,9
0
LINE
5
B331
100
AcDbEntity
8
FRAMES
100
AcDbLine
10
7
20
12,5
30
9,9
11
12,5
21
12,5
31
9,9
0
LINE
5
B332
100
AcDbEntity
8
FRAMES
100
AcDbLine
10
12,5
20
12,5
30
9,9
11
16,5
21
12,5
31
9,9
0
LINE
5
B333
100
AcDbEntity
8
FRAMES
100
AcDbLine
10
16,5
20
12,5
30
9,9
11
22
21
12,5
31
9,9
0
LINE
5
B334
100
AcDbEntity
8
FRAMES
100
AcDbLine
10
22
20
12,5
30
9,9
11
25
21
12,5
31
9,9
0
LINE
5
B335
100
AcDbEntity
8
FRAMES
100
AcDbLine
10
25
20
12,5
30
9,9
11
31
21
12,5
31
9,9
0
LINE
5
B336
100
AcDbEntity
8
FRAMES
100
AcDbLine
10
-2
20
10,5
30
9,9
11
4
21
10,5
31
9,9
0
LINE
5
B337
100
AcDbEntity
8
FRAMES
100
AcDbLine
10
4
20
10,5
30
9,9
11
7
21
10,5
31
9,9
0
LINE
5
B338
100
AcDbEntity
8
FRAMES
100
AcDbLine
10
7
20
10,5
30
9,9
11
12,5
21
10,5
31
9,9
0
LINE
5
B339
100
AcDbEntity
8
FRAMES
100
AcDbLine
10
12,5
20
10,5
30
9,9
11
16,5
21
10,5
31
9,9
0
LINE
5
B340
100
AcDbEntity
8
FRAMES
100
AcDbLine
10
16,5
20
10,5
30
9,9
11
22
21
10,5
31
9,9
0
LINE
5
B341
100
AcDbEntity
8
FRAMES
100
AcDbLine
10
22
20
10,5
30
9,9
11
25
21
10,5
31
9,9
0
LINE
5
B342
100
AcDbEntity
8
FRAMES
100
AcDbLine
10
25
20
10,5
30
9,9
11
31
21
10,5
31
9,9
0
LINE
5
B343
100
AcDbEntity
8
FRAMES
100
AcDbLine
10
25
20
6,5
30
9,9
11
31
21
6,5
31
9,9
0
LINE
5
B344
100
AcDbEntity
8
FRAMES
100
AcDbLine
10
-2
20
6,5
30
9,9
11
4
21
6,5
31
9,9
0
LINE
5
B345
100
AcDbEntity
8
FRAMES
100
AcDbLine
10
4
20
16,5
30
9,9
11
4
21
12,5
31
9,9
0
LINE
5
B346
100
AcDbEntity
8
FRAMES
100
AcDbLine
10
4
20
12,5
30
9,9
11
4
21
10,5
31
9,9
0
LINE
5
B347
100
AcDbEntity
8
FRAMES
100
AcDbLine
10
4
20
10,5
30
9,9
11
4
21
6,5
31
9,9
0
LINE
5
B348
100
AcDbEntity
8
FRAMES
100
AcDbLine
10
7
20
16,5
30
9,9
11
7
21
12,5
31
9,9
0
LINE
5
B349
100
AcDbEntity
8
FRAMES
100
AcDbLine
10
7
20
12,5
30
9,9
11
7
21
10,5
31
9,9
0
LINE
5
B350
100
AcDbEntity
8
FRAMES
100
AcDbLine
10
7
20
10,5
30
9,9
11
7
21
6,5
31
9,9
0
LINE
5
B351
100
AcDbEntity
8
FRAMES
100
AcDbLine
10
12,5
20
16,5
30
9,9
11
12,5
21
12,5
31
9,9
0
LINE
5
B352
100
AcDbEntity
8
FRAMES
100
AcDbLine
10
12,5
20
12,5
30
9,9
11
12,5
21
10,5
31
9,9
0
LINE
5
B353
100
AcDbEntity
8
FRAMES
100
AcDbLine
10
12,5
20
10,5
30
9,9
11
12,5
21
6,5
31
9,9
0
LINE
5
B354
100
AcDbEntity
8
FRAMES
100
AcDbLine
10
16,5
20
16,5
30
9,9
11
16,5
21
12,5
31
9,9
0
LINE
5
B355
100
AcDbEntity
8
FRAMES
100
AcDbLine
10
16,5
20
12,5
30
9,9
11
16,5
21
10,5
31
9,9
0
LINE
5
B356
100
AcDbEntity
8
FRAMES
100
AcDbLine
10
16,5
20
10,5
30
9,9
11
16,5
21
6,5
31
9,9
0
LINE
5
B357
100
AcDbEntity
8
FRAMES
100
AcDbLine
10
22
20
16,5
30
9,9
11
22
21
12,5
31
9,9
0
LINE
5
B358
100
AcDbEntity
8
FRAMES
100
AcDbLine
10
22
20
12,5
30
9,9
11
22
21
10,5
31
9,9
0
LINE
5
B359
100
AcDbEntity
8
FRAMES
100
AcDbLine
10
22
20
10,5
30
9,9
11
22
21
6,5
31
9,9
0
LINE
5
B360
100
AcDbEntity
8
FRAMES
100
AcDbLine
10
25
20
16,5
30
9,9
11
25
21
12,5
31
9,9
0
LINE
5
B361
100
AcDbEntity
8
FRAMES
100
AcDbLine
10
25
20
12,5
30
9,9
11
25
21
10,5
31
9,9
0
LINE
5
B362
100
AcDbEntity
8
FRAMES
100
AcDbLine
10
25
20
10,5
30
9,9
11
25
21
6,5
31
9,9
0
LINE
5
B363
100
AcDbEntity
8
FRAMES
100
AcDbLine
10
3
20
11,5
30
13,2
11
26
21
11,5
31
13,2
0
LINE
5
B364
100
AcDbEntity
8
FRAMES
100
AcDbLine
10
1
20
5,5
30
12,2
11
-2
21
2,5
31
9,9
0
LINE
5
B365
100
AcDbEntity
8
FRAMES
100
AcDbLine
10
4
20
2,5
30
9,9
11
1
21
5,5
31
12,2
0
LINE
5
B366
100
AcDbEntity
8
FRAMES
100
AcDbLine
10
25
20
2,5
30
9,9
11
28
21
5,5
31
12,2
0
LINE
5
B367
100
AcDbEntity
8
FRAMES
100
AcDbLine
10
28
20
5,5
30
12,2
11
31
21
2,5
31
9,9
0
LINE
5
B368
100
AcDbEntity
8
FRAMES
100
AcDbLine
10
1
20
5,5
30
12,2
11
1
21
9,5
31
12,2
0
LINE
5
B369
100
AcDbEntity
8
FRAMES
100
AcDbLine
10
28
20
9,5
30
12,2
11
28
21
5,5
31
12,2
0
LINE
5
B370
100
AcDbEntity
8
FRAMES
100
AcDbLine
10
1
20
9,5
30
12,2
11
3
21
11,5
31
13,2
0
LINE
5
B371
100
AcDbEntity
8
FRAMES
100
AcDbLine
10
28
20
9,5
30
12,2
11
26
21
11,5
31
13,2
0
LINE
5
B372
100
AcDbEntity
8
FRAMES
100
AcDbLine
10
-2
20
16,5
30
9,9
11
1
21
13,5
31
12,2
0
LINE
5
B373
100
AcDbEntity
8
FRAMES
100
AcDbLine
10
1
20
13,5
30
12,2
11
3
21
11,5
31
13,2
0
LINE
5
B374
100
AcDbEntity
8
FRAMES
100
AcDbLine
10
31
20
16,5
30
9,9
11
28
21
13,5
31
12,2
0
LINE
5
B375
100
AcDbEntity
8
FRAMES
100
AcDbLine
10
28
20
13,5
30
12,2
11
26
21
11,5
31
13,2
0
LINE
5
B376
100
AcDbEntity
8
FRAMES
100
AcDbLine
10
1
20
9,5
30
12,2
11
4
21
9,5
31
12,2
0
LINE
5
B377
100
AcDbEntity
8
FRAMES
100
AcDbLine
10
4
20
9,5
30
12,2
11
7
21
9,5
31
12,2
0
LINE
5
B378
100
AcDbEntity
8
FRAMES
100
AcDbLine
10
7
20
9,5
30
12,2
11
12,5
21
9,5
31
12,2
0
LINE
5
B379
100
AcDbEntity
8
FRAMES
100
AcDbLine
10
12,5
20
9,5
30
12,2
11
16,5
21
9,5
31
12,2
0
LINE
5
B380
100
AcDbEntity
8
FRAMES
100
AcDbLine
10
16,5
20
9,5
30
12,2
11
22
21
9,5
31
12,2
0
LINE
5
B381
100
AcDbEntity
8
FRAMES
100
AcDbLine
10
22
20
9,5
30
12,2
11
25
21
9,5
31
12,2
0
LINE
5
B382
100
AcDbEntity
8
FRAMES
100
AcDbLine
10
25
20
9,5
30
12,2
11
28
21
9,5
31
12,2
0
LINE
5
B383
100
AcDbEntity
8
FRAMES
100
AcDbLine
10
28
20
13,5
30
12,2
11
25
21
13,5
31
12,2
0
LINE
5
B384
100
AcDbEntity
8
FRAMES
100
AcDbLine
10
25
20
13,5
30
12,2
11
22
21
13,5
31
12,2
0
LINE
5
B385
100
AcDbEntity
8
FRAMES
100
AcDbLine
10
22
20
13,5
30
12,2
11
16,5
21
13,5
31
12,2
0
LINE
5
B386
100
AcDbEntity
8
FRAMES
100
AcDbLine
10
16,5
20
13,5
30
12,2
11
12,5
21
13,5
31
12,2
0
LINE
5
B387
100
AcDbEntity
8
FRAMES
100
AcDbLine
10
12,5
20
13,5
30
12,2
11
7
21
13,5
31
12,2
0
LINE
5
B388
100
AcDbEntity
8
FRAMES
100
AcDbLine
10
7
20
13,5
30
12,2
11
4
21
13,5
31
12,2
0
LINE
5
B389
100
AcDbEntity
8
FRAMES
100
AcDbLine
10
4
20
13,5
30
12,2
11
1
21
13,5
31
12,2
0
LINE
5
B390
100
AcDbEntity
8
FRAMES
100
AcDbLine
10
1
20
9,5
30
12,2
11
1
21
11,5
31
12,2
0
LINE
5
B391
100
AcDbEntity
8
FRAMES
100
AcDbLine
10
1
20
11,5
30
12,2
11
1
21
13,5
31
12,2
0
LINE
5
B392
100
AcDbEntity
8
FRAMES
100
AcDbLine
10
28
20
9,5
30
12,2
11
28
21
11,5
31
12,2
0
LINE
5
B393
100
AcDbEntity
8
FRAMES
100
AcDbLine
10
28
20
11,5
30
12,2
11
28
21
13,5
31
12,2
0
LINE
5
B394
100
AcDbEntity
8
FRAMES
100
AcDbLine
10
4
20
13,5
30
12,2
11
4
21
11,5
31
12,2
0
LINE
5
B395
100
AcDbEntity
8
FRAMES
100
AcDbLine
10
4
20
11,5
30
12,2
11
4
21
9,5
31
12,2
0
LINE
5
B396
100
AcDbEntity
8
FRAMES
100
AcDbLine
10
7
20
13,5
30
12,2
11
7
21
11,5
31
12,2
0
LINE
5
B397
100
AcDbEntity
8
FRAMES
100
AcDbLine
10
7
20
11,5
30
12,2
11
7
21
9,5
31
12,2
0
LINE
5
B398
100
AcDbEntity
8
FRAMES
100
AcDbLine
10
12,5
20
13,5
30
12,2
11
12,5
21
11,5
31
12,2
0
LINE
5
B399
100
AcDbEntity
8
FRAMES
100
AcDbLine
10
12,5
20
11,5
30
12,2
11
12,5
21
9,5
31
12,2
0
LINE
5
B400
100
AcDbEntity
8
FRAMES
100
AcDbLine
10
16,5
20
13,5
30
12,2
11
16,5
21
11,5
31
12,2
0
LINE
5
B401
100
AcDbEntity
8
FRAMES
100
AcDbLine
10
16,5
20
11,5
30
12,2
11
16,5
21
9,5
31
12,2
0
LINE
5
B402
100
AcDbEntity
8
FRAMES
100
AcDbLine
10
22
20
13,5
30
12,2
11
22
21
11,5
31
12,2
0
LINE
5
B403
100
AcDbEntity
8
FRAMES
100
AcDbLine
10
22
20
11,5
30
12,2
11
22
21
9,5
31
12,2
0
LINE
5
B404
100
AcDbEntity
8
FRAMES
100
AcDbLine
10
25
20
13,5
30
12,2
11
25
21
11,5
31
12,2
0
LINE
5
B405
100
AcDbEntity
8
FRAMES
100
AcDbLine
10
25
20
11,5
30
12,2
11
25
21
9,5
31
12,2
0
LINE
5
B406
100
AcDbEntity
8
FRAMES
100
AcDbLine
10
25
20
13,5
30
12,2
11
25
21
16,5
31
9,9
0
LINE
5
B407
100
AcDbEntity
8
FRAMES
100
AcDbLine
10
22
20
13,5
30
12,2
11
22
21
16,5
31
9,9
0
LINE
5
B408
100
AcDbEntity
8
FRAMES
100
AcDbLine
10
16,5
20
13,5
30
12,2
11
16,5
21
16,5
31
9,9
0
LINE
5
B409
100
AcDbEntity
8
FRAMES
100
AcDbLine
10
12,5
20
16,5
30
9,9
11
12,5
21
13,5
31
12,2
0
LINE
5
B410
100
AcDbEntity
8
FRAMES
100
AcDbLine
10
4
20
13,5
30
12,2
11
4
21
16,5
31
9,9
0
LINE
5
B411
100
AcDbEntity
8
FRAMES
100
AcDbLine
10
25
20
13,5
30
12,2
11
25
21
11,5
31
13,2
0
LINE
5
B412
100
AcDbEntity
8
FRAMES
100
AcDbLine
10
22
20
13,5
30
12,2
11
22
21
11,5
31
13,2
0
LINE
5
B413
100
AcDbEntity
8
FRAMES
100
AcDbLine
10
22
20
11,5
30
13,2
11
22
21
9,5
31
12,2
0
LINE
5
B414
100
AcDbEntity
8
FRAMES
100
AcDbLine
10
25
20
11,5
30
13,2
11
25
21
9,5
31
12,2
0
LINE
5
B415
100
AcDbEntity
8
FRAMES
100
AcDbLine
10
16,5
20
9,5
30
12,2
11
16,5
21
11,5
31
13,2
0
LINE
5
B416
100
AcDbEntity
8
FRAMES
100
AcDbLine
10
16,5
20
11,5
30
13,2
11
16,5
21
13,5
31
12,2
0
LINE
5
B417
100
AcDbEntity
8
FRAMES
100
AcDbLine
10
12,5
20
9,5
30
12,2
11
12,5
21
11,5
31
13,2
0
LINE
5
B418
100
AcDbEntity
8
FRAMES
100
AcDbLine
10
12,5
20
11,5
30
13,2
11
12,5
21
13,5
31
12,2
0
LINE
5
B419
100
AcDbEntity
8
FRAMES
100
AcDbLine
10
7
20
9,5
30
12,2
11
7
21
11,5
31
13,2
0
LINE
5
B420
100
AcDbEntity
8
FRAMES
100
AcDbLine
10
7
20
11,5
30
13,2
11
7
21
13,5
31
12,2
0
LINE
5
B421
100
AcDbEntity
8
FRAMES
100
AcDbLine
10
7
20
13,5
30
12,2
11
7
21
16,5
31
9,9
0
LINE
5
B422
100
AcDbEntity
8
FRAMES
100
AcDbLine
10
4
20
9,5
30
12,2
11
4
21
11,5
31
13,2
0
LINE
5
B423
100
AcDbEntity
8
FRAMES
100
AcDbLine
10
4
20
11,5
30
13,2
11
4
21
13,5
31
12,2
0
LINE
5
B424
100
AcDbEntity
8
FRAMES
100
AcDbLine
10
4
20
6,5
30
9,9
11
1
21
9,5
31
12,2
0
LINE
5
B425
100
AcDbEntity
8
FRAMES
100
AcDbLine
10
4
20
6,5
30
9,9
11
4
21
9,5
31
12,2
0
LINE
5
B426
100
AcDbEntity
8
FRAMES
100
AcDbLine
10
7
20
9,5
30
12,2
11
7
21
6,5
31
9,9
0
LINE
5
B427
100
AcDbEntity
8
FRAMES
100
AcDbLine
10
12,5
20
9,5
30
12,2
11
12,5
21
6,5
31
9,9
0
LINE
5
B428
100
AcDbEntity
8
FRAMES
100
AcDbLine
10
22
20
6,5
30
9,9
11
22
21
9,5
31
12,2
0
LINE
5
B429
100
AcDbEntity
8
FRAMES
100
AcDbLine
10
25
20
6,5
30
9,9
11
28
21
9,5
31
12,2
0
LINE
5
B430
100
AcDbEntity
8
FRAMES
100
AcDbLine
10
25
20
6,5
30
9,9
11
25
21
9,5
31
12,2
0
LINE
5
B431
100
AcDbEntity
8
FRAMES
100
AcDbLine
10
4
20
11,5
30
13,2
11
4
21
11,5
31
9,9
0
LINE
5
B432
100
AcDbEntity
8
FRAMES
100
AcDbLine
10
7
20
11,5
30
13,2
11
7
21
11,5
31
12,2
0
LINE
5
B433
100
AcDbEntity
8
FRAMES
100
AcDbLine
10
12,5
20
11,5
30
13,2
11
12,5
21
11,5
31
12,2
0
LINE
5
B434
100
AcDbEntity
8
FRAMES
100
AcDbLine
10
12,5
20
11,5
30
12,2
11
12,5
21
11,5
31
9,9
0
LINE
5
B435
100
AcDbEntity
8
FRAMES
100
AcDbLine
10
7
20
11,5
30
9,9
11
7
21
11,5
31
12,2
0
LINE
5
B436
100
AcDbEntity
8
FRAMES
100
AcDbLine
10
16,5
20
11,5
30
9,9
11
16,5
21
11,5
31
12,2
0
LINE
5
B437
100
AcDbEntity
8
FRAMES
100
AcDbLine
10
16,5
20
11,5
30
12,2
11
16,5
21
11,5
31
13,2
0
LINE
5
B438
100
AcDbEntity
8
FRAMES
100
AcDbLine
10
22
20
11,5
30
9,9
11
22
21
11,5
31
12,2
0
LINE
5
B439
100
AcDbEntity
8
FRAMES
100
AcDbLine
10
22
20
11,5
30
12,2
11
22
21
11,5
31
13,2
0
LINE
5
B440
100
AcDbEntity
8
FRAMES
100
AcDbLine
10
25
20
11,5
30
9,9
11
25
21
11,5
31
12,2
0
LINE
5
B441
100
AcDbEntity
8
FRAMES
100
AcDbLine
10
25
20
11,5
30
12,2
11
25
21
11,5
31
13,2
0
LINE
5
B442
100
AcDbEntity
8
FRAMES
100
AcDbLine
10
16,5
20
6,5
30
9,9
11
16,5
21
9,5
31
12,2
0
LINE
5
B443
100
AcDbEntity
8
FRAMES
100
AcDbLine
10
1
20
5,5
30
12,2
11
4
21
6,5
31
9,9
0
LINE
5
B444
100
AcDbEntity
8
FRAMES
100
AcDbLine
10
1
20
5,5
30
12,2
11
-2
21
6,5
31
9,9
0
LINE
5
B445
100
AcDbEntity
8
FRAMES
100
AcDbLine
10
1
20
11,5
30
12,2
11
-2
21
12,5
31
9,9
0
LINE
5
B446
100
AcDbEntity
8
FRAMES
100
AcDbLine
10
-2
20
10,5
30
9,9
11
1
21
9,5
31
12,2
0
LINE
5
B447
100
AcDbEntity
8
FRAMES
100
AcDbLine
10
1
20
11,5
30
12,2
11
3
21
11,5
31
13,2
0
LINE
5
B448
100
AcDbEntity
8
FRAMES
100
AcDbLine
10
26
20
11,5
30
13,2
11
28
21
11,5
31
12,2
0
LINE
5
B449
100
AcDbEntity
8
FRAMES
100
AcDbLine
10
28
20
11,5
30
12,2
11
31
21
10,5
31
9,9
0
LINE
5
B450
100
AcDbEntity
8
FRAMES
100
AcDbLine
10
31
20
12,5
30
9,9
11
28
21
13,5
31
12,2
0
LINE
5
B451
100
AcDbEntity
8
FRAMES
100
AcDbLine
10
28
20
9,5
30
12,2
11
31
21
6,5
31
9,9
0
LINE
5
B452
100
AcDbEntity
8
FRAMES
100
AcDbLine
10
28
20
13,5
30
12,2
11
25
21
16,5
31
9,9
0
LINE
5
B453
100
AcDbEntity
8
FRAMES
100
AcDbLine
10
4
20
16,5
30
9,9
11
1
21
13,5
31
12,2
0
LINE
5
B454
100
AcDbEntity
8
FRAMES
100
AcDbLine
10
9,8
20
6,5
30
2,7
11
9,8
21
4,5
31
2,7
0
LINE
5
B455
100
AcDbEntity
8
FRAMES
100
AcDbLine
10
9,8
20
4,5
30
2,7
11
12,5
21
4,5
31
2,7
0
LINE
5
B456
100
AcDbEntity
8
FRAMES
100
AcDbLine
10
12,5
20
4,5
30
2,7
11
16,5
21
4,5
31
2,7
0
LINE
5
B457
100
AcDbEntity
8
FRAMES
100
AcDbLine
10
16,5
20
4,5
30
2,7
11
19,2
21
4,5
31
2,7
0
LINE
5
B458
100
AcDbEntity
8
FRAMES
100
AcDbLine
10
19,2
20
4,5
30
2,7
11
19,2
21
6,5
31
2,7
0
LINE
5
B459
100
AcDbEntity
8
FRAMES
100
AcDbLine
10
12,5
20
1,6
30
1,5
11
16,5
21
1,6
31
1,5
0
LINE
5
B460
100
AcDbEntity
8
FRAMES
100
AcDbLine
10
12,5
20
-2
30
0
11
16,5
21
-2
31
0
0
LINE
5
B461
100
AcDbEntity
8
FRAMES
100
AcDbLine
10
12,5
20
6,5
30
2,7
11
12,5
21
4,5
31
2,7
0
LINE
5
B462
100
AcDbEntity
8
FRAMES
100
AcDbLine
10
16,5
20
6,5
30
2,7
11
16,5
21
4,5
31
2,7
0
LINE
5
B463
100
AcDbEntity
8
FRAMES
100
AcDbLine
10
12,5
20
1,6
30
0
11
12,5
21
1,6
31
1,5
0
LINE
5
B464
100
AcDbEntity
8
FRAMES
100
AcDbLine
10
12,5
20
1,6
30
1,5
11
12,5
21
1,6
31
6,3
0
LINE
5
B465
100
AcDbEntity
8
FRAMES
100
AcDbLine
10
16,5
20
1,6
30
0
11
16,5
21
1,6
31
1,5
0
LINE
5
B466
100
AcDbEntity
8
FRAMES
100
AcDbLine
10
16,5
20
1,6
30
1,5
11
16,5
21
1,6
31
6,3
0
LINE
5
B467
100
AcDbEntity
8
FRAMES
100
AcDbLine
10
-2
20
2,5
30
0
11
-2
21
2,5
31
2,7
0
LINE
5
B468
100
AcDbEntity
8
FRAMES
100
AcDbLine
10
-2
20
2,5
30
2,7
11
-2
21
2,5
31
6,3
0
LINE
5
B469
100
AcDbEntity
8
FRAMES
100
AcDbLine
10
-2
20
2,5
30
6,3
11
-2
21
2,5
31
9,9
0
POINT
5
B470
100
AcDbEntity
8
JOINTS
100
AcDbPoint
10
-2
20
16,5
30
2,7
0
POINT
5
B471
100
AcDbEntity
8
JOINTS
100
AcDbPoint
10
4
20
16,5
30
2,7
0
POINT
5
B472
100
AcDbEntity
8
JOINTS
100
AcDbPoint
10
7
20
16,5
30
2,7
0
POINT
5
B473
100
AcDbEntity
8
JOINTS
100
AcDbPoint
10
12,5
20
16,5
30
2,7
0
POINT
5
B474
100
AcDbEntity
8
JOINTS
100
AcDbPoint
10
16,5
20
16,5
30
2,7
0
POINT
5
B475
100
AcDbEntity
8
JOINTS
100
AcDbPoint
10
22
20
16,5
30
2,7
0
POINT
5
B476
100
AcDbEntity
8
JOINTS
100
AcDbPoint
10
25
20
16,5
30
2,7
0
POINT
5
B477
100
AcDbEntity
8
JOINTS
100
AcDbPoint
10
31
20
16,5
30
2,7
0
POINT
5
B478
100
AcDbEntity
8
JOINTS
100
AcDbPoint
10
25
20
12,5
30
2,7
0
POINT
5
B479
100
AcDbEntity
8
JOINTS
100
AcDbPoint
10
31
20
12,5
30
2,7
0
POINT
5
B480
100
AcDbEntity
8
JOINTS
100
AcDbPoint
10
22
20
12,5
30
2,7
0
POINT
5
B481
100
AcDbEntity
8
JOINTS
100
AcDbPoint
10
16,5
20
12,5
30
2,7
0
POINT
5
B482
100
AcDbEntity
8
JOINTS
100
AcDbPoint
10
12,5
20
12,5
30
2,7
0
POINT
5
B483
100
AcDbEntity
8
JOINTS
100
AcDbPoint
10
7
20
12,5
30
2,7
0
POINT
5
B484
100
AcDbEntity
8
JOINTS
100
AcDbPoint
10
4
20
12,5
30
2,7
0
POINT
5
B485
100
AcDbEntity
8
JOINTS
100
AcDbPoint
10
-2
20
12,5
30
2,7
0
POINT
5
B486
100
AcDbEntity
8
JOINTS
100
AcDbPoint
10
31
20
10,5
30
2,7
0
POINT
5
B487
100
AcDbEntity
8
JOINTS
100
AcDbPoint
10
31
20
6,5
30
2,7
0
POINT
5
B488
100
AcDbEntity
8
JOINTS
100
AcDbPoint
10
31
20
2,5
30
2,7
0
POINT
5
B489
100
AcDbEntity
8
JOINTS
100
AcDbPoint
10
25
20
2,5
30
2,7
0
POINT
5
B490
100
AcDbEntity
8
JOINTS
100
AcDbPoint
10
22
20
6,5
30
2,7
0
POINT
5
B491
100
AcDbEntity
8
JOINTS
100
AcDbPoint
10
16,5
20
6,5
30
2,7
0
POINT
5
B492
100
AcDbEntity
8
JOINTS
100
AcDbPoint
10
7
20
6,5
30
2,7
0
POINT
5
B493
100
AcDbEntity
8
JOINTS
100
AcDbPoint
10
12,5
20
6,5
30
2,7
0
POINT
5
B494
100
AcDbEntity
8
JOINTS
100
AcDbPoint
10
4
20
6,5
30
2,7
0
POINT
5
B495
100
AcDbEntity
8
JOINTS
100
AcDbPoint
10
4
20
2,5
30
2,7
0
POINT
5
B496
100
AcDbEntity
8
JOINTS
100
AcDbPoint
10
-2
20
2,5
30
2,7
0
POINT
5
B497
100
AcDbEntity
8
JOINTS
100
AcDbPoint
10
-2
20
6,5
30
2,7
0
POINT
5
B498
100
AcDbEntity
8
JOINTS
100
AcDbPoint
10
-2
20
10,5
30
2,7
0
POINT
5
B499
100
AcDbEntity
8
JOINTS
100
AcDbPoint
10
4
20
10,5
30
2,7
0
POINT
5
B500
100
AcDbEntity
8
JOINTS
100
AcDbPoint
10
7
20
10,5
30
2,7
0
POINT
5
B501
100
AcDbEntity
8
JOINTS
100
AcDbPoint
10
12,5
20
10,5
30
2,7
0
POINT
5
B502
100
AcDbEntity
8
JOINTS
100
AcDbPoint
10
16,5
20
10,5
30
2,7
0
POINT
5
B503
100
AcDbEntity
8
JOINTS
100
AcDbPoint
10
22
20
10,5
30
2,7
0
POINT
5
B504
100
AcDbEntity
8
JOINTS
100
AcDbPoint
10
25
20
10,5
30
2,7
0
POINT
5
B505
100
AcDbEntity
8
JOINTS
100
AcDbPoint
10
25
20
6,5
30
2,7
0
POINT
5
B506
100
AcDbEntity
8
JOINTS
100
AcDbPoint
10
-2
20
16,5
30
6,3
0
POINT
5
B507
100
AcDbEntity
8
JOINTS
100
AcDbPoint
10
4
20
16,5
30
6,3
0
POINT
5
B508
100
AcDbEntity
8
JOINTS
100
AcDbPoint
10
7
20
16,5
30
6,3
0
POINT
5
B509
100
AcDbEntity
8
JOINTS
100
AcDbPoint
10
12,5
20
16,5
30
6,3
0
POINT
5
B510
100
AcDbEntity
8
JOINTS
100
AcDbPoint
10
16,5
20
16,5
30
6,3
0
POINT
5
B511
100
AcDbEntity
8
JOINTS
100
AcDbPoint
10
22
20
16,5
30
6,3
0
POINT
5
B512
100
AcDbEntity
8
JOINTS
100
AcDbPoint
10
25
20
16,5
30
6,3
0
POINT
5
B513
100
AcDbEntity
8
JOINTS
100
AcDbPoint
10
31
20
16,5
30
6,3
0
POINT
5
B514
100
AcDbEntity
8
JOINTS
100
AcDbPoint
10
25
20
12,5
30
6,3
0
POINT
5
B515
100
AcDbEntity
8
JOINTS
100
AcDbPoint
10
31
20
12,5
30
6,3
0
POINT
5
B516
100
AcDbEntity
8
JOINTS
100
AcDbPoint
10
22
20
12,5
30
6,3
0
POINT
5
B517
100
AcDbEntity
8
JOINTS
100
AcDbPoint
10
16,5
20
12,5
30
6,3
0
POINT
5
B518
100
AcDbEntity
8
JOINTS
100
AcDbPoint
10
12,5
20
12,5
30
6,3
0
POINT
5
B519
100
AcDbEntity
8
JOINTS
100
AcDbPoint
10
7
20
12,5
30
6,3
0
POINT
5
B520
100
AcDbEntity
8
JOINTS
100
AcDbPoint
10
4
20
12,5
30
6,3
0
POINT
5
B521
100
AcDbEntity
8
JOINTS
100
AcDbPoint
10
-2
20
12,5
30
6,3
0
POINT
5
B522
100
AcDbEntity
8
JOINTS
100
AcDbPoint
10
31
20
10,5
30
6,3
0
POINT
5
B523
100
AcDbEntity
8
JOINTS
100
AcDbPoint
10
31
20
6,5
30
6,3
0
POINT
5
B524
100
AcDbEntity
8
JOINTS
100
AcDbPoint
10
31
20
2,5
30
6,3
0
POINT
5
B525
100
AcDbEntity
8
JOINTS
100
AcDbPoint
10
25
20
2,5
30
6,3
0
POINT
5
B526
100
AcDbEntity
8
JOINTS
100
AcDbPoint
10
22
20
6,5
30
6,3
0
POINT
5
B527
100
AcDbEntity
8
JOINTS
100
AcDbPoint
10
16,5
20
6,5
30
6,3
0
POINT
5
B528
100
AcDbEntity
8
JOINTS
100
AcDbPoint
10
7
20
6,5
30
6,3
0
POINT
5
B529
100
AcDbEntity
8
JOINTS
100
AcDbPoint
10
12,5
20
6,5
30
6,3
0
POINT
5
B530
100
AcDbEntity
8
JOINTS
100
AcDbPoint
10
4
20
6,5
30
6,3
0
POINT
5
B531
100
AcDbEntity
8
JOINTS
100
AcDbPoint
10
4
20
2,5
30
6,3
0
POINT
5
B532
100
AcDbEntity
8
JOINTS
100
AcDbPoint
10
-2
20
2,5
30
6,3
0
POINT
5
B533
100
AcDbEntity
8
JOINTS
100
AcDbPoint
10
-2
20
6,5
30
6,3
0
POINT
5
B534
100
AcDbEntity
8
JOINTS
100
AcDbPoint
10
-2
20
10,5
30
6,3
0
POINT
5
B535
100
AcDbEntity
8
JOINTS
100
AcDbPoint
10
4
20
10,5
30
6,3
0
POINT
5
B536
100
AcDbEntity
8
JOINTS
100
AcDbPoint
10
7
20
10,5
30
6,3
0
POINT
5
B537
100
AcDbEntity
8
JOINTS
100
AcDbPoint
10
12,5
20
10,5
30
6,3
0
POINT
5
B538
100
AcDbEntity
8
JOINTS
100
AcDbPoint
10
16,5
20
10,5
30
6,3
0
POINT
5
B539
100
AcDbEntity
8
JOINTS
100
AcDbPoint
10
22
20
10,5
30
6,3
0
POINT
5
B540
100
AcDbEntity
8
JOINTS
100
AcDbPoint
10
25
20
10,5
30
6,3
0
POINT
5
B541
100
AcDbEntity
8
JOINTS
100
AcDbPoint
10
25
20
6,5
30
6,3
0
POINT
5
B542
100
AcDbEntity
8
JOINTS
100
AcDbPoint
10
-2
20
2,5
30
0
0
POINT
5
B543
100
AcDbEntity
8
JOINTS
100
AcDbPoint
10
-2
20
2,5
30
9,9
0
POINT
5
B544
100
AcDbEntity
8
JOINTS
100
AcDbPoint
10
4
20
2,5
30
0
0
POINT
5
B545
100
AcDbEntity
8
JOINTS
100
AcDbPoint
10
4
20
2,5
30
9,9
0
POINT
5
B546
100
AcDbEntity
8
JOINTS
100
AcDbPoint
10
25
20
2,5
30
0
0
POINT
5
B547
100
AcDbEntity
8
JOINTS
100
AcDbPoint
10
25
20
2,5
30
9,9
0
POINT
5
B548
100
AcDbEntity
8
JOINTS
100
AcDbPoint
10
31
20
2,5
30
0
0
POINT
5
B549
100
AcDbEntity
8
JOINTS
100
AcDbPoint
10
31
20
2,5
30
9,9
0
POINT
5
B550
100
AcDbEntity
8
JOINTS
100
AcDbPoint
10
-2
20
6,5
30
0
0
POINT
5
B551
100
AcDbEntity
8
JOINTS
100
AcDbPoint
10
-2
20
6,5
30
9,9
0
POINT
5
B552
100
AcDbEntity
8
JOINTS
100
AcDbPoint
10
4
20
6,5
30
0
0
POINT
5
B553
100
AcDbEntity
8
JOINTS
100
AcDbPoint
10
4
20
6,5
30
9,9
0
POINT
5
B554
100
AcDbEntity
8
JOINTS
100
AcDbPoint
10
7
20
6,5
30
0
0
POINT
5
B555
100
AcDbEntity
8
JOINTS
100
AcDbPoint
10
7
20
6,5
30
9,9
0
POINT
5
B556
100
AcDbEntity
8
JOINTS
100
AcDbPoint
10
12,5
20
6,5
30
0
0
POINT
5
B557
100
AcDbEntity
8
JOINTS
100
AcDbPoint
10
12,5
20
6,5
30
9,9
0
POINT
5
B558
100
AcDbEntity
8
JOINTS
100
AcDbPoint
10
16,5
20
6,5
30
0
0
POINT
5
B559
100
AcDbEntity
8
JOINTS
100
AcDbPoint
10
16,5
20
6,5
30
9,9
0
POINT
5
B560
100
AcDbEntity
8
JOINTS
100
AcDbPoint
10
22
20
6,5
30
0
0
POINT
5
B561
100
AcDbEntity
8
JOINTS
100
AcDbPoint
10
22
20
6,5
30
9,9
0
POINT
5
B562
100
AcDbEntity
8
JOINTS
100
AcDbPoint
10
25
20
6,5
30
0
0
POINT
5
B563
100
AcDbEntity
8
JOINTS
100
AcDbPoint
10
25
20
6,5
30
9,9
0
POINT
5
B564
100
AcDbEntity
8
JOINTS
100
AcDbPoint
10
31
20
6,5
30
0
0
POINT
5
B565
100
AcDbEntity
8
JOINTS
100
AcDbPoint
10
31
20
6,5
30
9,9
0
POINT
5
B566
100
AcDbEntity
8
JOINTS
100
AcDbPoint
10
-2
20
10,5
30
0
0
POINT
5
B567
100
AcDbEntity
8
JOINTS
100
AcDbPoint
10
-2
20
10,5
30
9,9
0
POINT
5
B568
100
AcDbEntity
8
JOINTS
100
AcDbPoint
10
4
20
10,5
30
0
0
POINT
5
B569
100
AcDbEntity
8
JOINTS
100
AcDbPoint
10
4
20
10,5
30
9,9
0
POINT
5
B570
100
AcDbEntity
8
JOINTS
100
AcDbPoint
10
7
20
10,5
30
0
0
POINT
5
B571
100
AcDbEntity
8
JOINTS
100
AcDbPoint
10
7
20
10,5
30
9,9
0
POINT
5
B572
100
AcDbEntity
8
JOINTS
100
AcDbPoint
10
12,5
20
10,5
30
0
0
POINT
5
B573
100
AcDbEntity
8
JOINTS
100
AcDbPoint
10
12,5
20
10,5
30
9,9
0
POINT
5
B574
100
AcDbEntity
8
JOINTS
100
AcDbPoint
10
16,5
20
10,5
30
0
0
POINT
5
B575
100
AcDbEntity
8
JOINTS
100
AcDbPoint
10
16,5
20
10,5
30
9,9
0
POINT
5
B576
100
AcDbEntity
8
JOINTS
100
AcDbPoint
10
22
20
10,5
30
0
0
POINT
5
B577
100
AcDbEntity
8
JOINTS
100
AcDbPoint
10
22
20
10,5
30
9,9
0
POINT
5
B578
100
AcDbEntity
8
JOINTS
100
AcDbPoint
10
25
20
10,5
30
0
0
POINT
5
B579
100
AcDbEntity
8
JOINTS
100
AcDbPoint
10
25
20
10,5
30
9,9
0
POINT
5
B580
100
AcDbEntity
8
JOINTS
100
AcDbPoint
10
31
20
10,5
30
0
0
POINT
5
B581
100
AcDbEntity
8
JOINTS
100
AcDbPoint
10
31
20
10,5
30
9,9
0
POINT
5
B582
100
AcDbEntity
8
JOINTS
100
AcDbPoint
10
-2
20
12,5
30
0
0
POINT
5
B583
100
AcDbEntity
8
JOINTS
100
AcDbPoint
10
-2
20
12,5
30
9,9
0
POINT
5
B584
100
AcDbEntity
8
JOINTS
100
AcDbPoint
10
4
20
12,5
30
0
0
POINT
5
B585
100
AcDbEntity
8
JOINTS
100
AcDbPoint
10
4
20
12,5
30
9,9
0
POINT
5
B586
100
AcDbEntity
8
JOINTS
100
AcDbPoint
10
7
20
12,5
30
0
0
POINT
5
B587
100
AcDbEntity
8
JOINTS
100
AcDbPoint
10
7
20
12,5
30
9,9
0
POINT
5
B588
100
AcDbEntity
8
JOINTS
100
AcDbPoint
10
12,5
20
12,5
30
0
0
POINT
5
B589
100
AcDbEntity
8
JOINTS
100
AcDbPoint
10
12,5
20
12,5
30
9,9
0
POINT
5
B590
100
AcDbEntity
8
JOINTS
100
AcDbPoint
10
16,5
20
12,5
30
0
0
POINT
5
B591
100
AcDbEntity
8
JOINTS
100
AcDbPoint
10
16,5
20
12,5
30
9,9
0
POINT
5
B592
100
AcDbEntity
8
JOINTS
100
AcDbPoint
10
22
20
12,5
30
0
0
POINT
5
B593
100
AcDbEntity
8
JOINTS
100
AcDbPoint
10
22
20
12,5
30
9,9
0
POINT
5
B594
100
AcDbEntity
8
JOINTS
100
AcDbPoint
10
25
20
12,5
30
0
0
POINT
5
B595
100
AcDbEntity
8
JOINTS
100
AcDbPoint
10
25
20
12,5
30
9,9
0
POINT
5
B596
100
AcDbEntity
8
JOINTS
100
AcDbPoint
10
31
20
12,5
30
0
0
POINT
5
B597
100
AcDbEntity
8
JOINTS
100
AcDbPoint
10
31
20
12,5
30
9,9
0
POINT
5
B598
100
AcDbEntity
8
JOINTS
100
AcDbPoint
10
-2
20
16,5
30
0
0
POINT
5
B599
100
AcDbEntity
8
JOINTS
100
AcDbPoint
10
-2
20
16,5
30
9,9
0
POINT
5
B600
100
AcDbEntity
8
JOINTS
100
AcDbPoint
10
4
20
16,5
30
0
0
POINT
5
B601
100
AcDbEntity
8
JOINTS
100
AcDbPoint
10
4
20
16,5
30
9,9
0
POINT
5
B602
100
AcDbEntity
8
JOINTS
100
AcDbPoint
10
7
20
16,5
30
0
0
POINT
5
B603
100
AcDbEntity
8
JOINTS
100
AcDbPoint
10
7
20
16,5
30
9,9
0
POINT
5
B604
100
AcDbEntity
8
JOINTS
100
AcDbPoint
10
12,5
20
16,5
30
0
0
POINT
5
B605
100
AcDbEntity
8
JOINTS
100
AcDbPoint
10
12,5
20
16,5
30
9,9
0
POINT
5
B606
100
AcDbEntity
8
JOINTS
100
AcDbPoint
10
16,5
20
16,5
30
0
0
POINT
5
B607
100
AcDbEntity
8
JOINTS
100
AcDbPoint
10
16,5
20
16,5
30
9,9
0
POINT
5
B608
100
AcDbEntity
8
JOINTS
100
AcDbPoint
10
22
20
16,5
30
0
0
POINT
5
B609
100
AcDbEntity
8
JOINTS
100
AcDbPoint
10
22
20
16,5
30
9,9
0
POINT
5
B610
100
AcDbEntity
8
JOINTS
100
AcDbPoint
10
25
20
16,5
30
0
0
POINT
5
B611
100
AcDbEntity
8
JOINTS
100
AcDbPoint
10
25
20
16,5
30
9,9
0
POINT
5
B612
100
AcDbEntity
8
JOINTS
100
AcDbPoint
10
31
20
16,5
30
0
0
POINT
5
B613
100
AcDbEntity
8
JOINTS
100
AcDbPoint
10
31
20
16,5
30
9,9
0
POINT
5
B614
100
AcDbEntity
8
JOINTS
100
AcDbPoint
10
12,5
20
4,5
30
6,3
0
POINT
5
B615
100
AcDbEntity
8
JOINTS
100
AcDbPoint
10
16,5
20
4,5
30
6,3
0
POINT
5
B616
100
AcDbEntity
8
JOINTS
100
AcDbPoint
10
12,5
20
2,5
30
6,3
0
POINT
5
B617
100
AcDbEntity
8
JOINTS
100
AcDbPoint
10
16,5
20
2,5
30
6,3
0
POINT
5
B618
100
AcDbEntity
8
JOINTS
100
AcDbPoint
10
10,5
20
6,5
30
6,3
0
POINT
5
B619
100
AcDbEntity
8
JOINTS
100
AcDbPoint
10
10,5
20
4,5
30
6,3
0
POINT
5
B620
100
AcDbEntity
8
JOINTS
100
AcDbPoint
10
18,5
20
4,5
30
6,3
0
POINT
5
B621
100
AcDbEntity
8
JOINTS
100
AcDbPoint
10
18,5
20
6,5
30
6,3
0
POINT
5
B622
100
AcDbEntity
8
JOINTS
100
AcDbPoint
10
12,5
20
1,6
30
6,3
0
POINT
5
B623
100
AcDbEntity
8
JOINTS
100
AcDbPoint
10
16,5
20
1,6
30
6,3
0
POINT
5
B624
100
AcDbEntity
8
JOINTS
100
AcDbPoint
10
17,3
20
1,6
30
6,3
0
POINT
5
B625
100
AcDbEntity
8
JOINTS
100
AcDbPoint
10
17,3
20
4,5
30
6,3
0
POINT
5
B626
100
AcDbEntity
8
JOINTS
100
AcDbPoint
10
11,7
20
1,6
30
6,3
0
POINT
5
B627
100
AcDbEntity
8
JOINTS
100
AcDbPoint
10
11,7
20
4,5
30
6,3
0
POINT
5
B628
100
AcDbEntity
8
JOINTS
100
AcDbPoint
10
3
20
11,5
30
13,2
0
POINT
5
B629
100
AcDbEntity
8
JOINTS
100
AcDbPoint
10
26
20
11,5
30
13,2
0
POINT
5
B630
100
AcDbEntity
8
JOINTS
100
AcDbPoint
10
1
20
5,5
30
12,2
0
POINT
5
B631
100
AcDbEntity
8
JOINTS
100
AcDbPoint
10
28
20
5,5
30
12,2
0
POINT
5
B632
100
AcDbEntity
8
JOINTS
100
AcDbPoint
10
1
20
9,5
30
12,2
0
POINT
5
B633
100
AcDbEntity
8
JOINTS
100
AcDbPoint
10
28
20
9,5
30
12,2
0
POINT
5
B634
100
AcDbEntity
8
JOINTS
100
AcDbPoint
10
1
20
13,5
30
12,2
0
POINT
5
B635
100
AcDbEntity
8
JOINTS
100
AcDbPoint
10
28
20
13,5
30
12,2
0
POINT
5
B636
100
AcDbEntity
8
JOINTS
100
AcDbPoint
10
4
20
9,5
30
12,2
0
POINT
5
B637
100
AcDbEntity
8
JOINTS
100
AcDbPoint
10
7
20
9,5
30
12,2
0
POINT
5
B638
100
AcDbEntity
8
JOINTS
100
AcDbPoint
10
12,5
20
9,5
30
12,2
0
POINT
5
B639
100
AcDbEntity
8
JOINTS
100
AcDbPoint
10
16,5
20
9,5
30
12,2
0
POINT
5
B640
100
AcDbEntity
8
JOINTS
100
AcDbPoint
10
22
20
9,5
30
12,2
0
POINT
5
B641
100
AcDbEntity
8
JOINTS
100
AcDbPoint
10
25
20
9,5
30
12,2
0
POINT
5
B642
100
AcDbEntity
8
JOINTS
100
AcDbPoint
10
25
20
13,5
30
12,2
0
POINT
5
B643
100
AcDbEntity
8
JOINTS
100
AcDbPoint
10
22
20
13,5
30
12,2
0
POINT
5
B644
100
AcDbEntity
8
JOINTS
100
AcDbPoint
10
16,5
20
13,5
30
12,2
0
POINT
5
B645
100
AcDbEntity
8
JOINTS
100
AcDbPoint
10
12,5
20
13,5
30
12,2
0
POINT
5
B646
100
AcDbEntity
8
JOINTS
100
AcDbPoint
10
7
20
13,5
30
12,2
0
POINT
5
B647
100
AcDbEntity
8
JOINTS
100
AcDbPoint
10
4
20
13,5
30
12,2
0
POINT
5
B648
100
AcDbEntity
8
JOINTS
100
AcDbPoint
10
1
20
11,5
30
12,2
0
POINT
5
B649
100
AcDbEntity
8
JOINTS
100
AcDbPoint
10
28
20
11,5
30
12,2
0
POINT
5
B650
100
AcDbEntity
8
JOINTS
100
AcDbPoint
10
4
20
11,5
30
12,2
0
POINT
5
B651
100
AcDbEntity
8
JOINTS
100
AcDbPoint
10
7
20
11,5
30
12,2
0
POINT
5
B652
100
AcDbEntity
8
JOINTS
100
AcDbPoint
10
12,5
20
11,5
30
12,2
0
POINT
5
B653
100
AcDbEntity
8
JOINTS
100
AcDbPoint
10
16,5
20
11,5
30
12,2
0
POINT
5
B654
100
AcDbEntity
8
JOINTS
100
AcDbPoint
10
22
20
11,5
30
12,2
0
POINT
5
B655
100
AcDbEntity
8
JOINTS
100
AcDbPoint
10
25
20
11,5
30
12,2
0
POINT
5
B656
100
AcDbEntity
8
JOINTS
100
AcDbPoint
10
4
20
11,5
30
13,2
0
POINT
5
B657
100
AcDbEntity
8
JOINTS
100
AcDbPoint
10
7
20
11,5
30
13,2
0
POINT
5
B658
100
AcDbEntity
8
JOINTS
100
AcDbPoint
10
12,5
20
11,5
30
13,2
0
POINT
5
B659
100
AcDbEntity
8
JOINTS
100
AcDbPoint
10
16,5
20
11,5
30
13,2
0
POINT
5
B660
100
AcDbEntity
8
JOINTS
100
AcDbPoint
10
22
20
11,5
30
13,2
0
POINT
5
B661
100
AcDbEntity
8
JOINTS
100
AcDbPoint
10
25
20
11,5
30
13,2
0
POINT
5
B662
100
AcDbEntity
8
JOINTS
100
AcDbPoint
10
3
20
11,5
30
9,9
0
POINT
5
B663
100
AcDbEntity
8
JOINTS
100
AcDbPoint
10
26
20
11,5
30
9,9
0
POINT
5
B664
100
AcDbEntity
8
JOINTS
100
AcDbPoint
10
4
20
11,5
30
9,9
0
POINT
5
B665
100
AcDbEntity
8
JOINTS
100
AcDbPoint
10
7
20
11,5
30
9,9
0
POINT
5
B666
100
AcDbEntity
8
JOINTS
100
AcDbPoint
10
12,5
20
11,5
30
9,9
0
POINT
5
B667
100
AcDbEntity
8
JOINTS
100
AcDbPoint
10
16,5
20
11,5
30
9,9
0
POINT
5
B668
100
AcDbEntity
8
JOINTS
100
AcDbPoint
10
22
20
11,5
30
9,9
0
POINT
5
B669
100
AcDbEntity
8
JOINTS
100
AcDbPoint
10
25
20
11,5
30
9,9
0
POINT
5
B670
100
AcDbEntity
8
JOINTS
100
AcDbPoint
10
9,8
20
4,5
30
2,7
0
POINT
5
B671
100
AcDbEntity
8
JOINTS
100
AcDbPoint
10
19,2
20
4,5
30
2,7
0
POINT
5
B672
100
AcDbEntity
8
JOINTS
100
AcDbPoint
10
19,2
20
6,5
30
2,7
0
POINT
5
B673
100
AcDbEntity
8
JOINTS
100
AcDbPoint
10
9,8
20
6,5
30
2,7
0
POINT
5
B674
100
AcDbEntity
8
JOINTS
100
AcDbPoint
10
12,5
20
4,5
30
2,7
0
POINT
5
B675
100
AcDbEntity
8
JOINTS
100
AcDbPoint
10
12,5
20
2,277
30
1,5
0
POINT
5
B676
100
AcDbEntity
8
JOINTS
100
AcDbPoint
10
16,5
20
2,277
30
1,5
0
POINT
5
B677
100
AcDbEntity
8
JOINTS
100
AcDbPoint
10
12,5
20
1
30
1,5
0
POINT
5
B678
100
AcDbEntity
8
JOINTS
100
AcDbPoint
10
16,5
20
1
30
1,5
0
POINT
5
B679
100
AcDbEntity
8
JOINTS
100
AcDbPoint
10
16,5
20
4,5
30
2,7
0
POINT
5
B680
100
AcDbEntity
8
JOINTS
100
AcDbPoint
10
12,5
20
-2
30
0
0
POINT
5
B681
100
AcDbEntity
8
JOINTS
100
AcDbPoint
10
16,5
20
-2
30
0
0
POINT
5
B682
100
AcDbEntity
8
JOINTS
100
AcDbPoint
10
12,5
20
1,6
30
1,5
0
POINT
5
B683
100
AcDbEntity
8
JOINTS
100
AcDbPoint
10
16,5
20
1,6
30
1,5
0
POINT
5
B684
100
AcDbEntity
8
JOINTS
100
AcDbPoint
10
12,5
20
1,6
30
0
0
POINT
5
B685
100
AcDbEntity
8
JOINTS
100
AcDbPoint
10
16,5
20
1,6
30
0
0
ENDSEC
0
SECTION
2
OBJECTS
0
DICTIONARY
5
C
100
AcDbDictionary
3
ACAD_GROUP
350
D
3
ACAD_MLINESTYLE
350
E
0
DICTIONARY
5
D
102
{ACAD_REACTORS
330
C
102
}
100
AcDbDictionary
0
DICTIONARY
5
E
102
{ACAD_REACTORS
330
C
102
}
100
AcDbDictionary
3
STANDARD
350
1C
0
MLINESTYLE
5
1C
102
{ACAD_REACTORS
330
E
102
}
100
AcDbMlineStyle
2
STANDARD
70
0
3

62
0
51
90.0
52
90.0
71
2
49
0.5
62
256
6
BYLAYER
49
-0.5
62
256
6
BYLAYER
0
ENDSEC
0
EOF
